<svg id="Layer_1" enable-background="new 0 0 509.251 509.251" height="512" viewBox="0 0 509.251 509.251" width="512" xmlns="http://www.w3.org/2000/svg"><g><path d="m254.626 17.563c-84.861 0-159.68 42.996-203.861 108.392l25.459 306.614c13.934 14.691 29.663 27.661 46.836 38.561l159.205 22.041 115.518-29.868c62.182-44.613 102.691-117.521 102.691-199.892 0-135.778-110.07-245.848-245.848-245.848z" fill="#5fd2d0"/><path d="m267.399 437.433c23.184 0 41.979-18.795 41.979-41.979v-223.757c0-23.184-18.795-41.979-41.979-41.979h-219.111c-24.987 38.485-39.51 84.39-39.51 133.693 0 67.983 27.597 129.518 72.195 174.022z" fill="#78e9e1"/><path d="m398.775 261.352h25.734v50.289h-25.734z" fill="#fff" transform="matrix(0 1 -1 0 698.139 -125.145)"/><path d="m242.393 13.206-12.111 136.06-30.382 45.298 60.522 4.346 57.597-3.425c-11.932-17.908-29.201-31.956-49.537-39.868v-142.411z" fill="#fff"/><path d="m168.526 201.07 30.741-5.584c7.768-11.658 17.798-21.681 29.463-29.439 12.568-8.359 20.073-22.492 20.073-37.586v-115.255h-56.673v142.412c-19.987 7.776-37.01 21.479-48.917 38.948z" fill="#e8d6ff"/><path d="m177.48 0h57.571v40.555h-57.571z" fill="#e8d6ff"/><path d="m258.644 355.286c44.409-12.375 76.992-53.12 76.992-101.474 0-21.97-6.73-42.366-18.236-59.247h-117.501s-44.216 28.924-27.891 89.652c17.226 64.08 82.09 72.336 86.636 71.069z" fill="#f5415f"/><path d="m241.209 358.583h.001c9.792-1.009 17.023-3.222 17.433-3.301-44.408-12.376-76.994-53.115-76.994-101.469 0-21.973 6.74-42.366 18.25-59.247h-56.673c-49.557 72.691 7.694 173.319 97.983 164.017z" fill="#cd2846"/><path d="m372.043 479.445v.013c8.929-4.863 17.518-10.269 25.734-16.163v-380.72c0-7.106-5.761-12.867-12.867-12.867h-198.947c-7.106 0-12.867 5.761-12.867 12.867 0 7.106 5.761 12.867 12.867 12.867h186.08v337.12c0 21.296-17.264 38.56-38.56 38.56h-210.417c2.775 1.177 55.947 39.903 137.219 38.066 38.502-.875 76.71-10.65 111.758-29.743z" fill="#265cde"/><path d="m186.39 95.442h57.904c7.106 0 12.867-5.761 12.867-12.867 0-7.106-5.761-12.867-12.867-12.867h-58.331c-7.186 0-12.997 5.891-12.865 13.108.13 7.083 6.207 12.626 13.292 12.626z" fill="#3176ff"/><path d="m261.596 435.523c0 19.474-15.787 35.261-35.261 35.261s-35.261-15.787-35.261-35.261 35.261-55.848 35.261-55.848 35.261 36.374 35.261 55.848z" fill="#ffdc64"/><path d="m245.661 451.458c0 10.673-8.652 19.326-19.326 19.326-10.673 0-19.326-8.652-19.326-19.326 0-10.673 19.326-30.609 19.326-30.609s19.326 19.936 19.326 30.609z" fill="#ffc305"/><path d="m283.132 40.555h-40.513c-11.199 0-20.277-9.079-20.277-20.277 0-11.199 9.079-20.278 20.277-20.278h40.513z" fill="#fff"/><path d="m436.787 339.608c-7.106 0-12.867-5.761-12.867-12.867v-91.841c0-7.106 5.761-12.867 12.867-12.867 7.106 0 12.867 5.761 12.867 12.867v91.842c0 7.106-5.761 12.866-12.867 12.866z" fill="#265cde"/><path d="m449.653 253.004v-18.104c0-7.106-5.761-12.867-12.867-12.867-7.106 0-12.867 5.761-12.867 12.867v18.105c0 7.106 5.761 12.867 12.867 12.867 7.107-.001 12.867-5.761 12.867-12.868z" fill="#3176ff"/><g fill="#cd2846"><circle cx="197.599" cy="303.694" r="20.118"/><circle cx="288.835" cy="277.001" r="11.13"/><circle cx="234.251" cy="235.455" r="13.422"/></g></g></svg>