<svg id="Layer_1" enable-background="new 0 0 510.705 510.705" height="512" viewBox="0 0 510.705 510.705" width="512" xmlns="http://www.w3.org/2000/svg"><g><g><path d="m255.355 18.415c-135.943 0-246.145 110.203-246.145 246.145 0 97.982 57.25 182.592 140.124 222.205l209.788 1.064c84.088-39.147 123.378-124.401 123.378-223.268 0-74.315-13.934-140.938-66.002-186.071-43.179-37.427-99.517-60.075-161.143-60.075z" fill="#6e64c3"/></g><path d="m391.857 59.716-.006.006c-2.278-1.521-4.582-3.008-6.913-4.455 0 0 0 0-.001-.001v11.369l-41.992 41.992-6.952-6.952-21.873 21.873 13.348 13.347-79.143 79.143h.001-.001l-18.9 18.9c-11.924 11.924-15.121 30.03-8.001 45.316l-12.366 12.366c-8.138 8.139-8.741 21.399-.897 29.821 8.235 8.843 22.085 9.028 30.556.557l12.725-12.725.325.162.091.046.873.436c15.444 7.703 34.083 4.67 46.286-7.534l21.764-21.764c23.674-23.674 64.154-6.907 64.154 26.573 0 20.755-16.825 37.581-37.581 37.581h-172.536c-11.177 0-20.696 8.691-21.092 19.861-.417 11.726 8.965 21.363 20.599 21.363h60.933l-1.521 48.593 1.697 48.515c5.725 1.27 11.532 2.321 17.4 3.184l106.288.539c11.727-5.46 22.952-11.818 33.587-18.983v-.013c63.577-42.834 105.271-113.895 108.572-193.966.023-.551.046-1.102.066-1.654 3.045-88.231-40.589-167.49-109.49-213.496z" fill="#5046af"/><g><path d="m218.047 357.595c0 8.95-7.255 16.205-16.205 16.205s-16.205-7.255-16.205-16.205c0-6.14 7.628-20.478 12.417-28.874 1.675-2.937 5.9-2.937 7.576 0 4.789 8.396 12.417 22.733 12.417 28.874z" fill="#5fd2d0"/></g><g><path d="m201.842 401.999-1.701 54.353 1.697 48.515c17.229 3.822 35.137 5.838 53.516 5.838 37.075 0 72.226-8.213 103.759-22.893v-85.813z" fill="#fff"/></g><g><path d="m201.842 401.999h-52.505v24.426l2.942 6.184-2.942 6.184v16.49l3.596 6.184-3.596 6.184v19.109c16.561 7.916 34.151 14.02 52.505 18.092z" fill="#e8d6ff"/></g><g><path d="m149.337 455.281h36.3v12.367h-36.3z" fill="#265cde"/></g><g><path d="m149.337 426.425h36.3v12.367h-36.3z" fill="#265cde"/></g><g><g><g><path d="m384.17 182.892 12.957-12.957-69.02-69.02-81.976 81.977 54.394 6.911z" fill="#fff"/></g><path d="m246.131 182.892 45.074 3.779 16.248-3.779 51.66-50.971-31.006-31.006z" fill="#e8d6ff"/><g><path d="m249.249 277.126 1.287.642c15.444 7.705 34.085 4.672 46.289-7.532l87.345-87.345h-76.716l-35.372 20.276c-25.862 14.825-35.837 47.137-22.833 73.959z" fill="#5fd2d0"/></g><g><path d="m421.959 156.688-52.874-52.874 39.438-62.719c4.103-6.525 9.385-12.27 15.734-16.64 32.157-22.133 65.534 3.701 67.991 9.073 9.689 21.188 5.813 47.057-11.628 64.499z" fill="#ffdc64"/></g><g><path d="m492.242 33.531c-2.769-6.054-6.638-11.728-11.622-16.712-22.425-22.425-58.783-22.425-81.208 0l-58.661 58.661 28.334 28.334 58.661-58.661c17.442-17.442 43.309-21.311 64.496-11.622z" fill="#ffc305"/></g><g><path d="m314.249 84.792h58.815v30.933h-58.815z" fill="#ffc305" transform="matrix(.707 .707 -.707 .707 171.548 -213.637)"/></g><g><path d="m407.038 185.513-55.842-55.842c-6.04-6.04-6.04-15.833 0-21.873 6.04-6.04 15.833-6.04 21.873 0l55.842 55.842z" fill="#ffdc64"/></g></g><g><g><path d="m227.231 201.791c-11.924 11.924-15.121 30.03-8.001 45.316l-12.725 12.725c-8.289 8.289-8.289 21.729 0 30.019 8.289 8.289 21.729 8.289 30.019 0l12.725-12.725.416.208c-6.896-15.207-3.661-33.115 8.166-44.942l49.622-49.5h-61.323z" fill="#00bec2"/></g></g></g><g><path d="m135.206 298.085c-2.637 0-5.275-1.006-7.288-3.018l-44.985-44.985c-4.025-4.025-4.025-10.551 0-14.575 4.025-4.025 10.551-4.025 14.575 0l44.985 44.985c4.025 4.025 4.025 10.551 0 14.575-2.012 2.012-4.65 3.018-7.287 3.018z" fill="#5046af"/></g><g><path d="m90.221 298.085c-2.637 0-5.275-1.006-7.288-3.018-4.025-4.025-4.025-10.551 0-14.575l44.985-44.985c4.025-4.025 10.551-4.025 14.575 0 4.025 4.025 4.025 10.551 0 14.575l-44.985 44.985c-2.012 2.012-4.65 3.018-7.287 3.018z" fill="#5046af"/></g><g><path d="m231.691 137.333c-5.692 0-10.306-4.614-10.306-10.306v-63.618c0-5.692 4.614-10.306 10.306-10.306s10.306 4.614 10.306 10.306v63.618c0 5.692-4.614 10.306-10.306 10.306z" fill="#5046af"/></g><g><path d="m263.501 105.524h-63.618c-5.692 0-10.306-4.614-10.306-10.306s4.614-10.306 10.306-10.306h63.618c5.692 0 10.306 4.614 10.306 10.306s-4.614 10.306-10.306 10.306z" fill="#5046af"/></g><g><circle cx="169.916" cy="171.171" fill="#5046af" r="20.445"/></g><g><path d="m123.869 305.299c-2.637 0-5.275-1.006-7.288-3.018l-44.985-44.985c-4.025-4.025-4.025-10.551 0-14.575 4.025-4.025 10.551-4.025 14.575 0l44.985 44.985c4.025 4.025 4.025 10.551 0 14.575-2.012 2.013-4.65 3.018-7.287 3.018z" fill="#fff"/></g><g><path d="m78.884 305.299c-2.637 0-5.275-1.006-7.288-3.018-4.025-4.025-4.025-10.551 0-14.575l44.985-44.985c4.025-4.025 10.551-4.025 14.575 0 4.025 4.025 4.025 10.551 0 14.575l-44.985 44.985c-2.012 2.013-4.65 3.018-7.287 3.018z" fill="#fff"/></g><g><path d="m220.355 144.548c-5.692 0-10.306-4.614-10.306-10.306v-63.619c0-5.692 4.614-10.306 10.306-10.306s10.306 4.614 10.306 10.306v63.618c0 5.693-4.614 10.307-10.306 10.307z" fill="#fff"/></g><g><path d="m252.164 112.738h-63.618c-5.692 0-10.306-4.614-10.306-10.306s4.614-10.306 10.306-10.306h63.618c5.692 0 10.306 4.614 10.306 10.306s-4.614 10.306-10.306 10.306z" fill="#fff"/></g><g><circle cx="158.579" cy="178.385" fill="#fff" r="20.445"/></g><circle cx="380.349" cy="326.721" fill="#fff" r="14.441"/><g><path d="m370.723 366.535h-174.742c-10.889 0-19.717 8.827-19.717 19.717v1.791c0 10.889 8.827 19.717 19.717 19.717h175.236c11.633 0 21.015-9.637 20.599-21.363-.397-11.171-9.916-19.862-21.093-19.862z" fill="#fff"/></g><path d="m178.007 387.147c0-11.384 9.228-20.612 20.612-20.612h-57.89c-11.384 0-20.612 9.228-20.612 20.612s9.228 20.612 20.612 20.612h57.89c-11.383 0-20.612-9.228-20.612-20.612z" fill="#e8d6ff"/></g></svg>