<svg id="Layer_1" enable-background="new 0 0 512 512" height="512" viewBox="0 0 512 512" width="512" xmlns="http://www.w3.org/2000/svg"><g><path d="m476.109 251.628c0 121.636-68.569 227.159-184.187 248.041-14.374 2.596-29.179 3.952-44.301 3.952-136.757 0-247.621-110.864-247.621-247.621s110.864-247.621 247.621-247.621c59.831 0 114.706 21.22 157.51 56.545 55.033 45.417 70.978 109.778 70.978 186.704z" fill="#05cdff"/><g fill="#05acff"><path d="m370.589 94.505c.434.747.859 1.497 1.277 2.252 22.575 40.732-26.704 83.439-64.117 55.708l-.026-.019-13.277-10.377c-8.788-9.062-23.26-9.284-32.321-.494-9.062 8.789-9.284 23.26-.494 32.322l21.188 28.007c7.561 9.994.432 24.326-12.1 24.326h-57.5v.131h-113.989c-11.294 0-20.936 8.781-21.312 20.068-.394 11.801 9.055 21.491 20.768 21.491h110.828c2.047 0 3.706 1.659 3.706 3.706v.241c0 2.047-1.659 3.706-3.706 3.706h-150.546c-11.294 0-20.935 8.781-21.312 20.068-.394 11.801 9.055 21.491 20.768 21.491h151.089c2.047 0 3.706 1.659 3.706 3.706v.241c0 2.047-1.659 3.706-3.706 3.706h-110.284c-11.294 0-20.935 8.781-21.312 20.068-.394 11.801 9.055 21.491 20.768 21.491h110.617c1.835 0 3.545 1.235 3.858 3.042.406 2.339-1.384 4.37-3.648 4.37h-84.103c-10.211 0-18.91 7.977-19.186 18.184-.285 10.57 8.194 19.079 18.695 19.079h70.686c28.954 0 44.876 22.914 44.515 45.563-.437 27.377 24.877 48.058 51.817 43.164 113.956-20.698 203.306-120.492 203.306-243.746 0-77.526-35.336-145.734-89.886-190.84-19.781-16.357-47.657 7.148-34.767 29.345z"/><path d="m148.101 366.192c.123.014.244.039.367.051-.124-.013-.244-.037-.367-.051z"/><path d="m146.246 365.898c.058.012.114.029.173.04-.059-.012-.115-.028-.173-.04z"/></g><path d="m498.46 195.126h-42.638c-34.794 0-68.589-11.64-96.003-33.066l-52.096-40.717s-6.118 18.446-13.803 36.892-3.184 36.892-23.202 36.892h-57.5v.131h-64.544c-11.27 0-20.407 9.136-20.407 20.407v.744c0 11.271 9.137 20.408 20.408 20.408h60.836c2.047 0 3.706 1.659 3.706 3.706v.241c0 2.047-1.659 3.706-3.706 3.706h-102.975c-11.299 0-20.949 8.746-21.414 20.035-.486 11.816 8.969 21.524 20.693 21.524h103.698c2.047 0 3.706 1.659 3.706 3.706v.241c0 2.047-1.659 3.706-3.706 3.706h-60.837c-8.595 0-16.124 5.76-18.373 14.056l-1.374 5.07.572 4.123c1.455 10.496 10.428 18.31 21.024 18.31h58.779c2.007 0 3.806 1.503 3.911 3.507.112 2.137-1.588 3.905-3.701 3.905h-34.311c-8.168 0-15.31 5.506-17.388 13.405l-1.657 6.296 1.379 4.672c2.256 7.644 9.275 12.89 17.245 12.89h1.977 321.701c7.478 0 13.54-6.062 13.54-13.54v-157.71c0-7.478-6.062-13.54-13.54-13.54z" fill="#ffdc64"/><g fill="#ffc305"><path d="m158.072 360.573c.412-10.107 9.096-17.919 19.211-17.919h-51.839c-10.116 0-18.799 7.812-19.211 17.919-.436 10.692 8.097 19.344 18.686 19.344h51.839c-10.589 0-19.122-8.652-18.686-19.344z"/><path d="m282.818 170.8c7.561 9.994.432 24.326-12.1 24.326h51.839c12.532 0 19.66-14.332 12.1-24.326l-21.188-28.007c-5.707-5.884-7.59-14.042-5.746-21.451l-13.277-10.377c-8.788-9.062-23.26-9.284-32.321-.494-9.062 8.789-9.284 23.26-.494 32.322z"/><path d="m129.748 314.859c-.218-11.645 9.673-21.177 21.321-21.177h-51.839c-11.647 0-21.539 9.531-21.321 21.177.211 11.293 9.432 20.383 20.776 20.383h51.839c-11.344 0-20.565-9.09-20.776-20.383z"/><path d="m213.218 195.126h51.839v.131h-51.839z"/><path d="m89.486 265.646c-.218-11.645 9.673-21.177 21.321-21.177h-51.839c-11.647 0-21.539 9.531-21.321 21.177.211 11.293 9.432 20.383 20.776 20.383h51.839c-11.344 0-20.564-9.089-20.776-20.383z"/><path d="m98.685 236.817h51.839c-11.344 0-20.564-9.09-20.776-20.383-.218-11.645 9.673-21.177 21.321-21.177h-51.839c-11.647 0-21.539 9.531-21.321 21.177.211 11.293 9.432 20.383 20.776 20.383z"/></g><path d="m224.835 132.898c0 18.75-15.2 33.951-33.951 33.951s-33.951-15.2-33.951-33.951c0-13.762 18.29-40.693 28.021-54.047 2.929-4.02 8.93-4.02 11.859 0 9.732 13.354 28.022 40.285 28.022 54.047z" fill="#05acff"/><path d="m215.758 120.091c0 18.75-15.2 33.951-33.951 33.951s-33.951-15.2-33.951-33.951c0-13.762 18.29-40.693 28.021-54.047 2.929-4.02 8.93-4.02 11.859 0 9.732 13.355 28.022 40.285 28.022 54.047z" fill="#f5415f"/></g></svg>