<svg id="Layer_1" enable-background="new 0 0 509.397 509.397" height="512" viewBox="0 0 509.397 509.397" width="512" xmlns="http://www.w3.org/2000/svg"><g><path d="m493.535 249.519c0 140.666-99.171 244.016-239.837 244.016-67.338 0-127.572-10.27-173.115-52.945-49.595-46.473-80.583-112.563-80.583-185.892 0-140.666 114.033-254.698 254.699-254.698 42.877 0 83.279 10.595 118.732 29.31 80.856 42.682 120.104 122.42 120.104 220.209z" fill="#265cde"/><path d="m371.522 28.324c.541.511 1.08 1.023 1.616 1.538 44.699 42.92 47.581 107.71 1.917 111.769-35.355 3.143-40.968-53.2-40.968-53.2s-56.252-13.683-82.508 12.573c-16.735 16.735-17.244 45.654-15.413 64.429 0 16.006-14.128 28.263-29.992 26.137-16.595-2.224-36.389-3.244-49.182 1.577-61.529 23.186-87.272 106.03-57.5 185.04 3.763 9.985 8.232 19.431 13.293 28.267 12.052 21.041-10.439 44.999-32.019 33.941-.276-.142-.552-.284-.828-.426 45.61 43.038 107.099 69.429 174.758 69.429 140.734 0 256.315-116.99 254.682-257.714-1.128-97.282-56.799-181.444-137.856-223.36z" fill="#0037bd"/><path d="m378.414 169.324c-25.104-9.46-52.285-7.524-77.692 3.449-28.728 12.407-61.272 12.407-89.999 0-25.407-10.973-52.588-12.909-77.692-3.449-61.529 23.186-87.272 106.03-57.5 185.039 29.773 79.009 103.787 124.263 165.316 101.077 5.223-1.968 10.181-4.376 14.876-7.165 4.695 2.789 9.653 5.197 14.876 7.165 61.529 23.186 135.543-22.068 165.316-101.077 29.771-79.009 4.028-161.853-57.501-185.039z" fill="#f5415f"/><path d="m334.829 407.27c-.052-.02-.104-.039-.157-.059-9.504-3.601-19.934-3.601-29.438 0-.052.02-.104.039-.157.059-61.529 23.186-135.543-22.068-165.316-101.077-19.226-51.022-15.294-103.638 6.47-140.76-4.449.967-8.856 2.255-13.201 3.892-61.529 23.186-87.272 106.03-57.5 185.039 29.773 79.009 103.787 124.263 165.316 101.077 5.223-1.968 10.181-4.376 14.876-7.165 4.695 2.789 9.653 5.197 14.876 7.165 46.332 17.459 99.74-3.894 136.01-49.24-23.678 8.822-48.613 9.798-71.779 1.069z" fill="#cd2846"/><path d="m318.316 137.264c-26.256 26.256-82.509 12.573-82.509 12.573s-13.683-56.253 12.573-82.509 82.509-12.573 82.509-12.573 13.683 56.253-12.573 82.509z" fill="#5fd2d0"/><g><path d="m280.92 67.328c9.097-9.097 21.796-13.398 34.508-15.136-18.602-2.12-49.513-2.399-67.048 15.136-26.256 26.256-12.573 82.509-12.573 82.509s15.161 3.681 33.413 3.555l-.873-3.555c.001-.001-13.683-56.253 12.573-82.509z" fill="#00bec2"/></g><path d="m378.414 169.324c-25.104-9.46-52.285-7.524-77.692 3.449-10.084 4.355-20.638 7.175-31.332 8.473-3.484 10.905-5.372 22.524-5.372 34.586 0 62.704 50.832 113.536 113.536 113.536 26.358 0 50.617-8.984 69.885-24.054 6.033-61.734-20.248-117.61-69.025-135.99z" fill="#ff6473"/></g></svg>