<svg id="Layer_1" enable-background="new 0 0 510.92 510.92" height="512" viewBox="0 0 510.92 510.92" width="512" xmlns="http://www.w3.org/2000/svg"><g><g><path d="m495.297 254.955c0 136.215-93.657 226.574-229.872 226.574-109.432 0-203.361-50.699-235.618-149.354-7.895-24.146-12.164-49.932-12.164-76.716 0-136.215 110.424-246.639 246.639-246.639 82.238 0 155.075 40.249 199.888 102.124 29.411 40.612 31.127 90.034 31.127 144.011z" fill="#5fd2d0"/></g><path d="m400.734 460.929c67.811-45.124 110.186-121.456 110.186-205.469 0-43.613-11.425-87.068-34.546-125.918h.006c-3.801-6.388-7.881-12.589-12.225-18.588h-.016c-3.777-5.214-7.743-10.283-11.907-15.179 2.409 4.966 4.636 10.035 6.716 15.179h-66.866c-9.582 0-29.428 0-47.702 0-4.64 0-7.396 9.264-11.64 9.264-8.032 0-16.789-9.264-21.394-9.264l-153.681-5.163c-49.638.455-59.341 22.582-59.341 49.965v18.588h-28.191v36.21h13.081v68.657c-17.842 6.942-33.029 19.18-43.659 34.774h-.006c-4.013 5.887-7.232 11.98-9.725 18.186 17.287 52.867 51.943 97.871 97.241 128.256h.004c39.618 26.577 86.976 41.674 137.213 41.674 46.834-.002 94.49-13.249 136.452-41.172zm-310.585-146.944h-.002.002c.001-.001.002-.003.002-.004 0 .001-.001.002-.002.004zm163.288 108.961c-.404 15.21-12.805 27.247-28.018 26.953-.301-.006-.602-.012-.903-.019-20.085-.461-32.99-21.868-23.722-39.692 6.739-12.959 10.548-27.685 10.548-43.303 0-19.616-6.009-37.827-16.282-52.899h-.013c-10.63-15.595-25.822-27.832-43.665-34.774v-68.657h13.081v-36.21h-37.872v-13.728c0-17.161 13.912-31.073 31.073-31.073h10.77 91.527 51.384c17.161 0 22.812 13.912 22.812 31.073v13.728h-29.61v36.21h13.081v56.354l-46.238 107.635-14.921 34.733c-1.942 4.524-2.911 9.144-3.032 13.669z" fill="#00bec2"/><g><path d="m408.827 355.954-80.323-186.979-29.722 186.979 67.307 4.45z" fill="#fff"/></g><g><path d="m333.316 180.175-4.812-11.2-80.322 186.979 29.841 4.212 20.759-4.212 34.534-80.388z" fill="#e8d6ff"/></g><g><path d="m423.748 390.687-14.921-34.733h-110.045l-16.954 28.092c-14.967 24.801 1.797 57.164 30.743 58.26.601.023 1.204.034 1.809.034h75.339c26.602.001 44.529-27.211 34.029-51.653z" fill="#f5415f"/></g><g><path d="m283.862 390.687 14.921-34.733h-50.601l-14.921 34.733c-10.5 24.442 7.427 51.654 34.029 51.654h50.601c-26.603 0-44.529-27.212-34.029-51.654z" fill="#cd2846"/></g><g><path d="m171.843 295.402c-10.631-15.598-25.824-27.837-43.669-34.78v-93.075h-24.791v90.896c-19.445 7.565-25.768 19.317-36.443 36.953l65.57 2.609z" fill="#fff"/></g><g><path d="m98.796 167.548h-38.793v93.075c-17.845 6.943-33.035 19.184-43.665 34.782l21.378 4.275 29.223-4.284c8.196-12.024 19.112-22.039 31.857-29.183z" fill="#e8d6ff"/></g><g><path d="m94.088 155.756h47.166v36.21h-47.166z" fill="#fff"/></g><g><path d="m46.922 155.756h51.403v36.21h-51.403z" fill="#e8d6ff"/></g><g><path d="m90.56 434.443c7.27 4.897 20.78 6.698 28.83 4.455 39.651-11.049 68.743-47.428 68.743-90.602 0-19.616-6.009-37.827-16.282-52.899h-104.912s-75.952 71.98 23.621 139.046z" fill="#ffdc64"/></g><g><path d="m103.823 441.842h.001c8.743-.901 15.199-2.876 15.565-2.948-39.65-11.05-68.744-47.424-68.744-90.598 0-19.619 6.018-37.827 16.295-52.899h-50.601c-44.248 64.904 6.869 154.75 87.484 146.445z" fill="#ffc305"/></g><g><path d="m326.172 167.548h36.418v88.591h-36.418z" fill="#fff"/></g><g><path d="m294.419 167.548h38.896v88.591h-38.896z" fill="#e8d6ff"/></g><g><path d="m328.504 155.756h47.166v36.21h-47.166z" fill="#fff"/></g><g><path d="m281.338 155.756h51.403v36.21h-51.403z" fill="#e8d6ff"/></g><g><path d="m337.798 355.954h-18.588v-213.926c0-17.134-13.94-31.073-31.073-31.073h-153.681c-17.134 0-31.074 13.94-31.074 31.073v153.369h-18.588v-153.369c0-27.383 22.278-49.661 49.662-49.661h153.681c27.383 0 49.661 22.278 49.661 49.661z" fill="#265cde"/></g><path d="m227.458 101.66c0-5.133 4.161-9.294 9.294-9.294h-91.527c-5.133 0-9.294 4.161-9.294 9.294s4.161 9.294 9.294 9.294h91.527c-5.133 0-9.294-4.161-9.294-9.294z" fill="#3176ff"/><g><path d="m449.28 92.366h-80.408c-27.384 0-49.662 22.278-49.662 49.661v101.131h18.588v-101.13c0-17.134 13.94-31.073 31.074-31.073h95.283c-4.662-6.438-9.627-12.64-14.875-18.589z" fill="#265cde"/></g><path d="m418.353 299.422h31.302c11.009 0 19.933-8.924 19.933-19.933v-104.222c0-11.009-8.924-19.933-19.933-19.933h-31.302c-11.009 0-19.933 8.924-19.933 19.933v104.222c.001 11.009 8.925 19.933 19.933 19.933z" fill="#5fd2d0"/></g></svg>