<svg id="Layer_1" enable-background="new 0 0 511.577 511.577" height="512" viewBox="0 0 511.577 511.577" width="512" xmlns="http://www.w3.org/2000/svg"><g><path d="m503.707 247.918c0 136.921-110.997 219.918-247.918 219.918-117.318 0-215.603-53.488-241.342-162.951-4.301-18.291-6.576-37.364-6.576-56.968-.001-136.92 110.996-247.917 247.917-247.917s247.919 110.997 247.919 247.918z" fill="#05cdff"/><path d="m503.707 247.918c0-.136 0-.272 0-.408-.011-6.649-9.438-7.977-11.337-1.604-.233.783-.47 1.564-.711 2.343-6.9 22.344-39.961 17.214-39.961-6.171v-22.448-72.638h-34.314-48.728v72.638 109.532c0 46.642-37.835 84.605-84.425 84.831-46.971.225-85.257-37.911-85.257-84.831v-109.533-72.638h-32.179-50.863v72.638l1.371 56.052c1.061 43.343-56.594 59.591-78.067 21.926-.34-.597-.678-1.195-1.013-1.794-7.269-13.002-27.231-5.416-23.811 9.082 25.598 108.521 123.1 190.942 241.376 190.942 2.347 0 4.685-.04 7.016-.104 6.885.863 13.896 1.312 21.011 1.312l.032-.031v.031c8.735-.002 17.425-.713 25.299-1.91.034-.005.066-.007.101-.013 36.16-5.518 68.557-22.62 93.288-47.38 61.35-45.131 101.172-117.822 101.172-199.824z" fill="#05acff"/><g><path d="m256.624 428.531c-47.164.457-85.677-37.777-85.677-84.837v-109.533l-20.05-2.54-12.129 2.54-1.508 145.013c-.435 41.81 18.119 81.848 51.062 107.597.868.678 1.744 1.348 2.628 2.008 18.185 13.59 38.586 22.798 64.838 22.798l4.283-36.337z" fill="#f5415f"/><g><g><path d="m340.63 234.161v109.532c0 46.771-38.042 84.823-84.81 84.84v75.174l.003.006c1.478 3.449 4.785 5.745 8.53 5.971 5.72.345 10.653.917 16.867-.031 80.547-12.292 142.452-82.033 142.452-165.96v-109.532l-41.521-12.566z" fill="#265cde"/></g></g><g><g><path d="m255.824 503.711c-67.802-21.585-117.056-85.156-117.056-160.017v-109.533l-25.432-4.535-25.432 4.535v109.532c0 92.571 75.313 167.883 167.883 167.883l3.138-3.083z" fill="#cd2846"/></g></g><g><path d="m255.82 503.708v7.868c8.77-.002 17.498-.718 25.397-1.924-8.702-1.328-17.185-3.329-25.397-5.944z" fill="#0037bd"/></g><g><path d="m340.63 161.523h83.042v72.638h-83.042z" fill="#fff"/></g><path d="m389.357 343.912v-109.532l-7.207-12.785-41.521 12.566v109.532c0 46.771-38.042 84.823-84.81 84.84l48.728.219c46.768-.017 84.81-38.069 84.81-84.84z" fill="#0037bd"/><g><path d="m170.947 234.161v-72.638h-32.179l-9.342 36.319 9.342 36.319z" fill="#fff"/></g><g><path d="m87.905 161.523h50.863v72.638h-50.863z" fill="#e8d6ff"/></g><g><path d="m340.63 161.523h48.728v72.638h-48.728z" fill="#e8d6ff"/></g></g><g fill="#05acff"><path d="m157.381 76.277h-25.951v27.06h-27.061v25.951h27.061v27.061h25.951v-27.061h27.06v-25.951h-27.06z"/><path d="m353.24 103.337h83.926v25.951h-83.926z"/></g><g><path d="m90.875 90.881h80.072v25.951h-80.072z" fill="#f5415f"/></g><g><path d="m117.936 63.82h25.951v80.072h-25.951z" fill="#f5415f"/></g><g><path d="m339.746 90.881h83.926v25.951h-83.926z" fill="#265cde"/></g></g></svg>