<svg id="Layer_1" enable-background="new 0 0 512.622 512.622" height="512" viewBox="0 0 512.622 512.622" width="512" xmlns="http://www.w3.org/2000/svg"><g><g><path d="m486.255 266.505c0 135.927-98.472 215.861-234.398 215.861-90.209 0-172.801-18.277-215.653-90.656-21.717-36.681-34.183-79.488-34.183-125.205 0-135.926 110.19-246.117 246.117-246.117 106.029 0 196.398 67.048 231.023 161.058 9.763 26.509 7.094 55.161 7.094 85.059z" fill="#ffdc64"/></g><path d="m494.255 266.505c0-.012 0-.024 0-.036-.004-27.27-4.533-54.581-13.462-80.408l-.006-.006c-.533-1.541-1.081-3.075-1.643-4.603-6.184-16.79-31.029-12.159-30.967 5.733.001.292.002.583.002.875 0 2.29-.037 4.57-.099 6.845-2.986 1.031-6.05 1.93-9.169 2.697l-41.841-41.841s0 0 0-.001l-56.077-56.076c3.241-13.63 8.817-26.25 17.996-35.428l11.822-11.163c-16.025-9.231-33.191-16.696-51.228-22.159-25.015 27.142-36.364 67.939-33.729 121.368.532 10.775 1.599 20.996 2.87 30.163 13.402 1.857 24.546 4.147 31.866 5.834-8.333-1.864-19.713-4.15-31.866-5.834-9.167-1.27-19.388-2.338-30.163-2.869-55.505-2.734-97.388 9.611-124.48 36.702-27.091 27.091-39.439 68.972-36.701 124.479.516 10.465 1.539 20.399 2.761 29.36-8.961-1.222-18.896-2.245-29.361-2.761-12.981-.639-25.215-.453-36.69.553-6.188-5.782-12.081-11.876-17.646-18.263 2.343 6.528 5.018 13.052 7.913 19.362-.004.001-.009.001-.013.002 8.141 17.742 18.32 34.354 30.254 49.523h.017c17.846 22.686 39.883 42.489 65.197 57.99v.004c38.601 23.634 82.86 36.073 128.328 36.073 137.01.002 246.115-111.287 246.115-246.115zm-293.142 123.123c-11.426-.522-33.279-5.195-46.922-8.339-2.175-11.18-4.615-26.869-5.397-43.979-.292-6.382-.361-13.282-.049-20.364l52.767 52.767 19.965 19.965c-7.082.312-13.981.242-20.364-.05zm46.362-3.098-95.582-95.582c2.348-11.025 6.145-21.517 12.048-30.213l61.259 61.259 52.488 52.488c-8.695 5.902-19.188 9.7-30.213 12.048zm44.787-26.623-113.74-113.74c8.402-5.681 18.479-9.376 29.095-11.71l71.193 71.193 25.25 25.25c-2.367 10.594-6.111 20.633-11.798 29.007zm15.134-54.817-14.013-14.013-59.927-59.928c7.527-.395 14.87-.369 21.635-.136 20.399.704 46.646 6.854 46.646 6.854 2.197 10.998 4.757 26.9 5.628 44.535.349 7.084.433 14.794.031 22.688zm82.192-103.937c-19.51-1.361-36.825-4.918-46.732-7.291-2.177-10.981-4.683-26.69-5.542-44.097-.377-7.636-.445-16 .072-24.538l76.073 76.073c-8.311.493-16.444.371-23.871-.147z" fill="#ffc305"/><g><g><path d="m217.797 175.292h20.61v214.412h-20.61z" fill="#05cdff" transform="matrix(.707 -.707 .707 .707 -132.947 244.035)"/></g><g><path d="m252.773 140.316h20.61v214.413h-20.61z" fill="#fff" transform="matrix(.707 -.707 .707 .707 -97.971 258.522)"/></g><g><path d="m286.097 260.236c-9.181 0-13.779 11.1-7.287 17.592l52.787 52.787 14.574-14.574-52.787-52.787c-1.933-1.933-4.554-3.018-7.287-3.018z" fill="#e8d6ff"/></g><g><path d="m372.273 20.815h20.61v214.413h-20.61z" fill="#f5415f" transform="matrix(.707 -.707 .707 .707 21.53 308.02)"/></g><g><path d="m182.093 210.996h20.61v214.412h-20.61z" fill="#f5415f" transform="matrix(.707 -.707 .707 .707 -168.651 229.244)"/></g><g><path d="m232.487 276.578c-9.181 0-13.779 11.1-7.287 17.592l71.421 71.421 14.574-14.574-71.421-71.421c-1.933-1.932-4.554-3.018-7.287-3.018z" fill="#05acff"/></g><path d="m194.558 164.429 151.613 151.612" fill="#fff"/><g><path d="m382.495 142.512 68.602 68.603 14.574-14.574-68.602-68.603c-1.933-1.933-4.554-3.018-7.287-3.018-9.181 0-13.779 11.101-7.287 17.592z" fill="#cd2846"/></g><g><path d="m208.798 324.298c-9.181 0-13.779 11.1-7.287 17.592l59.405 59.405 14.574-14.573-59.405-59.405c-1.932-1.933-4.554-3.019-7.287-3.019z" fill="#cd2846"/></g><g><g><path d="m342.942 166.476c-2.197-10.999-4.757-26.9-5.628-44.535-1.369-27.752 1.28-65.115 21.673-85.508l-36.433-36.433c-27.091 27.091-39.44 68.972-36.702 124.479.532 10.775 1.599 20.996 2.87 30.163 23.662 3.279 40.294 7.91 41.247 8.179z" fill="#265cde"/></g><g><path d="m474.167 151.613c-20.221 20.221-57.19 23.628-84.579 21.717-30.389-2.12-55.486-9.572-55.486-9.572-.953-.269-21.718-5.836-45.38-9.115-9.167-1.27-19.388-2.338-30.163-2.869-55.505-2.734-97.388 9.611-124.48 36.702-27.091 27.091-39.439 68.972-36.701 124.479.516 10.465 1.539 20.399 2.761 29.36 24.085 3.284 41.086 8.015 42.05 8.287l12.109 3.411c-2.201-11.212-4.708-27.141-5.503-44.527-1.253-27.423 1.496-64.357 21.718-84.579 20.222-20.221 57.148-22.664 84.579-21.718 20.399.704 46.646 6.854 46.646 6.854l12.974 3.655c.952.269 17.584 4.9 41.246 8.178 9.167 1.27 19.388 2.338 30.163 2.869 5.045.249 9.969.373 14.788.373 48.202 0 85.062-12.445 109.692-37.074z" fill="#0037bd"/></g><g><path d="m168.285 410.461c-24.085-3.284-41.087-8.015-42.05-8.287l-12.091-3.406c2.153 10.955 4.594 26.46 5.44 43.592.508 10.303.46 21.93-.842 33.522 15.159 9.388 31.41 17.174 48.524 23.126 3.585-17.569 4.859-37.315 3.78-59.186-.516-10.464-1.539-20.399-2.761-29.361z" fill="#0037bd"/></g><g><path d="m355.957 221.878c-23.662-3.278-40.293-7.91-41.246-8.178l-12.974-3.655c2.197 10.998 4.757 26.9 5.628 44.535 1.369 27.753-1.28 65.115-21.673 85.508-20.22 20.22-57.153 22.973-84.578 21.718-17.388-.795-58.925-11.203-58.925-11.203-.964-.272-17.965-5.003-42.05-8.287-8.961-1.222-18.896-2.245-29.361-2.761-20.831-1.026-39.742.072-56.673 3.275 5.606 17.202 13.054 33.569 22.114 48.872 10.78-1.112 21.516-1.167 31.091-.73 15.939.729 41.903 6.126 46.219 7.522 3.612 1.169 12.604 3.663 12.707 3.681.963.272 17.965 5.003 42.05 8.287 8.961 1.222 18.896 2.245 29.361 2.761 5.045.249 9.968.373 14.787.373 48.202 0 85.063-12.446 109.692-37.075 27.091-27.091 39.439-68.972 36.702-124.479-.533-10.776-1.601-20.997-2.871-30.164z" fill="#265cde"/></g></g></g><g fill="#ffdc64"><path d="m409.923 250.341c10.677-.272 23.705-.968 35.001-2.618 11.89-1.737 22.359 8.029 21.424 20.009-1.786 22.906-10.288 58.717-41.19 96.869-11.427 14.107-34.245 5.408-33.415-12.728 1.202-26.272 1.866-57.889-.121-81.212-.917-10.77 7.495-20.045 18.301-20.32z"/><path d="m202.062 462.357v-3.829c0-11.124 9.224-20.01 20.341-19.623 20.488.712 53.726-.615 86.86-12.512 8.252-2.963 14.948 7.036 9.142 13.607-18.475 20.909-50.932 45.985-98.37 41.932-10.162-.869-17.973-9.376-17.973-19.575z"/></g></g></svg>