<svg id="Layer_1" enable-background="new 0 0 510 510" height="512" viewBox="0 0 510 510" width="512" xmlns="http://www.w3.org/2000/svg"><g><path d="m255 0c-140.833 0-255 114.167-255 255 0 61.614 21.852 118.125 58.23 162.204l372.205 22.859c49.003-46.471 79.565-112.198 79.565-185.063 0-140.833-114.167-255-255-255z" fill="#5fd2d0"/></g><g><g><g><path d="m413.401 418.354h-255.907l-13.246-178.018 13.246-178.017h255.907z" fill="#827ddc"/></g></g><g><g><path d="m104.11 62.319h53.384v356.035h-53.384z" fill="#6e64c3"/></g></g><g><g><path d="m397.126 434.198h-255.907l-10.417-224.86 10.417-131.175h255.907z" fill="#fff"/></g></g><g><g><path d="m87.836 78.163h53.384v356.035h-53.384z" fill="#e8d6ff"/></g></g><g><path d="m121.897 115.693h143.205v21.354h-143.205z" fill="#e8d6ff"/></g><g><path d="m121.897 159.823h143.205v21.354h-143.205z" fill="#e8d6ff"/></g><g><path d="m121.897 203.954h143.205v21.354h-143.205z" fill="#e8d6ff"/></g><g><path d="m121.897 248.085h249.973v21.354h-249.973z" fill="#e8d6ff"/></g><g><path d="m289.786 113.162h83.047v101.468h-83.047z" fill="#e8d6ff"/></g><g><path d="m317.628 178.869c11.117-27.311 8.36-52.237 49.737-65.707h-77.579v100.017c13.473-6.336 21.878-20.579 27.842-34.31z" fill="#827ddc"/></g><g><path d="m412.248 455.744c6.305-4.946 12.374-10.18 18.181-15.687v-149.153h-256.016v-34.542h-65.815l-15.825 114.848s9.108 61.985 13.665 84.534z" fill="#ffdc64"/></g><g><path d="m108.599 395.92v-139.558h-54.066v34.542 26.021 95.688c15.395 19.553 33.604 36.78 53.993 51.115.02.023.041.059.059.072 41.435 29.111 91.929 46.2 146.415 46.2 64.517 0 123.422-23.976 168.333-63.483h-264.138c-27.944 0-50.596-22.653-50.596-50.597z" fill="#ffc305"/></g><g><g><path d="m149.781 390.239-11.231 19.078c-.539.847-1.616 1.231-2.846 1.231-3.308 0-8.001-2.616-8.001-5.923 0-.692.231-1.385.693-2.154l13.308-20.54-12.77-20.463c-.539-.846-.769-1.615-.769-2.385 0-3.231 4.385-5.693 7.77-5.693 1.692 0 2.846.616 3.615 2l10.232 17.848 10.232-17.848c.769-1.385 1.923-2 3.615-2 3.385 0 7.77 2.462 7.77 5.693 0 .769-.231 1.538-.769 2.385l-12.77 20.463 13.308 20.54c.462.769.692 1.462.692 2.154 0 3.308-4.692 5.923-8 5.923-1.231 0-2.385-.384-2.846-1.231z" fill="#ffc305"/></g><g><path d="m192.013 357.544c0-2.462 2.616-3.693 5.232-3.693h26.694c2.538 0 3.615 2.692 3.615 5.154 0 2.846-1.307 5.308-3.615 5.308h-19.925v13.001h11.616c2.308 0 3.616 2.231 3.616 4.693 0 2.077-1.077 4.539-3.616 4.539h-11.616v19.847c0 2.462-3 3.693-6 3.693s-6-1.231-6-3.693v-48.849z" fill="#ffc305"/></g><g><path d="m231.631 357.467c0-2.538 3-3.615 6-3.615s6 1.077 6 3.615v48.926c0 2.462-3 3.693-6 3.693s-6-1.231-6-3.693z" fill="#ffc305"/></g><g><path d="m257.171 410.086c-2.616 0-5.232-1.231-5.232-3.693v-48.926c0-2.538 3-3.615 6-3.615s6 1.077 6 3.615v42.157h17.539c2.308 0 3.462 2.615 3.462 5.231 0 2.615-1.154 5.231-3.462 5.231z" fill="#ffc305"/></g><g><path d="m301.787 377.315h11.54c2.307 0 3.615 2.231 3.615 4.693 0 2.077-1.077 4.539-3.615 4.539h-11.54v13.078h20.617c2.308 0 3.615 2.462 3.615 5.308 0 2.462-1.077 5.154-3.615 5.154h-27.386c-2.616 0-5.232-1.231-5.232-3.693v-48.849c0-2.462 2.615-3.693 5.232-3.693h27.386c2.538 0 3.615 2.692 3.615 5.154 0 2.846-1.307 5.308-3.615 5.308h-20.617z" fill="#ffc305"/></g><g><path d="m354.328 395.008c0-9.308-24.386-7.693-24.386-25.694 0-11.539 10.077-15.924 19.694-15.924 4.077 0 15.309.77 15.309 6.77 0 2.077-1.385 6.308-4.77 6.308-2.769 0-4.231-2.923-10.539-2.923-5.462 0-7.693 2.231-7.693 4.615 0 7.693 24.386 6.231 24.386 25.617 0 11.078-8.077 17.078-19.232 17.078-10.077 0-18.539-4.923-18.539-10.001 0-2.615 2.308-6.462 5.231-6.462 3.615 0 5.923 5.693 13.078 5.693 3.537.001 7.461-1.384 7.461-5.077z" fill="#ffc305"/></g></g></g></svg>