<svg id="Layer_1" enable-background="new 0 0 511.563 511.563" height="512" viewBox="0 0 511.563 511.563" width="512" xmlns="http://www.w3.org/2000/svg"><g><g><path d="m493.493 329.467c5.637-20.964 8.575-43.034 8.414-65.815-.955-135.035-111.65-244.655-246.688-244.353-21.199.047-41.769 2.775-61.389 7.862-5.986 1.552-10.15 8.84-15.95 10.822-6.692 2.287-14.987-.662-21.405 2.171-86.473 38.175-146.826 124.678-146.826 225.277 0 29.811 5.306 58.38 15.017 84.823 3.425 9.327 12.397 15.455 22.333 15.455h399.378c22.107 0 41.376-14.895 47.116-36.242z" fill="#6e64c3"/></g><path d="m493.688 328.704c3.066-15.543-18.201-24.181-26.663-10.067-.343.572-.688 1.142-1.035 1.711-19.943 32.66-70.319 18.263-70.319-20.004v-155.656c0-8.832-7.16-15.992-15.992-15.992h-91.582c-42.578 0-79.326-29.847-88.056-71.521l-6.282-29.99c-8.412 2.184-16.644 4.811-24.681 7.837l19.623 93.674h-5.616l-2.915.392c.914-.251 1.887-.392 2.915-.392h-52.558c-8.926 0-13.973 10.241-8.536 17.32l38.455 50.063v106.217c0 55.938-71.689 79.153-104.414 33.787-.487-.676-.972-1.354-1.452-2.035-11.478-16.257-36.516-3.353-30.272 15.23 34.484 95.18 125.526 162.286 231.473 162.286 113.052-.001 209.724-76.618 237.907-182.86z" fill="#5046af"/><g><g><path d="m159.324 128.525-8.065 1.085c-10.414 1.4-16.429 12.557-11.876 22.027l49.86 133.666 68.849 3.982 113.818-3.982v-140.786c0-8.832-7.16-15.992-15.992-15.992z" fill="#fff"/></g><g><path d="m136.686 195.908v89.395l28.12 8.23 24.438-8.23v-89.395l-38.455-50.063c-5.438-7.079-.391-17.32 8.536-17.32h-52.558c-8.926 0-13.973 10.241-8.536 17.32z" fill="#e8d6ff"/></g><g><path d="m179.957-1.618h25.764v400.987h-25.764z" fill="#f5415f" transform="matrix(.979 -.205 .205 .979 -36.679 43.764)"/></g><g><path d="m191.546 129.877-27.207-129.877-25.216 5.283 27.207 129.876c1.25 5.967 6.512 10.241 12.608 10.241 8.176 0 14.284-7.52 12.608-15.523z" fill="#ff6473"/></g><g><path d="m189.243 285.303-3.042 145.874c-.407 19.532 15.315 35.586 34.851 35.586h3.105 112.838c19.283 0 34.914-15.632 34.914-34.914v-146.546z" fill="#5fd2d0"/></g><g><path d="m189.243 431.848v-146.545h-52.558v146.545c0 19.278 15.619 34.914 34.914 34.914h52.558c-19.282 0-34.914-15.632-34.914-34.914z" fill="#00bec2"/></g><g><g><g><path d="m304.36 166.764h36.773v12.367h-36.773z" fill="#265cde"/></g><g><path d="m304.36 202.392h36.773v12.367h-36.773z" fill="#265cde"/></g><g><path d="m304.36 238.019h36.773v12.367h-36.773z" fill="#265cde"/></g><g><path d="m304.36 273.647h36.773v12.367h-36.773z" fill="#265cde"/></g><g><path d="m304.36 309.274h36.773v12.367h-36.773z" fill="#265cde"/></g><g><path d="m304.36 344.902h36.773v12.367h-36.773z" fill="#265cde"/></g><g><path d="m304.36 380.529h36.773v12.367h-36.773z" fill="#265cde"/></g><g><path d="m304.36 416.157h36.773v12.367h-36.773z" fill="#265cde"/></g></g></g><g fill="#00bec2"><circle cx="206.604" cy="383.45" r="26.182"/><circle cx="264.259" cy="325.233" r="17.705"/><circle cx="257.708" cy="433.862" r="17.705"/></g><path d="m339.072 152.06h12.603v291.24h-12.603z" fill="#265cde"/></g></g></svg>