<svg id="Layer_1" enable-background="new 0 0 477.673 477.673" height="512" viewBox="0 0 477.673 477.673" width="512" xmlns="http://www.w3.org/2000/svg"><g><circle cx="238.837" cy="238.837" fill="#f5415f" r="238.837"/><path d="m437.708 240.156c0 101.219-75.178 188.932-173.445 197.262-93.813 7.952-188.967-88.748-188.967-198.581s80.479-206.433 183.874-196.526c100.339 9.615 178.538 94.876 178.538 197.845z" fill="#265cde"/><path d="m90.818 240.156c0-101.219 75.619-184.776 173.445-197.26-8.326-1.063-16.812-1.611-25.427-1.611-109.834 0-198.872 89.038-198.872 198.872s89.038 198.872 198.872 198.872c8.615 0 17.101-.549 25.427-1.611-97.826-12.486-173.445-96.042-173.445-197.262z" fill="#0037bd"/><circle cx="238.837" cy="265.036" fill="#0037bd" r="121.515"/><circle cx="238.837" cy="240.156" fill="#05cdff" r="121.515"/><path d="m402.21 252.45c8.043 5.147 17.591-3.986 12.654-12.159-8.141-13.475-19.609-25.233-34.104-33.936-18.332-11.006-38.935-15.39-58.929-13.832 10.07-15.596 15.917-34.176 15.917-54.122 0-15.998-3.761-31.116-10.447-44.521-4.298-8.618-17.151-5.52-17.097 4.11.004.702-.002 1.405-.018 2.112-.903 39.229-33.468 70.857-72.706 70.668-39.804-.192-72.012-32.519-72.012-72.368 0-.145 0-.29.001-.435.056-9.548-12.764-12.744-17.038-4.205-7.045 14.079-10.863 30.054-10.48 46.956.43 18.981 6.231 36.688 15.922 51.671-19.374-1.129-39.23 3.322-56.96 13.967-14.495 8.703-25.963 20.461-34.104 33.936-4.938 8.173 4.611 17.306 12.654 12.159.122-.078.244-.156.367-.233 33.692-21.28 78.223-11.312 99.641 22.239 21.114 33.074 11.763 77.497-20.922 99.209-.588.391-1.18.772-1.775 1.143-8.171 5.097-3.926 17.618 5.655 16.65 14.904-1.506 29.694-6.399 43.22-14.942 16.813-10.619 29.373-25.428 37.187-42.208 7.814 16.78 20.374 31.589 37.187 42.208 13.526 8.543 28.317 13.437 43.22 14.942 9.581.968 13.826-11.553 5.655-16.65-.595-.371-1.187-.752-1.775-1.143-32.685-21.712-42.036-66.135-20.922-99.209 21.418-33.551 65.95-43.519 99.641-22.239.124.076.246.154.368.232z" fill="#ffdc64"/><circle cx="238.837" cy="240.156" fill="#ffc305" r="52.676"/><circle cx="238.837" cy="240.156" fill="#265cde" r="31.401"/></g></svg>