<svg id="Layer_1" enable-background="new 0 0 511.847 511.847" height="512" viewBox="0 0 511.847 511.847" width="512" xmlns="http://www.w3.org/2000/svg"><g><g><path d="m478.706 248.802c0 136.759-91.003 230.127-227.762 230.127-76.927 0-148.981-18.158-194.399-73.191-35.325-42.804-56.545-97.68-56.545-157.512 0-136.759 110.865-247.623 247.624-247.623 57.241 0 109.946 19.422 151.884 52.036 58.258 45.306 79.198 116.646 79.198 196.163z" fill="#05cdff"/></g><path d="m387.482 452.582c1.054-.723 2.108-1.445 3.15-2.184 28.089-19.905 51.84-45.521 69.582-75.15 22.24-37.141 35.034-80.7 35.034-127.022 0-79.189-37.312-150.135-95.747-195.578-32.101-20.056-72.714-24.667-110.121-8.904l-29.561 12.457c-19.26 8.116-28.293 30.309-20.178 49.569 1.319 3.13 3.015 5.984 5.005 8.544h72.172l1.508-.635c10.782-4.544 22.961-4.855 33.826-.513 22.264 8.897 25.486 28.76 28.497 33.856 4.565 10.831 4.637 22.791.207 33.676-4.431 10.886-12.836 19.395-23.668 23.958-19.259 8.116-28.293 30.308-20.177 49.568 4.059 9.631 11.633 16.704 20.605 20.355 8.969 3.65 19.334 3.88 28.963-.177 10.216-4.305 19.66-9.909 28.142-16.646 13.41-10.651 32.667 2.477 27.557 18.821-4.043 12.932-9.163 25.554-15.335 37.743-7.414 14.642-22.417 23.885-38.829 23.812-.208-.001-.418-.002-.63-.003v-14.135c4.147-3.159 6.772-8.215 6.535-13.884-.354-8.46-7.277-15.433-15.735-15.841-9.525-.459-17.391 7.127-17.391 16.551 0 4.228 1.59 8.077 4.199 11 1.457 1.633 2.35 3.69 2.35 5.879v.59c0 5.434-4.416 9.839-9.85 9.821-25.951-.09-31.411-.285-42.481 4.339l-2.41-3.951c2.812-4.29 4.247-9.564 3.657-15.199-1.123-10.73-9.738-19.399-20.462-20.573-13.992-1.531-25.829 9.386-25.829 23.068 0 13.691 11.794 24.44 25.5 23.098l2.731 4.475c-8.632 8.115-14.688 18.926-16.832 31.093h-8.708c-5.391-8.524-16.506-11.318-25.276-6.237-1.862-.045-3.67.109-5.917.74l-19.503-13.926c.081-1.085.128-2.18.128-3.285v-42.074c0-8.939 7.247-16.186 16.186-16.186 3.432 0 6.804 1.053 9.544 3.119 3.96 2.986 9.058 4.539 14.532 3.881 9.113-1.095 16.437-8.49 17.45-17.613 1.345-12.107-8.096-22.357-19.932-22.357-6.11 0-11.573 2.741-15.252 7.05h-22.529l-.097-48.623c-.016-8.047 3.864-15.603 10.413-20.279l1.543-1.101c4.076-2.91 8.94-4.388 13.943-4.623 10.477-.491 19.243-9.262 19.061-20.38-.165-10.081-8.02-18.651-18.055-19.623-11.221-1.087-20.771 7.08-21.936 17.765l-14.955 10.679c-5.252-6.353-12.24-11.225-20.226-13.854-.074-.024-.161-.042-.243-.063l-.121-.039c-7.508-2.413-12.599-9.397-12.599-17.283v-2.886c0-3.747 1.219-7.373 3.393-10.425 2.777-3.899 4.195-8.83 3.554-14.112-1.105-9.102-8.495-16.412-17.608-17.426-12.108-1.346-22.359 8.095-22.359 19.931 0 6.135 2.761 11.618 7.1 15.298v24.838c-13.932.217-26.341 6.993-34.26 17.366l-14.148-10.102c-.787-10.933-10.313-19.446-21.64-18.538-10.03.804-18.037 9.204-18.393 19.26-.389 10.977 7.993 19.881 18.353 20.725 5.023.409 9.882 1.978 13.984 4.907l1.25.893c7.267 5.189 11.581 13.56 11.584 22.489.002 8.372.004 22.169-.003 45.206h-23.697c-4.174-4.922-10.669-7.814-17.804-6.947-9.103 1.105-16.413 8.497-17.425 17.61-1.345 12.107 8.096 22.357 19.932 22.357 3.834 0 7.414-1.079 10.458-2.947 4.637-2.846 10.056-4.153 15.496-4.153 7.2 0 13.037 5.837 13.037 13.037v45.223c0 .417.02.829.032 1.243l-19.669 14.044c-12.939-3.674-25.543 6.088-25.543 19.282 0 1.143.139 2.252-2.828 4.137-1.555.988-3.57.895-5.04-.215-1.661-1.254-3.719.82-2.564 2.466 45.906 57.436 116.079 93.139 193.516 93.139 50.1.002 98.645-15.006 139.857-43.266zm-205.34-23.84c-.052-.071-.105-.142-.158-.212-2.073-2.749-3.07-6.162-3.07-9.604 0-6.949 4.654-12.965 11.328-14.899.496-.144 1-.299 1.513-.467.037-.011.086-.015.122-.027 4.506-1.483 8.695-3.681 12.433-6.456 5.311-3.943 12.608-3.86 17.992-.016l.019.014c2.705 1.931 4.647 4.706 5.73 7.848 4.531 13.145 21.752 18.172 32.645 7.959 5.066-1.051 9.381-4.144 12.059-8.378h8.786c.113.614.236 1.224.369 1.831 3.822 17.437-6.773 34.788-24.233 38.504-10.275 2.187-20.644 3.708-31.047 4.572-17.436 1.447-34.139-6.562-44.488-20.669z" fill="#05acff"/><g><g><g><path d="m326.341 67.607c-66.811 4.213-85.433 67.74-70.628 67.698 4.865-.014 9.808-.972 14.571-2.979l29.561-12.457c10.831-4.564 22.79-4.637 33.675-.206 10.886 4.431 19.395 12.837 23.958 23.665l4.244 10.073c4.565 10.831 4.638 22.791.207 33.676-4.431 10.886-12.836 19.395-23.667 23.958-19.259 8.116-28.293 30.308-20.178 49.568 4.059 9.631 11.633 16.704 20.605 20.355 8.969 3.65 19.334 3.88 28.963-.177 29.461-12.415 52.323-35.559 64.377-65.169 10.797-26.523 11.763-55.391 2.925-82.294-1.029-3.132-23.824-71.057-108.613-65.711z" fill="#f5415f"/></g></g><g><g><path d="m273.662 119.575 29.561-12.457c29.46-12.414 61.992-12.613 91.602-.56 15.297 6.227 28.863 15.346 40.121 26.762-1.029-3.131-2.182-6.237-3.476-9.309l-4.244-10.073c-12.415-29.46-35.56-52.323-65.17-64.377-29.61-12.053-62.142-11.854-91.602.56l-29.561 12.457c-19.26 8.116-28.293 30.309-20.178 49.569 6.109 14.496 20.193 23.196 34.998 23.154 3.984-6.805 10.122-12.428 17.949-15.726z" fill="#cd2846"/></g></g><g><g><path d="m348.657 256.47c-2.704-1.101-4.987-3.232-6.21-6.134-2.446-5.805.277-12.493 6.081-14.939 17.338-7.306 30.794-20.927 37.888-38.353 7.094-17.427 6.976-36.573-.33-53.911l-4.243-10.071c-7.307-17.338-20.928-30.793-38.355-37.887s-36.572-6.976-53.91.33l-29.561 12.457c-5.805 2.446-12.492-.276-14.939-6.081-2.446-5.805.277-12.493 6.081-14.939l29.561-12.457c22.953-9.672 48.298-9.827 71.368-.436s41.102 27.203 50.774 50.156l4.243 10.071c9.672 22.952 9.828 48.298.437 71.368-9.391 23.069-27.203 41.101-50.156 50.773-2.902 1.223-6.026 1.153-8.729.053z" fill="#ff6473"/></g></g></g><g><g><circle cx="390.181" cy="489.669" fill="#265cde" r="21.576"/></g><g><circle cx="390.181" cy="322.78" fill="#265cde" r="16.57"/></g><g><circle cx="471.251" cy="478.929" fill="#3176ff" r="16.57"/></g><g><circle cx="305.995" cy="337.755" fill="#265cde" r="23.211"/></g><g><circle cx="269.595" cy="406.443" fill="#265cde" r="18.793"/></g><g><circle cx="304.958" cy="478.929" fill="#265cde" r="19.324"/></g><g><path d="m390.181 496.126c-5.534 0-10.021-4.486-10.021-10.021v-35.28c0-5.534 4.487-10.021 10.021-10.021s10.021 4.486 10.021 10.021v35.28c-.001 5.535-4.487 10.021-10.021 10.021z" fill="#0037bd"/></g><g><path d="m390.181 369.865c-5.534 0-10.021-4.486-10.021-10.021v-35.28c0-5.534 4.487-10.021 10.021-10.021s10.021 4.486 10.021 10.021v35.28c-.001 5.535-4.487 10.021-10.021 10.021z" fill="#0037bd"/></g><g><path d="m467.269 484.554c-3.717 0-7.343-1.879-9.421-5.283l-18.375-30.116c-3.171-5.197-1.528-11.98 3.669-15.15 5.199-3.172 11.98-1.528 15.151 3.669l18.375 30.116c3.171 5.197 1.528 11.98-3.669 15.15-1.792 1.093-3.774 1.614-5.73 1.614z" fill="#265cde"/></g><path d="m420.123 350.09h-67.522s-9.709 18.888-19.484 47.059l-3.787 10.915 2.811 7.586c10.401 28.074 37.177 46.709 67.116 46.709h20.866c31.002 0 56.134-25.132 56.134-56.134.001-31.003-25.131-56.135-56.134-56.135z" fill="#265cde"/><path d="m466.269 438.149c-1.687 0-3.027-1.309-3.209-2.987-.734-6.783-6.498-12.084-13.497-12.084-5.44 0-10.128 3.2-12.294 7.805-2.068 4.395-6.412 7.265-11.269 7.265h-16.289c-4.166 0-7.758-2.63-9.382-6.466-1.655-3.912-5.525-6.737-10.149-6.737-4.91 0-8.973 3.186-10.432 7.48-1.141 3.357-4.142 5.723-7.688 5.723h-10.79c-3.446 0-6.82-1.154-9.458-3.371-1.814-1.524-2.446-2.789-3.079-4.088-3.197-6.593-.355-14.465 6.298-17.533 5.548-2.558 9.535-8.163 9.535-14.867 0-4.446-1.776-8.474-4.656-11.418-5.819-5.947-5.321-15.646.714-21.373.086-.081.173-.163.262-.244 5.88-5.382 2.143-15.165-5.827-15.165h-5.614c-31.002 0-56.134 25.132-56.134 56.134 0 31.002 25.132 56.135 56.135 56.135h70.677c19.139 0 36.031-9.585 46.164-24.21h-.018z" fill="#0037bd"/><path d="m396.257 462.277c.997.042 1.995.082 2.999.082-1.006 0-2.005-.029-2.999-.082z" fill="#0037bd"/><g><circle cx="343.99" cy="389.654" fill="#3176ff" r="16.352"/></g><g><circle cx="387.189" cy="430.64" fill="#3176ff" r="11.008"/></g><g><circle cx="417.342" cy="396.767" fill="#0037bd" r="16.57"/></g><g><circle cx="414.768" cy="386.436" fill="#3176ff" r="16.57"/></g><g><circle cx="470.214" cy="337.755" fill="#3176ff" r="21.782"/></g><g><circle cx="495.276" cy="409.313" fill="#3176ff" r="16.57"/></g><g><path d="m304.753 416.463h-35.279c-5.534 0-10.021-4.486-10.021-10.021 0-5.534 4.487-10.021 10.021-10.021h35.279c5.534.001 5.534 20.042 0 20.042z" fill="#0037bd"/></g><g><path d="m323.972 377.333c-3.378 0-6.676-1.708-8.564-4.803l-18.375-30.116c-2.883-4.725-1.39-10.891 3.335-13.774 4.725-2.884 10.891-1.389 13.773 3.335l18.375 30.116c2.883 4.725 1.39 10.891-3.335 13.774-1.63.994-3.431 1.468-5.209 1.468z" fill="#0037bd"/></g><g><path d="m305.577 486.558c-1.779 0-3.58-.474-5.209-1.468-4.725-2.882-6.218-9.049-3.335-13.774l18.375-30.116c2.882-4.724 9.05-6.218 13.773-3.335 4.725 2.882 6.218 9.049 3.335 13.774l-18.375 30.116c-1.888 3.095-5.186 4.803-8.564 4.803z" fill="#0037bd"/></g><g><path d="m448.872 382.343c-1.956 0-3.938-.521-5.731-1.615-5.196-3.171-6.839-9.954-3.669-15.15l18.375-30.116c3.172-5.197 9.954-6.841 15.151-3.669 5.196 3.171 6.839 9.954 3.669 15.15l-18.375 30.116c-2.076 3.405-5.704 5.284-9.42 5.284z" fill="#265cde"/></g><g><path d="m492.689 420.336h-35.28c-6.088 0-11.023-4.935-11.023-11.023s4.935-11.023 11.023-11.023h35.28c6.088 0 11.023 4.935 11.023 11.023s-4.936 11.023-11.023 11.023z" fill="#265cde"/></g><g><circle cx="441.99" cy="435.954" fill="#3176ff" r="13.578"/></g></g><g><path d="m179.533 158.544c-1.075-.354-2.936-.302-5.196-.024-12.928 1.589-24.148 9.663-30.155 21.22-12.856 24.738-34.31 69.377-34.31 91.802 0 22.464 21.527 67.45 34.376 92.301 6.085 11.768 17.713 19.78 30.916 20.873 1.885.156 3.427.135 4.368-.175 17.55-5.777 30.31-22.36 30.31-41.779v-142.439c.001-19.419-12.76-36.003-30.309-41.779z" fill="#ffdc64"/><g><g><path d="m166.57 167.174v-48.782c0-7.158-5.802-12.96-12.96-12.96s-12.96 5.802-12.96 12.96v48.782z" fill="#ffc305"/></g></g><g><g><path d="m140.65 381.343v40.482c0 7.157 5.802 12.96 12.96 12.96 7.157 0 12.96-5.802 12.96-12.96v-40.482z" fill="#ffc305"/></g></g><g><path d="m262.053 271.543c0 7.158-5.802 12.96-12.96 12.96h-59.89v-25.92h59.89c7.157 0 12.96 5.802 12.96 12.96z" fill="#ffdc64"/></g><g><g><path d="m116.902 284.503h-59.89c-7.157 0-12.96-5.802-12.96-12.96 0-7.157 5.802-12.96 12.96-12.96h59.89z" fill="#ffc305"/></g></g><g><g><path d="m112.555 209.996-48.74-34.802c-5.825-4.159-7.175-12.253-3.016-18.078s12.253-7.175 18.078-3.016l48.74 34.802z" fill="#ffc305"/></g></g><g><path d="m191.708 209.996-15.062-21.094 48.74-34.802c5.825-4.159 13.919-2.809 18.078 3.016s2.809 13.919-3.016 18.078z" fill="#ffdc64"/></g><g><g><path d="m78.877 389.087c-5.825 4.159-13.919 2.809-18.078-3.016s-2.809-13.919 3.016-18.078l48.741-34.802 15.062 21.094z" fill="#ffc305"/></g></g><g><path d="m243.465 386.071c-4.159 5.825-12.253 7.176-18.078 3.016l-48.74-34.802 15.062-21.094 48.741 34.802c5.823 4.159 7.174 12.253 3.015 18.078z" fill="#ffdc64"/></g><g fill="#ffdc64"><circle cx="72.256" cy="165.098" r="20.06"/><circle cx="153.609" cy="116.243" r="20.06"/><circle cx="58.385" cy="271.543" r="20.06"/><circle cx="72.256" cy="377.333" r="20.06"/><circle cx="153.61" cy="421.588" r="20.06"/></g><circle cx="234.648" cy="379.269" fill="#ffe58a" r="20.06"/><circle cx="247.624" cy="271.593" fill="#ffe58a" r="20.06"/><circle cx="234.648" cy="163.917" fill="#ffe58a" r="20.06"/><path d="m188.136 354.168c.516-10.814-7.893-20.295-18.697-20.986-.138-.009-.275-.016-.412-.022-11.047-.486-19.801-9.463-19.801-20.521 0-.375 0-.755 0-1.139-.001-8.392 4.098-16.181 10.83-21.192 4.897-3.645 8.07-9.473 8.07-16.05 0-6.869-3.46-12.92-8.73-16.522-6.513-4.451-10.179-12.031-10.179-19.919v-37.495c0-19.418 12.764-35.991 30.314-41.768-4.302-1.416-8.888-2.193-13.648-2.193h-24.543c-24.179 0-43.962 19.783-43.962 43.962v142.441c0 24.179 19.783 43.962 43.962 43.962 21.313-.489 27.621 1.286 38.191-2.193-.077-.025-.153-.051-.23-.076-6.198-2.079-6.993-10.623-1.308-13.851 5.689-3.233 9.797-9.194 10.143-16.438z" fill="#ffc305"/><circle cx="158.991" cy="347.71" fill="#ffe58a" r="20.538"/><circle cx="133.373" cy="271.568" fill="#ffdc64" r="20.035"/><circle cx="185.85" cy="211.682" fill="#ffc305" r="20.035"/><circle cx="173.93" cy="202.642" fill="#ffe58a" r="20.035"/></g></g></svg>