<svg id="Layer_1" enable-background="new 0 0 511.837 511.837" height="512" viewBox="0 0 511.837 511.837" width="512" xmlns="http://www.w3.org/2000/svg"><g><g><path d="m495.248 255.92c0 56.54-18.95 108.655-50.844 150.338-45.252 59.141-115.565 83.771-195.784 83.771-136.759 0-230.538-97.35-230.538-234.109 0-92.157 32.261-172.555 106.946-215.195 36.146-20.637 77.994-32.429 122.596-32.429 136.759.001 247.624 110.866 247.624 247.624z" fill="#ffdc64"/></g><path d="m468.634 204.008c6.076-1.643 12.403-2.492 18.852-2.492h1.751c-1.569-7-3.434-13.887-5.583-20.649-12.848.521-25.26 3.651-36.595 9.145-11.508 5.579-25.248 3.511-34.291-5.532l-10.99-10.99-25.706 25.706 9.286 9.286-13.551 13.551c-8.479 8.479-21.327 10.989-32.274 6.096-.116-.052-.233-.104-.35-.156-10.59-4.695-17.478-15.117-17.478-26.701v-60.535h13.133v-36.354h-18.892c-9.437 0-17.806-6.116-20.611-15.126-7.041-22.62-28.163-39.09-53.071-39.09h-132.452c-72.082 48.376-115.904 132.56-109.124 224.267.038.517.083 1.032.124 1.548.135 1.689.28 3.375.449 5.053.019.193.041.385.061.578 12.204 118.375 107.792 212.015 227.041 221.19.473.036.949.062 1.423.095 87.065 6.198 165.908-33.008 214.604-96.65-.024-.021.013.012-.011-.009-17.051 13.642-41.261-3.073-34.896-23.597 3.711-11.965 5.709-24.682 5.709-37.867 0-8.963-.939-17.705-2.697-26.147 0-.004.005-.009.005-.013-.97-4.661-2.196-9.229-3.66-13.688-3.497-10.646-.783-22.349 7.141-30.273l17.775-17.775 9.287 9.287 25.706-25.706-7.635-7.635c-9.325-9.324-5.208-25.375 7.52-28.817zm-217.16-99.624h-11.344v36.354h13.133v80.973c-45.671 12.675-81.048 50.087-90.794 96.905h-.006c-1.758 8.444-2.686 17.193-2.686 26.158 0 .396.002.791.005 1.186.255 29.129-36.122 42.23-54.692 19.786-35.441-42.833-56.74-97.792-56.74-157.731 0-17.343 1.785-34.268 5.181-50.603 10.49-50.46 55.154-86.51 106.693-86.51h82.04c6.252 0 12.125 1.655 17.202 4.551 13.728 7.828 7.81 28.931-7.992 28.931z" fill="#ffc305"/><g><path d="m246.587 106.788h36.254v114.535h-36.254z" fill="#fff"/></g><g><path d="m214.399 106.788h50.803v114.535h-50.803z" fill="#e8d6ff"/></g><g><path d="m248.62 94.949h47.354v36.354h-47.354z" fill="#fff"/></g><g><path d="m201.266 94.949h51.608v36.354h-51.608z" fill="#e8d6ff"/></g><g><path d="m290.266 212.184h114.535v68.442h-114.535z" fill="#fff" transform="matrix(.707 -.707 .707 .707 -72.444 317.914)"/></g><g><path d="m336.191 192.216h94.709v36.354h-94.709z" fill="#fff" transform="matrix(.707 .707 -.707 .707 261.108 -209.585)"/></g><g><path d="m274.021 317.606s100.192-5.649 99.614-8.426c-12.071-57.982-63.451-101.547-125.015-101.547-64.512 0-74.212 71.689-74.212 101.549z" fill="#fff"/></g><g><path d="m174.42 309.184c9.736-46.768 45.038-84.154 90.643-96.865v-3.63c-5.384-.693-10.871-1.056-16.443-1.056-61.565 0-112.946 43.567-125.015 101.55l20.071 5.835z" fill="#e8d6ff"/></g><g><path d="m275.039 332.399-14.454-14.867 123.353-119.927c17.419-16.934 40.39-26.26 64.684-26.26h63.215v20.736h-63.215c-18.865 0-36.704 7.242-50.23 20.392z" fill="#05cdff"/></g><g><path d="m373.628 309.181h-199.22c-20.435 48.485-3.469 104.684 40.442 133.67 7.519 4.963 15.815 9.707 24.95 14.049 7.856 3.734 26.012 5.277 34.222 3.62 58.361-11.779 102.305-63.348 102.305-125.181 0-8.967-.94-17.712-2.699-26.158z" fill="#265cde"/></g><g><path d="m171.716 335.34c0-8.967.934-17.714 2.693-26.158h-50.809c-1.758 8.444-2.686 17.192-2.686 26.158 0 70.531 57.176 127.707 127.707 127.707 8.698 0 17.192-.873 25.401-2.53-58.361-11.779-102.306-63.345-102.306-125.177z" fill="#0037bd"/></g><g><path d="m203.4 40.732h-78.368c-10.776 6.153-21.046 13.089-30.731 20.736h109.099c19.217 0 34.852 15.634 34.852 34.851v212.862h20.736v-212.861c0-30.651-24.936-55.588-55.588-55.588z" fill="#f5415f"/></g><path d="m245.052 89.123c7.435 0 12.437-7.594 9.535-14.438-8.452-19.933-28.208-33.952-51.187-33.952h-48.606c-5.722 0-10.361 4.639-10.361 10.361v.013c0 5.722 4.639 10.361 10.361 10.361h48.606c14.43 0 26.837 8.817 32.124 21.345 1.616 3.829 5.373 6.31 9.528 6.31z" fill="#ff6473"/><g><path d="m473.519 171.345h-24.897c-24.294 0-47.265 9.326-64.684 26.26l-34.304 33.351c1.768-1.384 3.989-2.217 6.409-2.217 5.752 0 10.416 4.663 10.416 10.416 0 2.313-.763 4.442-2.038 6.17h.18l33.792-32.854c13.526-13.15 31.365-20.392 50.23-20.392h24.897c5.726 0 10.368-4.642 10.368-10.368-.001-5.724-4.643-10.366-10.369-10.366z" fill="#6ee1ff"/></g><g fill="#cd2846"><path d="m238.252 199.864v.105c0-.036.005-.07.005-.105z"/><path d="m248.676 210.393c-5.757 0-10.424-4.667-10.424-10.423v109.212h20.736v-107.77c-.703 5.072-5.046 8.981-10.312 8.981z"/></g><g fill="#0037bd"><circle cx="186.771" cy="358.791" r="26.391"/><circle cx="269.113" cy="417.841" r="20.493"/><circle cx="325.334" cy="354.471" r="16.6"/></g></g></svg>