<svg id="Layer_1" enable-background="new 0 0 510.672 510.672" height="512" viewBox="0 0 510.672 510.672" width="512" xmlns="http://www.w3.org/2000/svg"><g><path d="m247.57 0c-135.942 0-246.145 110.203-246.145 246.145 0 57.943 20.021 111.211 53.523 153.261l428.873-83.945c6.44-21.986 9.895-45.248 9.895-69.316 0-135.942-110.203-246.145-246.146-246.145z" fill="#5fd2d0"/><path d="m445.539 392.425c16.83-22.74 29.99-48.717 38.266-76.968 5.226-18.499-18.992-30.805-30.758-15.467-.504.657-1.009 1.308-1.516 1.953-11.313 14.408-34.199 3.774-30.93-14.251 9.512-52.45-5.961-108.58-46.425-149.044-25.46-25.461-57.653-41.736-92.563-47.185-.994-.081-11.255-2.041-26.28-2.041-44.893 0-87.099 17.482-118.843 49.226-8.987 8.987-16.733 18.751-23.255 29.072-3.784-2.51-8.321-3.976-13.202-3.977-13.223-.002-24.215 11.247-23.919 24.467.243 10.859 7.723 19.93 17.807 22.586-3.509 12.208-5.612 24.736-6.308 37.331h-8.732c-3.73-5.897-10.537-9.654-18.178-8.958-9.039.824-16.431 8.047-17.432 17.069-1.298 11.689 7.818 21.585 19.245 21.585 6.896 0 12.933-3.614 16.365-9.041h8.846c1.009 15.12 4.042 30.129 9.11 44.578-10.534 1.117-18.619 10.444-17.724 21.464.804 9.896 9.056 17.808 18.975 18.232 5.901.252 11.259-2.07 15.059-5.929.231.366.463.731.697 1.095 9.193 14.334-8.842 30.521-22.021 19.738-.827-.677-1.65-1.359-2.468-2.046-22.251-18.691-52.465 10.726-34.378 33.471 46.22 58.123 116.474 92.907 192.594 92.907 80.727-.001 152.895-38.967 197.968-99.867z" fill="#00bec2"/><g><circle cx="248.177" cy="247.973" fill="#fff" r="141.905"/><g><path d="m361.74 321.815h56.683v139.745h-56.683z" fill="#fff" transform="matrix(.717 -.697 .697 .717 -162.642 382.803)"/></g><g><g><path d="m432.949 486.951-45.339-94.852 29.722-29.722 79.774 77.532c16.188 16.188 16.188 42.434 0 58.622-.405.405-.816.799-1.233 1.184-19.643 18.112-51.402 11.342-62.924-12.764z" fill="#f5415f"/></g></g><path d="m461.253 463.673-73.644-71.574-28.9 28.9 79.774 77.532c16.188 16.188 42.434 16.188 58.622 0 7.54-7.54 11.565-17.264 12.08-27.136-15.537 7.815-34.961 5.248-47.932-7.722z" fill="#cd2846"/><g><g><circle cx="174.187" cy="329.342" fill="#265cde" r="22.236"/></g><g><circle cx="174.187" cy="157.345" fill="#265cde" r="17.078"/></g><g><circle cx="257.738" cy="318.273" fill="#3176ff" r="17.078"/></g><g><circle cx="87.426" cy="172.779" fill="#265cde" r="23.922"/></g><g><circle cx="49.911" cy="243.569" fill="#265cde" r="19.368"/></g><g><circle cx="86.357" cy="318.273" fill="#265cde" r="19.915"/></g><g><path d="m174.187 335.996c-5.703 0-10.327-4.624-10.327-10.327v-36.36c0-5.704 4.624-10.327 10.327-10.327s10.327 4.624 10.327 10.327v36.36c.001 5.704-4.623 10.327-10.327 10.327z" fill="#0037bd"/></g><g><path d="m174.187 205.872c-5.703 0-10.327-4.624-10.327-10.327v-36.36c0-5.704 4.624-10.327 10.327-10.327s10.327 4.624 10.327 10.327v36.36c.001 5.703-4.623 10.327-10.327 10.327z" fill="#0037bd"/></g><g><path d="m253.634 324.07c-3.83 0-7.568-1.936-9.709-5.445l-18.937-31.038c-3.268-5.356-1.574-12.346 3.781-15.614 5.358-3.269 12.346-1.574 15.615 3.781l18.937 31.038c3.268 5.356 1.574 12.346-3.781 15.614-1.847 1.127-3.89 1.664-5.906 1.664z" fill="#265cde"/></g><path d="m205.046 185.491h-69.588s-10.006 19.466-20.08 48.499l-3.903 11.249 2.897 7.819c10.719 28.933 38.314 48.138 69.17 48.138h21.505c31.951 0 57.852-25.901 57.852-57.852-.001-31.951-25.902-57.853-57.853-57.853z" fill="#265cde"/><path d="m252.604 276.245c-1.739 0-3.12-1.349-3.307-3.078-.757-6.99-6.697-12.453-13.91-12.453-5.606 0-10.437 3.298-12.671 8.044-2.132 4.529-6.608 7.488-11.614 7.488h-16.788c-4.293 0-7.996-2.71-9.669-6.664-1.706-4.032-5.694-6.943-10.459-6.943-5.06 0-9.247 3.284-10.751 7.709-1.176 3.46-4.269 5.898-7.923 5.898h-11.12c-3.551 0-7.029-1.189-9.748-3.474-1.869-1.571-2.521-2.874-3.173-4.214-3.295-6.794-.366-14.908 6.491-18.07 5.717-2.636 9.827-8.413 9.827-15.322 0-4.582-1.83-8.733-4.799-11.767-5.997-6.129-5.484-16.125.736-22.027.089-.084.179-.168.27-.252 6.059-5.547 2.209-15.629-6.006-15.629h-5.786c-31.951 0-57.852 25.901-57.852 57.852 0 31.951 25.901 57.852 57.852 57.852h72.84c19.724 0 37.134-9.879 47.577-24.95z" fill="#0037bd"/><path d="m180.45 301.112c1.027.043 2.056.084 3.091.084-1.037 0-2.067-.03-3.091-.084z" fill="#0037bd"/><g><circle cx="126.583" cy="226.266" fill="#3176ff" r="16.852"/></g><g><circle cx="171.104" cy="268.506" fill="#3176ff" r="11.345"/></g><g><circle cx="202.179" cy="233.597" fill="#0037bd" r="17.078"/></g><g><circle cx="199.527" cy="222.949" fill="#3176ff" r="17.078"/></g><g><circle cx="256.67" cy="172.779" fill="#3176ff" r="22.448"/></g><g><circle cx="282.499" cy="246.527" fill="#3176ff" r="17.078"/></g><g><path d="m86.146 253.896h-36.359c-5.703 0-10.327-4.624-10.327-10.327 0-5.704 4.624-10.327 10.327-10.327h36.359c5.703-.001 5.703 20.654 0 20.654z" fill="#0037bd"/></g><g><path d="m105.952 213.568c-3.481 0-6.88-1.76-8.826-4.95l-18.937-31.038c-2.971-4.869-1.432-11.224 3.437-14.195 4.869-2.972 11.224-1.432 14.194 3.437l18.937 31.038c2.971 4.869 1.432 11.224-3.437 14.195-1.679 1.025-3.535 1.513-5.368 1.513z" fill="#0037bd"/></g><g><path d="m86.995 326.136c-1.834 0-3.689-.488-5.368-1.513-4.869-2.971-6.408-9.326-3.437-14.195l18.937-31.038c2.97-4.869 9.327-6.408 14.194-3.437 4.869 2.971 6.408 9.326 3.437 14.195l-18.938 31.038c-1.945 3.189-5.344 4.95-8.825 4.95z" fill="#0037bd"/></g><g><path d="m234.675 218.732c-2.016 0-4.058-.537-5.906-1.664-5.355-3.268-7.049-10.258-3.781-15.614l18.937-31.038c3.269-5.356 10.259-7.05 15.615-3.781 5.355 3.268 7.049 10.258 3.781 15.614l-18.937 31.038c-2.141 3.508-5.88 5.445-9.709 5.445z" fill="#265cde"/></g><g><path d="m279.832 257.887h-36.36c-6.274 0-11.36-5.086-11.36-11.36s5.086-11.36 11.36-11.36h36.36c6.274 0 11.36 5.086 11.36 11.36s-5.086 11.36-11.36 11.36z" fill="#265cde"/></g><g><circle cx="227.582" cy="273.983" fill="#3176ff" r="13.994"/></g></g><path d="m361.572 123.763c-25.46-25.461-57.653-41.736-92.563-47.185-14.67-2.041-57.984-5.117-100.499 15.141-52.587 25.057-37.899 119.886-38.888 122.933 4.9-19.967 15.132-38.882 30.701-54.451 22.012-22.012 51.277-34.134 82.406-34.134s60.394 12.122 82.405 34.134c22.012 22.012 34.134 51.277 34.134 82.405 0 31.129-12.122 60.394-34.134 82.406-22.011 22.012-51.276 34.134-82.405 34.134s-60.394-12.122-82.406-34.134c-15.569-15.569-25.801-34.484-30.701-54.451.86 2.648-2.778 56.126 38.443 97.347 16.531 16.531 37.34 38.674 61.523 42.257 1.504.223 3.543.246 5.068.376 13.241 1.125 26.388-.87 34.354-1.906 34.909-5.45 67.102-21.725 92.563-47.185 65.53-65.531 65.53-172.157-.001-237.687z" fill="#ffdc64"/></g><path d="m370.496 242.083c-.542-71.121-60.066-128.47-131.305-126.258-17.045.529-22.06-23.045-6.223-29.37.382-.153.765-.304 1.148-.454 6.122-2.393 5.092-10.901-1.467-10.473-3.925.256-10.237.72-14.592 1.325-35.99 4.999-68.028 20.768-94.171 46.911-65.53 65.53-65.53 172.156 0 237.686 38.754 38.754 82.744 47.913 112.039 49.086 5.832.234 7.409-7.912 1.924-9.904-.45-.163-.899-.328-1.346-.495-16.1-6.003-11.528-29.901 5.654-29.764.345.003.691.004 1.037.004 70.525-.001 127.84-57.646 127.302-128.294zm-238.609.987c0-61.375 49.932-111.307 111.307-111.307s111.306 49.932 111.306 111.307-49.932 111.307-111.307 111.307-111.306-49.933-111.306-111.307z" fill="#ffc305"/></g></svg>