<svg id="Layer_1" enable-background="new 0 0 507.374 507.374" height="512" viewBox="0 0 507.374 507.374" width="512" xmlns="http://www.w3.org/2000/svg"><g><g><path d="m253.682 13.553c-127.846 0-232.999 97.162-245.644 221.672-.843 8.301 8.363 18.791 8.363 27.314 0 136.369 99.877 232.551 236.246 232.551 21.146 0 42.705 9.641 62.293 4.641l155.857-121.564c19.006-34.987 20.374-195.141 3.629-228.451-40.594-80.753-124.198-136.163-220.744-136.163z" fill="#6e64c3"/></g><path d="m474.414 149.724c-8.318.456-14.719 7.631-14.719 15.989v69.879c0 1.672-1.252 3.171-2.922 3.258-1.781.093-3.254-1.323-3.254-3.084v-92.352c0-9.453-7.574-17.136-16.985-17.313-9.704-.182-17.646 8.061-17.646 17.766v91.898c0 1.706-1.383 3.088-3.088 3.088h-.201c-1.706 0-3.088-1.383-3.088-3.088v-125.901c0-9.453-7.574-17.136-16.985-17.313-2.867-.054-5.572.643-7.973 1.881 0 0 0 0-.001 0-6.018 3.102-9.673 9.447-9.673 15.885v125.448c0 1.706-1.383 3.088-3.088 3.088h-.201c-1.705 0-3.088-1.383-3.088-3.088v-92.352c0-9.453-7.574-17.136-16.985-17.313-9.704-.182-17.646 8.061-17.646 17.766v94.986h-.109v47.914c0 10.443-11.943 16.383-20.271 10.083l-23.338-17.656c-7.551-7.324-19.61-7.139-26.934.412s-7.14 19.61.412 26.933l42.576 54.475c.147.188.293.376.438.564 22.339 28.909.628 70.911-35.882 69.586-21.346-.775-42.665-4.306-63.37-10.64-27.016-8.265-21.164-48.048 7.088-48.048 6.231 0 11.282-5.051 11.282-11.282v-35.53c0-28.994 9.699-57.155 27.554-79.999l42.576-54.475c7.551-7.323 7.736-19.383.412-26.933-7.324-7.551-19.382-7.736-26.934-.412l-23.338 17.656c-8.328 6.3-20.271.36-20.271-10.083v-47.914h-.109v-94.984c0-5.101-2.207-9.782-5.697-13.064-13.873 1.722-22.538 3.961-27.123 4.931-3.261 6.57-1.159 3.62-1.812 100.032 0 1.706-1.383 3.088-3.088 3.088h-.201c-1.706 0-3.088-1.383-3.088-3.088v-97.92c-18.036 4.994-29.214 10.272-34.631 12.453v85.466c0 1.706-1.383 3.088-3.088 3.088h-.201c-1.706 0-3.088-1.383-3.088-3.088v-82.516c-12.338 5.954-24.036 12.898-34.631 20.334v62.007c0 1.672-1.252 3.171-2.922 3.259-1.781.093-3.254-1.323-3.254-3.084v-57.719c-18.389 13.946-25.94 22.654-31.052 27.596v143.249c0 20.126-28.989 23.297-33.274 3.632-.134-.617-.266-1.234-.396-1.851-3.961-18.871-31.126-17.458-33.214 1.538v.002c-6.882 72.562 18.119 144.726 70.75 197.752.037.037.073.075.11.112 45.159 45.441 106.874 72.172 173.156 72.639 20.748.144 41.863-2.233 63.034-7.636l155.857-121.564c19.006-34.987 29.802-75.081 29.802-117.696-.001-39.823-9.443-77.437-26.188-110.747z" fill="#5046af"/><path d="m277.386 187.058c-7.324-7.551-19.382-7.736-26.934-.412l-23.338 17.656c-8.328 6.3-20.271.36-20.271-10.083v-47.914h-.109v-94.986c0-9.706-7.942-17.948-17.646-17.766-9.411.176-16.985 7.859-16.985 17.312v92.352c0 1.706-1.383 3.088-3.088 3.088h-.201c-1.706 0-3.088-1.383-3.088-3.088v-125.448c0-9.706-7.942-17.948-17.646-17.766-9.411.176-16.985 7.859-16.985 17.312v125.902c0 1.706-1.383 3.088-3.088 3.088h-.201c-1.706 0-3.088-1.383-3.088-3.088v-91.898c0-9.706-7.943-17.995-17.646-17.766-1.764.042-2.456.241-2.456.241l-10.499 202.573 10.498 158.91h90.947c6.231 0 11.282-5.051 11.282-11.282v-35.53c0-28.994 9.699-57.155 27.554-79.999l42.576-54.475c7.552-7.323 7.737-19.382.412-26.933z" fill="#ffdc64"/><path d="m104.615 308.897v-275.103c-8.483 1.376-14.529 8.749-14.529 17.071v92.177c0 1.672-1.252 3.171-2.922 3.259-1.781.093-3.254-1.323-3.254-3.084v-70.054c0-8.429-6.509-15.665-14.932-16.009-8.91-.363-16.119 6.747-16.119 15.571v311.27c0 6.231 5.051 11.282 11.282 11.282h40.474 90.947c6.231 0 11.282-5.051 11.282-11.282 0-18.441-14.95-33.391-33.391-33.391h-27.131c-23.034.001-41.707-18.673-41.707-41.707z" fill="#ffc305"/><path d="m452.709 172.504c-8.423.343-14.932 7.579-14.932 16.009v69.879c0 1.672-1.252 3.171-2.922 3.258-1.781.093-3.254-1.323-3.254-3.084v-92.352c0-9.453-7.574-17.136-16.985-17.312-9.704-.182-17.647 8.061-17.647 17.766v91.898c0 1.706-1.383 3.088-3.088 3.088h-.201c-1.706 0-3.088-1.383-3.088-3.088v-125.902c0-9.453-7.574-17.136-16.985-17.313-2.867-.054-5.572.643-7.973 1.881l-10.064 208.983 11.117 104.612c2.378 22.375 28.803 33.018 46.01 18.519 22.501-18.959 41.567-41.863 56.13-67.653v-193.62c.001-8.822-7.209-15.932-16.118-15.569z" fill="#ffdc64"/><path d="m365.634 399.34v-282.107c-6.018 3.102-9.674 9.447-9.674 15.886v125.448c0 1.706-1.383 3.088-3.088 3.088h-.201c-1.706 0-3.088-1.383-3.088-3.088v-92.352c0-9.453-7.574-17.136-16.985-17.313-9.704-.182-17.646 8.061-17.646 17.766v94.986h-.109v47.914c0 10.443-11.943 16.383-20.271 10.083l-23.338-17.656c-7.551-7.324-19.61-7.139-26.934.412s-7.14 19.61.412 26.933l42.576 54.475c17.855 22.844 27.554 51.005 27.554 79.999.008 18.001-.016 34.894.02 35.931 35.065-8.939 69.493-26.097 99.426-51.751-26.87.001-48.654-21.783-48.654-48.654z" fill="#ffc305"/></g></svg>