<svg id="Layer_1" enable-background="new 0 0 511.593 511.593" height="512" viewBox="0 0 511.593 511.593" width="512" xmlns="http://www.w3.org/2000/svg"><g><g><path d="m501.163 253.887c0 140.218-109.409 236.715-249.627 236.715-112.955 0-204.421-56.592-237.375-158.577-7.954-24.616-12.251-50.875-12.251-78.138 0-140.218 113.669-253.887 253.887-253.887 96.4 0 180.251 53.726 223.244 132.869 19.542 35.974 22.122 77.2 22.122 121.018z" fill="#05cdff"/></g><path d="m332.792 495.873c40.252-12.796 76.145-35.356 104.91-64.899 44.601-45.806 71.982-108.345 71.982-177.088 0-39.538-9.152-79.377-27.991-115.991.38 2.487.724 4.987 1.031 7.497 1.653 13.52-8.801 25.471-22.422 25.471-12.482 0-22.6-10.119-22.6-22.6v-48.896c0-15.3-6.715-29.848-18.411-39.712-.116-.098-.233-.196-.35-.294-9.419-7.915-21.3-12.304-33.603-12.304h-40.839c-1.395-11.123-10.867-19.734-22.369-19.734-8.426.035 22.422-.093-44.704.185.905-.11 1.822-.185 2.757-.185h-52.425c-11.501 0-20.973 8.611-22.369 19.734h-76.88c-9.015 0-16.323 7.308-16.323 16.323v236.17c0 45.176-57.859 65.858-86.383 26.922-4.322-5.898-13.447-1.32-11.623 5.548 25.098 77.712 86.664 139.071 164.622 163.854h.004c24.849 7.899 50.896 11.9 76.991 11.9 25.629 0 51.78-3.885 76.995-11.901z" fill="#05acff"/><g><path d="m402.892 511.593h-292.87c-9.015 0-16.324-7.308-16.324-16.323v-416.17c0-9.015 7.308-16.324 16.324-16.324h292.869c9.015 0 16.324 7.308 16.324 16.324v416.17c0 9.015-7.308 16.323-16.323 16.323z" fill="#ffdc64"/></g><g><path d="m146.85 495.27v-416.17c0-9.015 7.308-16.324 16.324-16.324h-53.151c-9.015 0-16.324 7.308-16.324 16.324v416.17c0 9.015 7.308 16.323 16.324 16.323h53.151c-9.016 0-16.324-7.308-16.324-16.323z" fill="#ffc305"/></g><path d="m136.985 106.426 57.345 384.176h202.79v-384.176z" fill="#827ddc"/><g><path d="m136.985 106.426h57.344v384.176h-57.344z" fill="#6e64c3"/></g><g><path d="m382.106 469.645h-202.79l-23.662-195.874 23.662-188.302h202.79z" fill="#fff"/></g><g><path d="m382.106 107.595v-22.126h-202.79l-2.781 22.126z" fill="#e8d6ff"/></g><g><path d="m121.972 85.469h57.344v384.176h-57.344z" fill="#e8d6ff"/></g><path d="m175.282 92.676h162.35v26.625h-162.35z" fill="#e8d6ff"/><g><path d="m237.786 103.703h88.422v-38.096c0-12.462-10.103-22.565-22.565-22.565h-41.947l-4.618.31c-13.65.917-23.847 12.926-22.538 26.543z" fill="#265cde"/></g><g><path d="m239.13 103.703v-38.096c0-12.462 10.103-22.565 22.565-22.565h-52.425c-12.462 0-22.565 10.103-22.565 22.565v38.096z" fill="#0037bd"/></g><g><g><path d="m148.126 173.707h62.291v19.134h-62.291z" fill="#cd2846" transform="matrix(.707 -.707 .707 .707 -77.087 180.439)"/></g><g><path d="m169.705 152.129h19.134v62.291h-19.134z" fill="#f5415f" transform="matrix(.707 -.707 .707 .707 -77.087 180.444)"/></g><g><path d="m163.29 167.206c-.045.045-.09.09-.135.136-3.678 3.703-3.658 9.688.032 13.379l5.054 5.054c3.576 3.576 9.385 4.052 13.231.768 4.25-3.628 4.497-10.1.555-14.042l-5.311-5.311c-3.708-3.71-9.728-3.706-13.426.016z" fill="#ff6473"/></g></g><g><g><path d="m148.126 268.568h62.291v19.134h-62.291z" fill="#cd2846" transform="matrix(.707 -.707 .707 .707 -144.162 208.222)"/></g><g><path d="m169.705 246.989h19.134v62.291h-19.134z" fill="#f5415f" transform="matrix(.707 -.707 .707 .707 -144.164 208.228)"/></g><g><path d="m163.29 262.067c-.045.045-.09.091-.135.136-3.678 3.703-3.658 9.688.032 13.379l5.054 5.054c3.576 3.576 9.385 4.052 13.231.768 4.25-3.628 4.497-10.1.555-14.042l-5.311-5.311c-3.708-3.71-9.728-3.706-13.426.016z" fill="#ff6473"/></g></g><g><path d="m177.11 399.263-26.82-26.819 13.53-13.531 13.29 13.29 27.995-27.996 13.53 13.53z" fill="#00bec2"/></g><g><path d="m177.396 385.11c3.557-3.615 3.427-9.453-.286-12.907l-13.29-13.29-13.531 13.531 13.527 13.527c3.536 3.536 9.277 3.513 12.785-.052z" fill="#5fd2d0"/></g><g><path d="m230.735 172.645h129.582v21.26h-129.582z" fill="#e8d6ff"/></g><g><path d="m230.735 266.874h129.582v21.26h-129.582z" fill="#e8d6ff"/></g><g><path d="m230.735 361.105h129.582v21.26h-129.582z" fill="#e8d6ff"/></g><g fill="#ffc305"><path d="m395.436 263.282v55.944l23.779-23.779v-55.944z"/><path d="m419.215 300.452-27.434 27.621c-2.482 2.499-2.469 6.537.03 9.02 1.245 1.236 2.869 1.853 4.495 1.853 1.639 0 3.278-.628 4.525-1.884l18.384-18.509z"/></g><g fill="#6e64c3"><path d="m381.05 277.667v55.945l16.07-16.07v-55.944z"/><path d="m397.12 322.697-5.339 5.376c-2.482 2.499-2.469 6.537.03 9.02 1.245 1.236 2.869 1.853 4.495 1.853.273 0 .543-.044.814-.078z"/></g><path d="m382.106 276.611-128.163 128.164-10.486 27.157-7.108 18.409 9.62-3.715 7.9-3.05 28.046-10.829 100.191-100.191z" fill="#e8d6ff"/><g><g><g><path d="m267.754 417.62-18.551-9.819-9.421-18.153 208.033-208.034 18.973 8.601 8.999 19.371z" fill="#f5415f"/></g><g><path d="m249.203 407.801-9.421-18.153 208.033-208.034 18.973 8.601z" fill="#cd2846"/></g><g><path d="m486.537 170.864c-7.724-7.724-20.248-7.724-27.972 0l-10.75 10.75 27.972 27.972 10.75-10.75c7.724-7.724 7.724-20.247 0-27.972z" fill="#ffdc64"/></g><path d="m471.602 185.25c5.472-5.472 13.346-7.047 20.222-4.767-.795-3.524-2.544-6.876-5.287-9.619-7.724-7.724-20.248-7.724-27.972 0l-10.75 10.75 13.711 13.711z" fill="#ffc305"/><g><path d="m267.754 417.62-27.972-27.972-17.594 45.565z" fill="#fff"/></g><g><path d="m229.296 416.804-7.108 18.409 17.52-6.765c-3.677-3.683-7.194-7.517-10.412-11.644z" fill="#e8d6ff"/></g></g><g><path d="m382.145 323.818c-1.626 0-3.25-.617-4.495-1.853-2.499-2.482-2.512-6.52-.03-9.02l76.021-76.539-29.555-31.325c-2.418-2.562-2.299-6.599.263-9.016 2.561-2.418 6.597-2.301 9.016.262l33.792 35.816c2.362 2.503 2.312 6.43-.114 8.872l-80.373 80.92c-1.247 1.255-2.886 1.883-4.525 1.883z" fill="#fff"/></g><g><path d="m447.194 220.009c2.44-2.44 2.497-6.378.129-8.887l-13.776-14.601c-2.396-2.54-6.443-2.908-9.053-.589-2.702 2.4-2.87 6.54-.408 9.149l13.959 14.795c2.467 2.615 6.607 2.675 9.149.133z" fill="#e8d6ff"/></g></g></g></svg>