<svg id="Layer_1" enable-background="new 0 0 511.222 511.222" height="512" viewBox="0 0 511.222 511.222" width="512" xmlns="http://www.w3.org/2000/svg"><g><g><circle cx="255.611" cy="255.611" fill="#ffdc64" r="247.245"/></g><path d="m255.611 8.366c-136.55 0-247.245 110.695-247.245 247.245 0 106.155 66.9 196.684 160.839 231.726l175.347-.962c92.604-35.715 158.303-125.568 158.303-230.764 0-136.55-110.695-247.245-247.244-247.245z" fill="#ffdc64"/><path d="m273.212 384.14v24.441c0 9.063-7.347 16.409-16.409 16.409-9.063 0-16.409-7.347-16.409-16.409v-24.441h-34.601v78.376h103.294v-78.376z" fill="#0037bd"/><g><path d="m490.604 69.263h-418.226c-14.467 0-26.196 11.728-26.196 26.196v268.704c0 14.467 11.728 26.196 26.196 26.196h418.226c11.387 0 20.618-9.231 20.618-20.618v-279.86c0-11.387-9.231-20.618-20.618-20.618z" fill="#265cde"/></g><g><path d="m51.76 369.74v-279.859c0-11.387 9.231-20.618 20.618-20.618h-51.76c-11.387 0-20.618 9.231-20.618 20.618v279.859c0 11.387 9.231 20.618 20.618 20.618h51.76c-11.387 0-20.618-9.231-20.618-20.618z" fill="#0037bd"/></g><g><path d="m36.518 106.073h438.186v247.475h-438.186z" fill="#fff"/></g><g><path d="m88.278 106.073-4.664 164.845 4.664 82.63h386.426v-247.475z" fill="#fff"/></g><path d="m215.609 477.667 5.361 22.768c11.319 1.591 22.883 2.42 34.641 2.42 31.353 0 61.336-5.85 88.936-16.495v-31.46h-123.577z" fill="#265cde"/><path d="m220.97 454.9h-51.76v32.424c16.492 6.152 33.819 10.59 51.76 13.11z" fill="#0037bd"/><path d="m407.403 209.515v-18.634h-52.307l-27.605-47.812h-65.967l-17.45 30.223c-1.37-.212-2.773-.323-4.201-.323-11.766 0-21.788 7.463-25.592 17.913h-39.874l-18.971 32.858c-.313-.011-.625-.024-.94-.024-10.626 0-19.823 6.096-24.301 14.978h-43.012v-132.562h-50.725v247.475h50.725v-55.408c0-22.573 18.299-40.872 40.872-40.872 2.881 11.933 13.622 20.8 26.44 20.8 1.406 0 2.786-.107 4.135-.312l15.776 27.325h39.564c3.765 9.958 13.382 17.041 24.658 17.041 1.664 0 3.288-.161 4.866-.456l18.029 31.227h65.967l32.984-57.129-16.506-28.589c3.593-4.465 5.747-10.136 5.747-16.313 0-7.277-2.988-13.854-7.8-18.58l13.179-22.826zm-167.962 59.97c-.271-.008-.54-.021-.813-.021-11.276 0-20.894 7.083-24.658 17.041h-28.805l-10.202-17.671c4.193-4.786 6.739-11.051 6.739-17.913 0-7.951-3.412-15.104-8.851-20.078l12.314-21.328h29.116c3.805 10.45 13.827 17.912 25.592 17.912.028 0 .055-.002.082-.002l11.885 20.585zm77.292 64.833h-44.45l-12.872-22.294c3.49-4.47 5.575-10.091 5.575-16.201 0-6.111-2.085-11.731-5.575-16.201l12.872-22.294h26.139c2.855 11.287 13.076 19.64 25.25 19.64 1.431 0 2.834-.12 4.203-.342l11.084 19.198zm7.962-109.416c-.34-.013-.681-.026-1.024-.026-9.964 0-18.618 5.598-22.998 13.818h-28.391l-11.895-20.602c4.178-4.786 6.715-11.042 6.715-17.894s-2.537-13.108-6.714-17.894l11.894-20.602h44.45l22.226 38.496z" fill="#e8d6ff"/><g><g><path d="m230.709 289.552h-65.967l-32.984-57.129 32.984-57.129h65.967l32.984 57.129zm-55.208-18.634h44.45l22.226-38.496-22.226-38.495h-44.45l-22.226 38.495z" fill="#05acff"/></g><g><path d="m170.612 202.395 4.889-8.467h12.547c5.146 0 9.317-4.171 9.317-9.317 0-5.146-4.171-9.317-9.317-9.317h-23.305l-10.268 17.784c-3.586 6.211.896 13.975 8.069 13.975 3.328 0 6.404-1.776 8.068-4.658z" fill="#05cdff"/></g><g><path d="m340.053 175.294h57.686v18.634h-57.686z" fill="#05cdff"/></g><g><path d="m317.827 241.74h-65.967l-32.984-57.129 32.984-57.129h65.967l32.984 57.129zm-55.208-18.634h44.45l22.226-38.495-22.226-38.496h-44.45l-22.226 38.496z" fill="#05acff"/></g><g><path d="m317.827 337.365h-65.967l-32.984-57.129 32.984-57.129h65.967l32.984 57.129zm-55.208-18.634h44.45l22.226-38.496-22.226-38.496h-44.45l-22.226 38.496z" fill="#05acff"/></g><g><path d="m74.646 223.106h67.871v18.634h-67.871z" fill="#05cdff"/></g><g><circle cx="144.832" cy="235.334" fill="#cd2846" r="27.206"/></g><g><circle cx="144.832" cy="235.334" fill="#f5415f" r="12.977"/></g><g><circle cx="228.964" cy="280.235" fill="#ffc305" r="26.358"/></g><g><circle cx="228.964" cy="280.235" fill="#ffdc64" r="13.212"/></g><g><circle cx="230.209" cy="184.611" fill="#0037bd" r="27.229"/></g><g><circle cx="230.209" cy="184.611" fill="#265cde" r="11.402"/></g><g><circle cx="314.007" cy="235.334" fill="#cd2846" r="26.046"/></g><g><circle cx="314.007" cy="235.334" fill="#f5415f" r="12.977"/></g></g><circle cx="456.225" cy="371.131" fill="#0037bd" r="8.975"/><path d="m447.982 410.929h-165.588c-11.343 0-20.572-9.228-20.572-20.572h-10.352c0 17.052 13.872 30.924 30.924 30.924h156.739c3.042-3.368 5.994-6.819 8.849-10.352z" fill="#00bec2"/><g><path d="m324.118 390.358h10.352v64.415h-10.352z" fill="#f5415f"/></g><g><path d="m352.421 410.929h-63.607c-2.859 0-5.176 2.317-5.176 5.176 0 2.859 2.317 5.176 5.176 5.176h63.607c2.859 0 5.176-2.317 5.176-5.176 0-2.858-2.317-5.176-5.176-5.176z" fill="#5fd2d0"/></g></g></svg>