<svg id="Layer_1" enable-background="new 0 0 513.523 513.523" height="512" viewBox="0 0 513.523 513.523" width="512" xmlns="http://www.w3.org/2000/svg"><g><path d="m504.857 265.429c0 137.019-111.076 229.315-248.095 229.315-66.126 0-126.21-7.091-170.683-49.263-47.678-45.212-77.412-109.16-77.412-180.052 0-137.019 111.076-248.095 248.095-248.095s248.095 111.076 248.095 248.095z" fill="#5fd2d0"/><path d="m504.846 264.627c-.212-8.785-12.853-10.353-15.147-1.759-.157.589-.317 1.178-.478 1.765-6.356 23.125-40.413 18.54-40.413-5.442v-1.704c0-33.093 7.441-65.589 20.253-96.102 1.814-4.321 2.826-8.712 2.826-13.341 0-2.797-.375-5.505-1.068-8.083-3.164-5.387-6.526-10.643-10.076-15.76-5.399-4.521-12.353-7.246-19.945-7.246-21.368 0-179.559 0-202.334 0l-15.013-97.389c-7.578 1.017-15.051 2.365-22.396 4.05l14.389 93.339h-4.508c-17.17 0-31.089 13.919-31.089 31.089 0 14.4 9.792 26.508 23.079 30.042v120.528 85.458c0 23.973 18.656 43.578 42.24 45.116l-70.064-2.556c-22.581-.361-35.733-26.354-21.98-44.268.298-.388.605-.771.922-1.149 4.719-5.622 7.561-12.871 7.561-20.786v-156.291h13.651v-22.853c-7.539 0-13.651-6.112-13.651-13.651v-31.044c0-17.875-14.49-32.365-32.365-32.365-9.739 0-18.466 4.307-24.399 11.114-1.68 1.634-3.047 3.582-4.017 5.75-2.516 4.603-3.948 9.884-3.948 15.5v44.695h-13.652v22.853h13.651v156.293c0 13.851 8.704 25.665 20.938 30.283v17.997c-.04.02-.026.013-.066.033-25.106-18.298-53.039 16.048-31.662 36.732 44.853 42.536 105.092 68.048 170.678 68.048 137.141 0 248.095-111.172 248.095-248.095-.001-.267-.011-.533-.012-.801z" fill="#00bec2"/><g><g><path d="m420.004 127.983h-176.885-1.602c-19.578 0-35.449 15.871-35.449 35.449v152.692h135.522l86.425-6.482v-120.528c13.287-3.534 23.079-15.642 23.079-30.042-.001-17.17-13.92-31.089-31.09-31.089z" fill="#fff"/></g><g><path d="m182.132 189.114v120.528l23.937 6.482 29.04-6.482.08-120.468 47.703-.06c-13.287-3.534-23.079-15.642-23.079-30.042 0-17.17 13.919-31.089 31.089-31.089h-100.76c-17.17 0-31.089 13.919-31.089 31.089 0 14.4 9.792 26.508 23.079 30.042z" fill="#e8d6ff"/></g><g><path d="m140.811 203.739h-64.73v167.719c0 17.875 14.49 32.365 32.365 32.365 17.875 0 32.365-14.49 32.365-32.365z" fill="#fff"/></g><g><path d="m97.019 370.058h22.853v64.855h-22.853z" fill="#fff"/></g><g><path d="m108.446 115.253c-17.875 0-32.365 14.49-32.365 32.365v56.122h64.73v-56.122c0-17.875-14.49-32.365-32.365-32.365z" fill="#cd2846"/></g><g><path d="m62.43 192.312h92.032v22.853h-92.032z" fill="#f5415f"/></g><g><path d="m205.497-.579h20.775v370.314h-20.775z" fill="#f5415f" transform="matrix(.988 -.152 .152 .988 -25.601 35.046)"/></g><g><path d="m227.937 194.584c.03 5.777-3.674 11.58-11.109 11.58-4.012 0-6.928-1.692-8.766-4.149l25.766 167.141 20.533-3.165z" fill="#cd2846"/></g><g><path d="m229.791 391.886c0 26.752 21.687 48.439 48.439 48.439h2.104 102.456c24.977 0 45.225-20.248 45.225-45.225v-85.458h-192.906z" fill="#ffdc64"/></g><g><path d="m235.109 395.1v-85.458h-52.977v85.458c0 24.977 20.248 45.225 45.225 45.225h52.977c-24.977.001-45.225-20.247-45.225-45.225z" fill="#ffc305"/></g><g><g><g><path d="m286.54 217.694h37.066v12.465h-37.066z" fill="#265cde"/></g><g><path d="m286.54 253.606h37.066v12.465h-37.066z" fill="#265cde"/></g><g><path d="m286.54 289.517h37.066v12.465h-37.066z" fill="#265cde"/></g><g><path d="m286.54 325.428h37.066v12.465h-37.066z" fill="#265cde"/></g><g><path d="m286.54 361.341h37.066v12.465h-37.066z" fill="#265cde"/></g><g><path d="m286.54 397.252h37.066v12.465h-37.066z" fill="#265cde"/></g></g></g><g><g><g><path d="m121.906 244.999h18.905v12.465h-18.905z" fill="#e8d6ff"/></g><g><path d="m121.906 280.911h18.905v12.465h-18.905z" fill="#e8d6ff"/></g><g><path d="m121.906 316.822h18.905v12.465h-18.905z" fill="#e8d6ff"/></g><g><path d="m121.906 352.733h18.905v12.465h-18.905z" fill="#e8d6ff"/></g></g></g><circle cx="97.019" cy="139.706" fill="#f5415f" r="18.618"/></g></g></svg>