<svg id="Layer_1" enable-background="new 0 0 511.803 511.803" height="512" viewBox="0 0 511.803 511.803" width="512" xmlns="http://www.w3.org/2000/svg"><g><circle cx="255.899" cy="256.357" fill="#05cdff" r="255.445"/><g fill="#05acff"><path d="m38.616 122.007c-.153.246-.308.49-.46.737-7.792 12.792 7.566 27.115 19.739 18.327 11.497-8.299 23.713-15.665 36.536-21.988 31.779-15.668 70.199-6.878 92.095 20.978l43.246 53.661c15.32 19.01 23.674 42.689 23.674 67.104v96.59c0 10.351 12.528 15.519 19.826 8.179l30.547-30.723c2.161-2.174 3.374-5.114 3.374-8.179v-55.692c0-2.778.613-6.184 1.715-10.066 18.438-64.912 108.615-69.127 134.601-6.852 11.084 26.563 18.949 58.072 19.211 94.211.002.246.003.492.004.737.068 16.404 22.438 20.961 28.872 5.954 36.64-87.45 22.666-192.659-44.967-268.531-27.99-31.399-63.609-55.845-103.957-70.416-24.287-8.771-50.759-14.103-78.541-14.982-90.295-2.862-176.61 42.025-225.515 120.951zm194.532 9.878-.005-.007.016.007c-.004 0-.008 0-.011 0z"/><path d="m278.673 414.887c-8.924 12.704-26.453 39.311-26.453 52.298 0 17.421 14.123 31.544 31.544 31.544s31.544-14.123 31.544-31.544c0-12.987-17.53-39.594-26.453-52.298-2.481-3.531-7.702-3.531-10.182 0z"/></g><g><path d="m118.846 73.508 142.144 8.439 129.647-8.439h13.343c20.251 0 36.667-16.59 36.667-36.841.001-20.25-16.416-36.667-36.667-36.667h-298.301c-20.251 0-36.667 16.417-36.667 36.667 0 20.251 16.417 36.667 36.667 36.667z" fill="#ffdc64"/><path d="m340.479 136.509 49.693-63.001h-270.864l85.859 42.33 74.052 33.052z" fill="#fff"/><path d="m105.679 73.335 13.167.174 5.694 7.132h53.287l-5.504-7.132h-13.167c-20.251 0-36.667-16.59-36.667-36.841 0-20.251 16.416-36.668 36.667-36.668h-53.477c-20.251 0-36.667 16.417-36.667 36.667 0 20.251 16.416 36.668 36.667 36.668z" fill="#ffc305"/><path d="m205.167 115.838-32.398-42.33h-53.923l39.705 50.514 27.355 3.157z" fill="#e8d6ff"/><path d="m340.479 136.509s-7.289-19.348-53.426-20.705-78.687 4.19-71.42 13.629 105.547 31.544 124.846 7.076z" fill="#cd2846"/><path d="m293.468 136.404c-16.723-2.927-32.735-8.691-48.97-13.489-13.774-4.071-27.403-7.035-41.596-7.112l76.317 164.371v-25.213c0-27.776 9.55-54.707 27.048-76.278l34.213-42.176c-15.746 2.543-31.132 2.677-47.012-.103z" fill="#f5415f"/><path d="m205.167 115.838c-3.441-.093-6.911-.028-10.425.237-12.32.932-24.422 4.026-36.191 7.947l43.246 53.661c15.32 19.01 23.674 42.689 23.674 67.104v96.59c0 10.35 12.528 15.519 19.826 8.179l30.547-30.723c2.161-2.174 3.374-5.114 3.374-8.179v-44.118c0-35.344-11.691-69.695-33.251-97.701z" fill="#cd2846"/><path d="m287.332 451.145c0 17.421-14.123 31.544-31.544 31.544s-31.544-14.123-31.544-31.544c0-12.987 17.53-39.594 26.453-52.298 2.48-3.531 7.701-3.531 10.181 0 8.925 12.704 26.454 39.311 26.454 52.298z" fill="#f5415f"/></g><g><g><path d="m133.912 297.674c-24.618 0-44.646-20.028-44.646-44.646 0-24.617 20.028-44.646 44.646-44.646s44.646 20.028 44.646 44.646-20.028 44.646-44.646 44.646zm0-69.292c-13.59 0-24.646 11.056-24.646 24.646s11.056 24.646 24.646 24.646 24.646-11.057 24.646-24.646-11.056-24.646-24.646-24.646z" fill="#05acff"/></g><g><path d="m138.29 362.817h20v67.112h-20z" fill="#05acff"/></g><g><path d="m114.734 386.374h67.112v20h-67.112z" fill="#05acff"/></g><g><path d="m404.866 403.674c-21.269 0-38.572-17.304-38.572-38.572s17.303-38.571 38.572-38.571 38.572 17.303 38.572 38.571-17.304 38.572-38.572 38.572zm0-57.143c-10.241 0-18.572 8.331-18.572 18.571 0 10.241 8.331 18.572 18.572 18.572s18.572-8.331 18.572-18.572c0-10.24-8.331-18.571-18.572-18.571z" fill="#05acff"/></g></g><g><g><path d="m122.912 285.674c-24.618 0-44.646-20.028-44.646-44.646 0-24.617 20.028-44.646 44.646-44.646s44.646 20.028 44.646 44.646-20.028 44.646-44.646 44.646zm0-69.292c-13.59 0-24.646 11.056-24.646 24.646s11.056 24.646 24.646 24.646 24.646-11.057 24.646-24.646-11.056-24.646-24.646-24.646z" fill="#fff"/></g><g><path d="m127.29 350.817h20v67.112h-20z" fill="#fff"/></g><g><path d="m103.734 374.374h67.112v20h-67.112z" fill="#fff"/></g><g><path d="m393.866 391.674c-21.269 0-38.572-17.304-38.572-38.572s17.303-38.571 38.572-38.571 38.572 17.303 38.572 38.571-17.304 38.572-38.572 38.572zm0-57.143c-10.241 0-18.572 8.331-18.572 18.571 0 10.241 8.331 18.572 18.572 18.572s18.572-8.331 18.572-18.572c0-10.24-8.331-18.571-18.572-18.571z" fill="#fff"/></g></g></g></svg>