<svg id="Layer_1" enable-background="new 0 0 510.84 510.84" height="512" viewBox="0 0 510.84 510.84" width="512" xmlns="http://www.w3.org/2000/svg"><g><g><path d="m487.137 246.143c0 135.941-87.982 223.267-223.923 223.267-91.171 0-178.558-26.693-221.095-100.35-20.887-36.17-32.839-78.148-32.839-122.917 0-135.941 110.202-246.143 246.143-246.143 99.398 0 185.035 58.917 223.893 143.734 14.286 31.183 7.821 65.866 7.821 102.409z" fill="#f5415f"/></g><path d="m479.305 143.739c-.021-.046-.043-.091-.064-.136-5.493-11.855-23.189-7.945-23.16 5.147 0 .184.001.369.001.554 0 30.629-5.598 59.948-15.825 86.995-7.051 18.649-34.653 13.696-34.653-6.242 0-8.792-3.159-17.04-8.56-23.48 5.409-6.502 8.506-14.785 8.47-23.52l-.217-51.878c0-15.941-9.008-29.771-22.207-36.699-.302-.112-7.996-4.731-19.223-4.731v94.949.208l-5.664 2.094-.091.052-5.808-2.145v-.207-94.95c-.954.154-8.858-.512-19.248 4.744-13.185 6.932-22.182 20.755-22.182 36.686v57.126c0 8.75 3.126 16.961 8.479 23.388-5.39 6.459-8.494 14.684-8.505 23.365l-.127 103.389c-.028 23.001-15.599 43.008-37.839 48.875-.336.089-.672.176-1.009.264-32.022 8.3-63.268-15.858-63.268-48.938v-97.926h-16.671v-18.643c0-8.459 2.739-16.767 8.119-23.295 5.509-6.685 8.526-15.068 8.55-23.721l.002-.002v-96.977l-32.051.088-1.572.207c-16.672 2.19-29.138 16.4-29.138 33.216v63.362c0 8.447 2.72 16.755 8.098 23.27 5.545 6.716 8.573 15.151 8.573 23.852v18.643h-16.671v67.504c0 40.821-46.228 64.912-79.376 41.089-.431-.309-.86-.62-1.289-.933-13.824-10.071-31.598 5.857-23.045 20.669 42.982 74.436 123.031 123.234 213.29 123.234 34.143 0 66.659-6.956 96.217-19.521 4.203-1.787 8.55-3.798 12.575-5.784 75.478-37.254 127.948-111.256 136.198-196.995 4.307-44.831-3.682-88.223-21.109-126.247zm-115.13 197.381c-3.962 3.19-8.017 6.269-12.176 9.213v-116.876l5.935-2.192.122-.068 6.12 2.26v107.663z" fill="#cd2846"/><g><g><path d="m327.749 442.116h-41.43l.279-226.854c.016-13.158 7.103-25.291 18.556-31.769l28.8-16.29 5.665-2.092v-95.158c22.881 0 41.43 18.549 41.43 41.43l.216 51.878c.055 13.289-7.106 25.561-18.704 32.05l-28.878 16.157-5.935 2.192v228.456z" fill="#05acff"/></g><g><path d="m263.215 510.84c-35.574 0-64.516-28.942-64.516-64.516s28.942-64.515 64.516-64.515 64.516 28.941 64.516 64.515-28.942 64.516-64.516 64.516zm0-87.601c-12.73 0-23.085 10.355-23.085 23.085s10.356 23.086 23.085 23.086c12.73 0 23.086-10.356 23.086-23.086s-10.357-23.085-23.086-23.085z" fill="#2896ff"/></g><g><path d="m381.355 442.116h-41.43v-228.455l-29.414-10.864c-14.355-5.302-23.887-18.985-23.887-34.287v-57.127c0-22.881 18.549-41.43 41.43-41.43v95.157l29.414 10.864c14.355 5.302 23.887 18.985 23.887 34.287z" fill="#05cdff"/></g><g><path d="m404.459 510.84c-35.574 0-64.516-28.942-64.516-64.516s28.942-64.515 64.516-64.515 64.516 28.941 64.516 64.515-28.942 64.516-64.516 64.516zm0-87.601c-12.73 0-23.086 10.355-23.086 23.085s10.356 23.086 23.086 23.086 23.086-10.356 23.086-23.086-10.357-23.085-23.086-23.085z" fill="#05acff"/></g><path d="m328.055 69.953c-6.95 0-13.495 1.72-19.248 4.744v90.205h19.248z" fill="#fff"/><path d="m339.619 69.953v94.949h19.223v-90.218c-5.747-3.016-12.283-4.731-19.223-4.731z" fill="#05cdff"/></g><g><g><path d="m168.329 90.277-16.026-31.901-1.572.207c-16.673 2.19-29.138 16.401-29.138 33.216v63.362c0 8.576 2.942 16.893 8.335 23.561 5.393 6.668 8.335 14.985 8.335 23.561v53.429h29.419v-53.429c0-8.576 2.942-16.893 8.335-23.561 5.393-6.668 8.335-14.985 8.335-23.561z" fill="#fff"/><path d="m184.353 155.266c.001-.001.001-.001.002-.002v-96.976l-32.051.088v64.841c0 17.7 14.348 32.049 32.049 32.049z" fill="#e8d6ff"/><path d="m152.974 437.445c-17.331 0-31.381-14.05-31.381-31.381v-185.138h62.762v185.139c0 17.33-14.05 31.38-31.381 31.38z" fill="#ffc305"/></g><path d="m136.949 370.416c-8.48 0-15.355-6.875-15.355-15.355v-134.135h30.71v134.135c0 8.48-6.875 15.355-15.355 15.355z" fill="#ffdc64"/></g></g></svg>