<svg id="Layer_1" enable-background="new 0 0 508.074 508.074" height="512" viewBox="0 0 508.074 508.074" width="512" xmlns="http://www.w3.org/2000/svg"><g><path d="m251.82 15.214c-131.638 1.373-236.689 107.925-236.286 239.569.155 50.776 16.155 97.823 43.315 136.456.8 1.138 1.61 2.269 2.429 3.392 33.421 45.821 87.154 72.409 143.868 72.506l73.254.126c151.637.26 255.687-149.628 199.314-298.023-34.49-90.794-122.754-155.102-225.894-154.026z" fill="#05cdff"/><path d="m490.21 291.939c6.504-40.796 2.463-83.284-12.513-122.692-3.81-9.553-18.155-6.198-17.304 4.151.019.233.038.466.057.7.624 7.869-6.672 14.023-14.325 12.09l-146.169-36.912v-43.246c0-11.046-8.954-20-20-20-11.046 0-20 8.954-20 20v26.594s-165.374 37.5-165.374 43.474l7.031 76.891h-16.844-34.236c-13.575 0-24.58 11.005-24.58 24.58 0 48.968 39.697 88.665 88.665 88.665 8.411 0 16.545-1.18 24.255-3.368.056-.015.129-.027.181-.042 37.085-10.61 64.229-44.762 64.229-85.255 0-13.575-11.005-24.58-24.58-24.58h-51.078v-16.155c0-15.842 10.791-29.647 26.165-33.472l106.165-26.414v229.513l-87.844-.151c-35.108-.06-69.511-10.327-98.776-30.021-9.758-6.567-21.266 5.283-14.512 14.907.009.013.019.026.028.039 22.143 31.499 52.087 57.853 87.356 75.8l73.325.126 120.843.207c12.585.022 8.771.015 21.422.037 29.898-15.084 56.449-36.445 77.66-62.423 26.028-31.872 43.984-70.591 50.753-113.043zm-55.948 0h-18.75-34.235c-13.552 0-24.572 10.974-24.58 24.526-.007 11.12 2.034 21.762 5.766 31.57 7.188 18.893-.616 40.131-17.979 50.483-7.966 4.749-13.01 8.066-20.584 8.053-13.231-.023-23.946-10.755-23.946-23.987v-149.554c0-.001 0-.002 0-.002 0-28.903 27.181-50.099 55.213-43.055l79.094 19.876v82.09z" fill="#05acff"/><g><g><g><path d="m274.002 452.341h-40v-370.973c0-11.046 8.954-20 20-20 11.046 0 20 8.954 20 20z" fill="#265cde"/></g></g><path d="m254.002 188.368c-11.046 0-20 8.954-20 20v243.973h40v-243.973c0-11.045-8.954-20-20-20z" fill="#0037bd"/><g><path d="m434.322 301.782h-26.014v-116.595l-152.506-38.323-154.131 38.348v116.571h-26.013v-126.74c0-5.975 4.069-11.18 9.866-12.622l167.153-41.587c2.072-.516 4.24-.514 6.311.007l165.497 41.587c5.783 1.453 9.837 6.652 9.837 12.615z" fill="#265cde"/></g><g><path d="m182.984 138.174-66.998 16.669c-5.797 1.442-9.867 6.648-9.867 12.622 0 8.456 7.942 14.664 16.147 12.622l66.998-16.669c5.797-1.442 9.867-6.648 9.867-12.622 0-8.456-7.941-14.664-16.147-12.622z" fill="#3176ff"/></g><g><path d="m59.655 252.908h-1.33c-6.251 0-11.319 5.068-11.319 11.319v16.345c0 33.468 28.135 60.333 61.535 58.201 2.023-.129 3.589-.332 4.559-.609 37.085-10.61 64.229-44.762 64.229-85.255h-117.674z" fill="#ffdc64"/></g><g><path d="m49.893 264.023c-.737-5.894 3.822-11.115 9.762-11.115h-59.655c0 48.968 39.697 88.665 88.665 88.665 8.537 0 16.79-1.21 24.602-3.461-33.555-9.672-58.938-38.623-63.374-74.089z" fill="#ffc305"/></g><g><g><path d="m314.424 478.033h-70.134l-10.288-25.692 10.288-25.691h70.134z" fill="#265cde"/></g></g><g><g><path d="m193.581 426.65h50.604v51.383h-50.604z" fill="#0037bd"/></g></g><path d="m188.673 467.109 4.907 17.934c19.408 5.102 39.778 7.831 60.789 7.831 38.64 0 75.13-9.187 107.424-25.479v-15.053h-168.212z" fill="#265cde"/><path d="m193.581 452.341h-47.369v14.688c14.948 7.606 30.812 13.663 47.369 18.01z" fill="#0037bd"/><path d="m152.75 228.328h-127.558c-13.575 0-24.58 11.005-24.58 24.58h176.719c0-13.575-11.005-24.58-24.581-24.58z" fill="#fff"/><path d="m58.815 228.328h-34.235c-13.575 0-24.58 11.005-24.58 24.58h58.047c-13.219-2.173-12.948-23.143.768-24.58z" fill="#e8d6ff"/><g><path d="m390.399 291.857h-1.33c-6.251 0-11.319 5.068-11.319 11.319v16.345c0 33.468 28.135 60.333 61.535 58.201 2.023-.129 3.589-.332 4.559-.609 37.085-10.61 64.229-44.762 64.229-85.255h-117.674z" fill="#ffdc64"/></g><g><path d="m380.637 302.973c-.737-5.894 3.822-11.115 9.762-11.115h-59.655c0 48.968 39.697 88.665 88.665 88.665 8.537 0 16.79-1.21 24.602-3.461-33.555-9.672-58.938-38.624-63.374-74.089z" fill="#ffc305"/></g><path d="m483.494 267.277h-127.558c-13.575 0-24.58 11.005-24.58 24.58h176.719c-.001-13.575-11.006-24.58-24.581-24.58z" fill="#fff"/><path d="m389.559 267.277h-34.235c-13.575 0-24.58 11.005-24.58 24.58h58.047c-13.219-2.173-12.949-23.142.768-24.58z" fill="#e8d6ff"/></g></g></svg>