<svg id="Layer_1" enable-background="new 0 0 512 512" height="512" viewBox="0 0 512 512" width="512" xmlns="http://www.w3.org/2000/svg"><g><path d="m120.111 256-59.463 165.449c-37.828-44.621-60.648-102.369-60.648-165.449 0-63.078 22.82-120.822 60.646-165.442z" fill="#78e9e1"/><path d="m60.653 339.223v-151.042c0-3.392-2.185-6.348-5.382-7.483-6.463-2.295-11.023-8.607-10.678-15.933.317-6.722 4.89-12.228 10.976-14.348 3.094-1.077 5.083-4.104 5.083-7.38l-.007-52.479c5.146-6.071 10.583-11.887 16.265-17.453v-.01c28.973-28.371 64.214-49.475 102.648-61.484.007.002.014.006.021.008 24.136-7.542 49.801-11.619 76.421-11.619 53.881 0 103.863 16.66 145.106 45.089.516.356 1.028.716 1.547 1.07 1.702 1.163 3.355 2.394 5.02 3.608.067.049.135.098.202.147 63.155 46.62 104.125 121.564 104.125 206.086 0 75.285-32.498 142.98-84.231 189.822h-23.589-319.949c-1.658-1.501-3.283-3.037-4.897-4.585-.767-.732-1.532-1.466-2.289-2.208-.044-.043-.089-.085-.133-.128v-.005c-5.679-5.567-11.118-11.378-16.263-17.448l.005-37.863c0-3.284-2.071-6.128-5.104-7.389-6.037-2.51-10.214-8.587-9.883-15.606.303-6.44 4.512-11.771 10.217-14.074 2.932-1.183 4.769-4.13 4.769-7.293z" fill="#00bec2"/><g><path d="m394.903 49.607h-93.252v-27.898c0-5.904 4.786-10.69 10.69-10.69h71.872c5.904 0 10.69 4.786 10.69 10.69z" fill="#3176ff"/><g fill="#265cde"><path d="m311.834 21.738h15.006v27.868h-15.006z"/><path d="m340.774 21.738h15.006v27.868h-15.006z"/><path d="m369.714 21.738h15.006v27.868h-15.006z"/></g></g><path d="m417.087 57.046h-291.536l-14.594 213.004 26.718 213.014c35.389 18.482 75.635 28.936 118.325 28.936 66.1 0 126.345-25.056 171.766-66.182v-46.99l-10.719-10.532 10.719-10.85v-174.388l-10.719-11.244 10.719-10.193v-87.06l-10.719-12.186 10.719-9.251v-6.942c-3.472-3.143-7.038-6.184-10.679-9.136z" fill="#ffdc64"/><g><path d="m168.165 94.561h259.6v-31.701c-.177-.177-.278-.278-.454-.454h-343.077v247.344 136.068c16.086 14.565 34.039 27.102 53.445 37.237v-53.686c0-16.837 13.649-30.485 30.485-30.485h258.529c.362 0 .716-.032 1.072-.056v-32.028c-.504-.046-1.013-.073-1.526-.073h-288.56v-133.183c0-16.837 13.649-30.485 30.485-30.485h259.6v-31.702c-.177-.177-.278-.278-.454-.454h-289.632v-45.855c.002-16.838 13.651-30.487 30.487-30.487z" fill="#ffc305"/></g><g><path d="m427.311 40.968h-291.122c-8.88 0-16.078 7.198-16.078 16.078 0 8.88 7.198 16.078 16.078 16.078h291.576c9.137 0 16.494-7.622 16.06-16.855-.407-8.648-7.856-15.301-16.514-15.301z" fill="#fff"/></g><g><path d="m427.311 149.465h-295.881c-8.88 0-16.078 7.198-16.078 16.078 0 8.88 7.198 16.078 16.078 16.078h296.336c9.137 0 16.494-7.622 16.06-16.855-.408-8.648-7.857-15.301-16.515-15.301z" fill="#fff"/></g><g><path d="m426.24 345.29h-299.57c-8.88 0-16.078 7.198-16.078 16.078 0 8.88 7.198 16.078 16.078 16.078h300.024c9.137 0 16.494-7.622 16.06-16.855-.408-8.648-7.857-15.301-16.514-15.301z" fill="#fff"/></g><g fill="#e8d6ff"><path d="m122.822 57.046c0-8.88 7.198-16.078 16.078-16.078h-54.665c-8.88 0-16.078 7.198-16.078 16.078s7.198 16.078 16.078 16.078h54.665c-8.88 0-16.078-7.199-16.078-16.078z"/><path d="m122.822 165.543c0-8.88 7.198-16.078 16.078-16.078h-54.665c-8.88 0-16.078 7.198-16.078 16.078s7.198 16.078 16.078 16.078h54.665c-8.88 0-16.078-7.199-16.078-16.078z"/><path d="m121.75 361.368c0-8.879 7.198-16.078 16.078-16.078h-54.665c-8.88 0-16.078 7.198-16.078 16.078s7.198 16.078 16.078 16.078h54.665c-8.88 0-16.078-7.198-16.078-16.078z"/></g><circle cx="255.264" cy="274.552" fill="#ffc305" r="69.806"/><circle cx="255.264" cy="263.833" fill="#fff" r="69.806"/><g fill="#265cde"><path d="m282.603 310.338-26.266-47.84-26.266 47.84c16.312 8.955 36.218 8.955 52.532 0z"/><path d="m286.849 219.188-31.535 44.544 54.51 2.698c.919-18.587-7.787-36.488-22.975-47.242z"/><path d="m225.823 219.783 31.535 44.544-54.51 2.698c-.918-18.587 7.788-36.488 22.975-47.242z"/></g></g></svg>