<svg id="Layer_1" enable-background="new 0 0 510.512 510.512" height="512" viewBox="0 0 510.512 510.512" width="512" xmlns="http://www.w3.org/2000/svg"><g><path d="m471.474 263.159c0 57.627-14.178 110.652-40.827 152.702-79.306 67.318-295.759 55.926-370.24-.227-32.935-42.014-52.57-94.951-52.57-152.475 0-136.609 110.744-247.353 247.353-247.353 112.722-.001 216.284 110.743 216.284 247.353z" fill="#6e64c3"/><path d="m314.835 23.088c-.007-.01-.016-.021-.023-.031-17.033-4.216-34.756-6.68-52.977-7.161-.518 26.228-1.311 69.146-1.311 86.37 0 25.593 20.748 46.341 46.341 46.341 5.132 0 10.064-.841 14.676-2.384.912-.112 1.867-.33 2.872-.67 43.455-14.673 65.345 12.827 69.365 41.06 2.164 15.2-11.092 27.181-26.325 25.26-.195-.025-.388-.037-.578-.037h-16.22c-7.545 0-13.661-6.116-13.661-13.661v-17.139c0-5.204-4.218-9.422-9.422-9.422h-34.785c-5.204 0-9.422 4.218-9.422 9.422v30.8h-31.035c-6.843 0-12.713 5.353-12.838 12.195-.127 6.97 5.485 12.661 12.426 12.661h1.763v22.213c0 12.553-8.537 23.497-20.712 26.552l-65.877 16.532c-12.175 3.055-20.712 14-20.712 26.552v32.375 67.943c0 15.119 12.256 27.375 27.375 27.375h51.783 184.253c26.352-21.128 48.282-47.536 64.192-77.624v-.014c5.63-10.644 10.504-21.749 14.556-33.242.08-.226.16-.452.239-.679 48.058-137.599-33.034-286.698-173.943-321.587z" fill="#5046af"/><path d="m60.411 415.631c45.28 57.763 115.694 94.88 194.78 94.88s149.5-37.118 194.78-94.88z" fill="#f5415f"/><g><g><g><path d="m422.2 349.523v-32.375c0-12.552-8.537-23.497-20.712-26.552l-65.877-16.532c-12.175-3.055-20.712-14-20.712-26.552v-44.233h-99.537l-.792 44.745c0 17.205-19.798 27.472-31.973 30.528l-34.804 10.047c-29.866 8.621-31.1 50.596-1.741 60.812.215.075.328.112.328.112l183.614 4.302z" fill="#fff"/></g><g><path d="m121.716 355.986 24.663-6.463v-32.375c0-12.553 8.537-23.497 20.712-26.552l65.877-16.532c12.175-3.055 20.712-13.999 20.712-26.552v-44.233h-51.783v44.233c0 12.553-8.537 23.497-20.712 26.552l-65.877 16.532c-12.175 3.055-20.712 13.999-20.712 26.552v32.375z" fill="#e8d6ff"/></g></g><g><g><path d="m125.667 349.523v67.943c0 15.119 12.256 27.375 27.375 27.375h241.783c15.119 0 27.375-12.256 27.375-27.375v-67.943z" fill="#5fd2d0"/></g><g><path d="m146.38 417.466v-67.943h-51.783v67.943c0 15.119 12.256 27.375 27.375 27.375h51.783c-15.119.001-27.375-12.256-27.375-27.375z" fill="#00bec2"/></g></g><g><path d="m285.213 209.563v-39.92c0-5.204-4.218-9.422-9.422-9.422h-34.785c-5.204 0-9.422 4.218-9.422 9.422v39.92z" fill="#f5415f"/><path d="m231.584 211.766v52.623c0 5.204 4.218 9.422 9.422 9.422h34.785c5.204 0 9.422-4.218 9.422-9.422v-52.623z" fill="#cd2846"/></g><g><path d="m371.369 420.276h-149.328c-9.582 0-17.335-6.607-18.853-16.069-1.518-9.46 3.778-18.162 12.879-21.16 19.745-6.504 33.011-24.841 33.011-45.629v-110.84c0-5.148 4.173-9.321 9.321-9.321s9.321 4.173 9.321 9.321v110.84c0 28.855-18.414 54.306-45.82 63.334-.25.083-.337.153-.338.154-.031.112.036.547.161.713.019-.01.124.015.318.015h149.328c5.148 0 9.321 4.173 9.321 9.321s-4.173 9.321-9.321 9.321zm-149.628-18.636h.011z" fill="#265cde"/></g><g><path d="m257.167 50.273c-13.503 16.791-18.712 46.604-5.41 67.287 7.201 11.197 17.959 19.273 29.03 11.879.069-.046.138-.092.206-.138 12.327-8.328 20.431-22.431 20.431-38.427 0-11.984-10.161-32.671-20.967-51.282-.732-1.261-11.139-4.429-23.29 10.681z" fill="#ffdc64"/></g><g><path d="m259.49 90.874c0-11.984 10.161-32.671 20.967-51.282-12.271-21.134-25.373-39.592-25.373-39.592s-46.341 65.281-46.341 90.874 20.748 46.341 46.341 46.341c9.369 0 18.083-2.79 25.374-7.571-12.625-8.278-20.968-22.546-20.968-38.77z" fill="#ffc305"/></g><g fill="#00bec2"><circle cx="155.602" cy="401.361" r="14.499"/><circle cx="386.554" cy="380.648" r="12.428"/><circle cx="303.701" cy="372.363" r="7.25"/></g><path d="m315.094 225.299h-114.959c-6.864 0-12.428-5.564-12.428-12.428 0-6.864 5.564-12.428 12.428-12.428h114.958c6.864 0 12.428 5.564 12.428 12.428 0 6.864-5.564 12.428-12.427 12.428z" fill="#fff"/><path d="m227.062 212.871c0-6.864 5.564-12.428 12.428-12.428h-39.355c-6.864 0-12.428 5.564-12.428 12.428s5.564 12.428 12.428 12.428h39.355c-6.863 0-12.428-5.564-12.428-12.428z" fill="#e8d6ff"/><path d="m360.663 308.152h-72.496c-4.004 0-7.25-3.246-7.25-7.25 0-4.004 3.246-7.25 7.25-7.25h72.496c4.004 0 7.25 3.246 7.25 7.25-.001 4.004-3.247 7.25-7.25 7.25z" fill="#e8d6ff"/></g><path d="" fill="#5046af"/></g></svg>