<svg id="Layer_1" enable-background="new 0 0 506.167 506.167" height="512" viewBox="0 0 506.167 506.167" width="512" xmlns="http://www.w3.org/2000/svg"><g><g><path d="m506.167 253.084c0 139.774-113.309 226.084-253.084 226.084-116.573 0-214.737-51.814-244.115-159.064-5.846-21.346-8.968-43.819-8.968-67.02 0-139.774 113.309-253.084 253.084-253.084s253.083 113.31 253.083 253.084z" fill="#05cdff"/></g><path d="m484.392 242.576c-.12.518-.242 1.037-.366 1.554-3.979 16.664-27.881 16.06-31.157-.757-18.006-92.451-99.427-164.542-199.785-164.542-127.568 0-215.736 112.586-202.232 227.336 2.003 17.023-20.616 24.699-29.507 10.045-.22-.363-.439-.726-.658-1.091-3.829-6.384-13.67-2.2-11.704 4.98 29.189 106.573 126.291 185.071 241.894 186.058 139.504 1.192 255.291-113.566 255.29-253.075 0-2.807-.046-5.604-.137-8.388-.42-12.893-18.722-14.685-21.638-2.12z" fill="#05acff"/><g><circle cx="253.084" cy="253.084" fill="#f5415f" r="193.446"/></g><g><circle cx="253.084" cy="253.084" fill="#fff" r="158.088"/></g><g><g><path d="m253.084 456.53c-112.181 0-203.446-91.266-203.446-203.446s91.265-203.446 203.446-203.446 203.446 91.265 203.446 203.446-91.266 203.446-203.446 203.446zm0-386.892c-101.152 0-183.446 82.294-183.446 183.446s82.293 183.446 183.446 183.446 183.446-82.294 183.446-183.446-82.294-183.446-183.446-183.446z" fill="#cd2846"/></g></g><path d="m343.383 180.487c-24.12-24.119-56.188-37.402-90.299-37.402-5.045 0-10.045.291-14.982.864-17.694 2.055-25.443-21.603-9.898-30.3.512-.286 1.025-.57 1.54-.851 7.036-3.836 5.494-13.149-.359-16.033-76.067 11.436-134.389 77.064-134.389 156.319 0 70.556 46.226 130.307 110.041 150.644 9.83-1.8 14.943-15.595 5.24-22.88-.077-.057-.153-.115-.23-.173-7.018-5.289-7.479-15.6-1.173-21.72 2.075-2.014 4.15-4.171 6.195-6.478l37.958-42.823c.193.003.383.015.577.015 20.04 0 36.285-16.245 36.285-36.285 0-4.549-.845-8.899-2.374-12.912l7.607-23.378c1.876-5.767-.595-12.141-6.088-15.079-4.625-2.474-10.333-1.655-14.349 1.72l-16.287 13.689c-1.57-.207-3.168-.325-4.795-.325-20.04 0-36.285 16.246-36.285 36.285 0 5.408 1.192 10.535 3.313 15.145l-30.466 50.976c-2.858 4.782-5.364 9.749-7.546 14.851-5.851-7.123-11.106-14.753-15.67-22.828l21.951-12.674-9.537-16.518-20.797 12.008c-4.488-10.793-7.825-22.184-9.86-34.022h24.759v-19.074h-26.871c-.136-2.705-.212-5.426-.212-8.164 0-.947.016-1.89.032-2.833 1.672-8.788 4.394-17.29 8.146-25.336l24.804 14.321 9.537-16.518-24.782-14.309c3.593-5.102 7.652-9.931 12.156-14.434 4.503-4.503 9.333-8.562 14.434-12.155l14.308 24.783 16.518-9.537-14.32-24.804c11.363-5.299 23.621-8.586 36.334-9.685v28.591h19.074v-28.591c12.713 1.099 24.971 4.386 36.334 9.685l-14.32 24.804 16.518 9.537 14.308-24.783c5.102 3.593 9.932 7.652 14.435 12.155 4.532 4.532 8.575 9.37 12.137 14.444l-24.765 14.299 9.537 16.518 24.763-14.298c5.362 11.549 8.582 23.853 9.67 36.31h-28.535v19.074h28.535c-1.088 12.458-4.308 24.762-9.67 36.311l-24.763-14.298-9.537 16.518 24.765 14.299c-1.933 2.754-4.008 5.438-6.225 8.042-3.207 3.765-2.939 9.375.557 12.872 3.934 3.934 10.399 3.687 14.006-.549 42.68-50.12 40.35-125.688-6.99-173.03z" fill="#e8d6ff"/><path d="m343.383 162.785c-24.121-24.12-56.188-37.402-90.299-37.402-34.11 0-66.179 13.283-90.298 37.402s-37.403 56.188-37.403 90.298c0 34.111 13.284 66.18 37.403 90.299l13.488-13.488c-4.504-4.503-8.562-9.332-12.155-14.434l24.782-14.309-9.537-16.518-24.804 14.321c-5.299-11.363-8.587-23.622-9.685-36.335h28.591v-19.074h-28.591c1.099-12.713 4.386-24.971 9.685-36.334l24.804 14.321 9.537-16.518-24.782-14.309c3.593-5.102 7.652-9.931 12.155-14.434s9.332-8.562 14.434-12.155l14.308 24.783 16.518-9.537-14.32-24.804c11.363-5.299 23.621-8.586 36.334-9.685v28.591h19.074v-28.591c12.713 1.099 24.971 4.386 36.334 9.685l-14.32 24.804 16.518 9.537 14.308-24.783c5.102 3.593 9.932 7.652 14.435 12.155 4.532 4.532 8.575 9.37 12.137 14.444l-24.765 14.299 9.537 16.518 24.763-14.298c5.362 11.549 8.582 23.853 9.67 36.31h-28.535v19.074h28.535c-1.088 12.458-4.308 24.762-9.671 36.311l-24.763-14.298-9.537 16.518 24.764 14.299c-3.562 5.075-7.605 9.913-12.137 14.444l13.488 13.488c49.79-49.789 49.79-130.804 0-180.595z" fill="#05cdff"/><g><g><path d="m252.083 124.61c-70.362.539-127.606 58.351-127.476 128.715.068 36.907 15.782 70.21 40.846 93.624 3.566 3.331 9.043 3.54 12.904.556 4.877-3.77 5.215-11.007.711-15.216-21.663-20.249-35.051-49.243-34.441-81.303 1.087-57.165 47.034-104.08 104.167-106.295 61.76-2.394 112.768 47.156 112.768 108.394 0 30.972-13.052 58.946-33.94 78.728-4.204 3.982-4.246 10.653.015 14.573l.125.115c3.842 3.534 9.759 3.474 13.551-.113 24.77-23.434 40.248-56.594 40.248-93.303 0-71.177-58.178-129.021-129.478-128.475z" fill="#05acff"/></g></g><g fill="#265cde"><path d=""/><path d="m288.514 201.715c-4.625-2.474-10.333-1.655-14.348 1.72l-30.8 25.886-53.72 89.884c-6.938 11.608-11.921 24.262-14.764 37.456-.522 2.422 1.98 4.371 4.175 3.224 7.621-3.982 22.203-12.715 35.493-27.708l67.164-75.772 12.888-39.611c1.876-5.767-.595-12.14-6.088-15.079z"/></g><path d="m291.368 226.732c-5.703-8.27-14.014-14.594-23.747-17.798l-24.257 20.387-29.295 49.016c6.747 10.402 17.534 17.935 30.145 20.372l37.499-42.305z" fill="#0037bd"/><g><circle cx="253.084" cy="253.084" fill="#ffc305" r="36.285"/></g><g><circle cx="253.084" cy="253.084" fill="#cd2846" r="11.719"/></g></g></svg>