<svg id="Layer_1" enable-background="new 0 0 512 512" height="512" viewBox="0 0 512 512" width="512" xmlns="http://www.w3.org/2000/svg"><g><path d="m463.433 387.458c-14.47 21.673-32.247 40.951-52.609 57.112l-285.299 17.068c-30.691-18.894-56.976-44.253-76.957-74.18l-1.033-5.311-3.556-1.822c-23.596-38.083-37.218-82.994-37.218-131.086 0-137.651 111.588-249.239 249.239-249.239 115.057 0 211.895 77.962 240.588 183.942 5.635 20.811-6.746 163.961-33.155 203.516z" fill="#ffdc64"/><path d="m422.802 356.144v31.307h40.621c26.41-39.555 41.816-87.082 41.816-138.212 0-22.595-3.015-44.48-8.65-65.292l-110.746-111.766-2.549 1.972.769-1.972h-51.659l-7.433 25.958h-.237l7.395-25.958c-32.679 12.486-67.631 13.587-105.518 0l7.318 25.958h-.237l-7.356-25.958h-51.659l.769 1.972-2.549-1.972-72.015 72.685-52.044 52.528v158.75h-4.846v24.172c1.49 2.405 3.017 4.785 4.586 7.135h87.247v-31.307h-4.546v-111.138l16.645-17.094v136.895 22.644 5.06 76.677 4.701c32.694 15.757 69.353 24.588 108.075 24.588 58.505 0 112.294-20.167 154.816-53.916v-79.754-136.895l16.645 17.094v111.138z" fill="#ffc305"/><g><g><path d="m123.923 66.832 52.034 445.168h39.972l5.217-2.087 5.218 2.087h160.451v-445.168z" fill="#05cdff"/><g><path d="m215.929 162.566h10.436v349.434h-10.436z" fill="#05acff"/></g><path d="m123.923 66.832v266.668l12.201 67.752-12.201 36.63v74.118h52.034v-445.168z" fill="#05acff"/></g><g><g><path d="m148.896 40.874-72.015 72.685-6.562 135.68 6.562 97.451h30.396v-132.99l113.869-116.941z" fill="#05cdff"/></g><g><path d="m76.881 113.559-52.044 52.529v180.602h52.044z" fill="#05acff"/></g><g><path d="m361.842 40.874-72.251 55.885 113.869 116.941v132.99h82.441v-180.602z" fill="#05cdff"/></g></g><path d="m202.61 40.874 52.484 186.171 53.034-186.171c-32.679 12.487-67.632 13.587-105.518 0z" fill="#265cde"/><path d="m307.223 42.853c-9.555 15.565-15.338 33.211-25.801 48.241-9.045 12.993-20.298 24.465-35.912 29.031-6.681 1.954-13.48 2.299-20.153 1.44l29.736 105.479 52.852-185.534c-.216.457-.454.906-.722 1.343z" fill="#0037bd"/><g fill="#fff"><g><path d="m202.335 40.874h-51.659l38.095 97.679 66.323 88.492z"/><path d="m308.402 40.874h51.66l-38.095 97.679-66.873 88.492z"/></g><path d="m172.558 437.882h-48.635v-76.677l3.131-2.53-3.131-2.53v-22.645h71.452v22.644l-2.087 2.662 2.087 2.399v53.86c0 12.601-10.215 22.817-22.817 22.817z"/><path d="m386.815 437.882h-48.635c-12.601 0-22.817-10.215-22.817-22.817v-53.86l2.087-2.53-2.087-2.53v-22.645h71.452v22.644l-2.087 2.53 2.087 2.53z"/><path d="m19.99 324.838h91.833v31.307h-91.833z"/><path d="m398.8 324.838h91.833v31.307h-91.833z"/></g><path d="m123.923 356.144h71.452v11.135h-71.452z" fill="#05acff"/><path d="m315.396 356.145h71.385v11.135h-71.385z" fill="#05acff"/><path d="m340.823 274.686c-17.059 0-30.888-13.829-30.888-30.888v-43.756h61.777v43.756c0 17.059-13.829 30.888-30.889 30.888z" fill="#05acff"/><path d="m347.665 177.893h9.985v65.287h-9.985z" fill="#f5415f"/></g></g></svg>