<svg id="Layer_1" enable-background="new 0 0 511.987 511.987" height="512" viewBox="0 0 511.987 511.987" width="512" xmlns="http://www.w3.org/2000/svg"><g><path d="m511.89 262.541c-3.921 130.372-113.006 225.952-252.51 225.952-75.726 0-143.67-13.229-189.966-66.011-38.991-44.455-62.628-102.711-62.628-166.489 0-43.217 10.853-83.899 29.983-119.469l79.655-88.807c40.65-27.955 89.892-44.317 142.956-44.317 91.04 0 170.831 48.163 215.282 120.4 23.663 38.454 38.685 90.299 37.228 138.741z" fill="#78e9e1"/><path d="m443.375 310.648c-.502.816-1.008 1.63-1.52 2.441-21.046 33.377-71.427 27.543-84.596-9.653-16.056-45.351-33.436-94.475-33.436-94.475v-57.855c6.154 0 11.144-4.989 11.144-11.144v-19.907c0-6.154-4.989-11.144-11.144-11.144h-26.499v-9.074c0-28.769-22.931-52.762-51.699-53.013-29.486-.257-53.556 23.655-53.556 53.082v111.977c0 8.669-6.648 16.139-15.307 16.566-9.255.456-16.93-6.942-16.93-16.099v-111.553c0-26.11-18.559-48.399-43.399-53.066-24.344 16.742-45.613 37.631-62.77 61.663v102.065c0 8.962-7.308 16.019-16.27 16.12-7.451.084-13.422 6.332-13.052 13.884.35 7.143 6.548 12.634 13.698 12.552 23.24-.266 42.063-19.254 42.063-42.556v-110.946c0-14.906 12.198-27.498 27.102-27.246 14.482.245 26.187 12.102 26.187 26.641v111.645c0 23.24 18.299 42.795 41.532 43.345 23.934.566 43.584-18.738 43.584-42.547v-111.865c0-13.335 9.583-25.005 22.777-26.939 15.896-2.329 29.598 9.989 29.598 25.448v9.918h-34.362v42.195h7.865v57.856l-47.646 134.741s-22.954 63.673-33.307 91.982h273.442c26.065-25.748 46.56-57.121 59.51-92.151.832-2.244 1.631-4.48 2.399-6.709 12.001-34.866-36.099-57.59-55.408-26.179z" fill="#00bec2"/><path d="m69.424 422.472c46.296 52.782 114.229 86.115 189.956 86.115s143.659-33.332 189.955-86.115z" fill="#5046af"/><g><g><path d="m347.143 331.011-47.646-134.741v-86.31h-40.306l-.869 87.212-25.74 133.839 78.059 3.746z" fill="#fff"/></g><g><path d="m267.421 109.96h-47.361v86.31l-47.646 134.741 30.93 5.593 29.238-5.593 34.839-98.524z" fill="#e8d6ff"/></g><g><path d="m384.563 434.133c-5.008-12.399-26.911-73.403-37.42-103.122h-114.561l-43.816 98.94c-8.078 18.24 3.969 39.057 23.809 41.141l8.294.871h137.989c20.084.001 32.764-20.356 25.705-37.83z" fill="#ffdc64"/></g><path d="m195.182 434.083c8.386-25.578 12.162-33.778 37.4-103.072h-60.168s-31.559 87.545-37.36 102.974c-6.66 17.716 5.504 37.979 25.646 37.979h60.168c-20.105 0-31.566-19.947-25.686-37.881z" fill="#ffc305"/><g><path d="m259.778 323.013c-7.301 0-13.22-5.919-13.22-13.22v-223.491c0-14.189-11.543-25.732-25.73-25.732-14.692 0-26.645 11.953-26.645 26.645v112.443c0 23.468-19.092 42.559-42.558 42.559-23.467 0-42.559-19.092-42.559-42.559v-112.443c0-14.692-11.952-26.645-26.644-26.645s-26.644 11.954-26.644 26.645v111.552c0 23.468-19.092 42.559-42.558 42.559-7.301 0-13.22-5.919-13.22-13.22s5.919-13.22 13.22-13.22c8.887 0 16.118-7.231 16.118-16.119v-111.552c0-29.271 23.814-53.085 53.085-53.085 29.27 0 53.084 23.814 53.084 53.085v112.443c0 8.888 7.231 16.119 16.119 16.119 8.887 0 16.118-7.231 16.118-16.119v-112.443c0-29.271 23.814-53.085 53.085-53.085 28.767 0 52.17 23.405 52.17 52.172v223.49c-.001 7.302-5.92 13.221-13.221 13.221z" fill="#265cde"/></g><g><path d="m63.664 37.57c-14.293 5.417-25.654 16.835-30.993 31.166-3.18 8.535 3.111 17.628 12.218 17.628h.366c5.514 0 10.311-3.513 12.285-8.661 2.68-6.99 8.224-12.572 15.188-15.302 5.081-1.992 8.517-6.773 8.517-12.23v-.362c.001-9.088-9.084-15.459-17.581-12.239z" fill="#3176ff"/><path d="m202.455 37.424c-13.61 5.035-24.609 15.495-30.356 28.744-3.723 8.584 2.492 18.182 11.849 18.182h.678c5.184 0 9.735-3.175 11.839-7.913 2.909-6.551 8.385-11.718 15.144-14.218 4.979-1.842 8.178-6.725 8.178-12.034v-.572c0-8.966-8.923-15.299-17.332-12.189z" fill="#3176ff"/><g fill="#0037bd"><path d="m29.338 191.511v7.256c0 8.948-7.322 16.019-16.27 16.12-7.451.084-13.422 6.332-13.052 13.885.35 7.142 6.547 12.633 13.697 12.552 23.24-.266 42.064-19.254 42.064-42.556v-7.256c0-7.301-5.919-13.22-13.22-13.22-7.3-.001-13.219 5.918-13.219 13.219z"/><path d="m178.08 199.375c-5.1-.09-9.827 2.737-12.09 7.308-2.528 5.108-7.559 8.779-13.554 9.075-9.255.456-16.93-6.942-16.93-16.099v-8.148c0-7.301-5.919-13.22-13.22-13.22-7.301 0-13.22 5.919-13.22 13.22v7.35c0 23.24 18.299 42.795 41.533 43.345 17.142.406 32.086-9.382 39.188-23.717 4.314-8.709-1.989-18.943-11.707-19.114z"/><path d="m259.778 271.19c-7.301 0-13.22-5.919-13.22-13.22v51.822c0 7.301 5.919 13.22 13.22 13.22s13.22-5.919 13.22-13.22v-51.822c0 7.301-5.919 13.22-13.22 13.22z"/></g></g><g><path d="m212.195 96.22h61.68v42.195h-61.68z" fill="#e8d6ff"/></g><g><path d="m310.641 138.415h-33.557c-11.652 0-21.097-9.446-21.097-21.097 0-11.652 9.446-21.097 21.097-21.097h33.557z" fill="#fff"/></g></g><g fill="#ffc305"><circle cx="212.599" cy="392.011" r="15.429"/><circle cx="287.366" cy="410.418" r="15.429"/><circle cx="271.183" cy="363.847" r="7.715"/></g></g></svg>