<svg id="Layer_1" enable-background="new 0 0 511.622 511.622" height="512" viewBox="0 0 511.622 511.622" width="512" xmlns="http://www.w3.org/2000/svg"><g><path d="m511.622 255.811c0 13.008-.971 25.789-2.844 38.275-18.473 123.124-129.298 185.039-257.571 185.039-127.792 0-229.094-61.208-248.152-183.657-2.011-12.924-3.055-26.169-3.055-39.657 0-141.281 114.53-255.811 255.811-255.811s255.811 114.53 255.811 255.811z" fill="#265cde"/><g><g><path d="m255.811 511.622c128.651 0 235.104-94.974 253.112-218.63-.11.356-.222.711-.333 1.066-9.303 29.529-52.968 22.687-52.968-8.272v-101.334c0-13.655-6.594-26.47-17.705-34.409l-26.098-18.646v-19.149h11.321v-42.426c0-6.133-4.972-11.105-11.105-11.105h-100.582c-6.133 0-11.105 4.972-11.105 11.105v42.427h11.321v19.149l-26.098 18.646c-11.111 7.938-17.705 20.753-17.705 34.408v245.565c0 9.066-7.35 16.416-16.416 16.416-9.066 0-16.416-7.35-16.416-16.416v-178.937c0-13.655-6.594-26.47-17.705-34.409l-26.098-18.646v-19.149h11.321v-42.426c0-6.133-4.972-11.105-11.105-11.105h-100.583c-6.133 0-11.105 4.972-11.105 11.105v42.427h11.321v19.149l-26.098 18.646c-11.111 7.938-17.705 20.753-17.705 34.409v38.243c0 25.593-36.001 31.392-43.919 7.055-.099-.304-.197-.607-.295-.911 19.058 122.447 124.956 216.154 252.748 216.154z" fill="#0037bd"/><g><g><path d="m189.566 205.567-26.098-18.646v-42.803h-91.562l.367 293.409c.021 17.098 13.888 30.947 30.985 30.947h1.975 71.843c16.676 0 30.194-13.518 30.194-30.194v-198.305c.001-13.655-6.593-26.47-17.704-34.408z" fill="#5fd2d0"/><path d="m75.039 438.279v-198.304c0-13.655 6.594-26.47 17.705-34.409l13.156-9.4c8.122-5.803 12.942-15.17 12.942-25.152v-26.898h-55.523v42.803l-26.099 18.648c-11.111 7.938-17.705 20.753-17.705 34.408v198.304c0 16.676 13.519 30.194 30.194 30.194h55.523c-16.674 0-30.193-13.518-30.193-30.194z" fill="#00bec2"/><path d="m163.684 114.24h-56.163l-12.435 26.766 12.435 26.766h1.11l5.01-2.221 4.768 2.221h26.221l5.016-2.221 5.016 2.221h20.127v-42.427c0-6.133-4.972-11.105-11.105-11.105z" fill="#ffdc64"/><path d="m108.632 114.24h-45.529c-6.133 0-11.105 4.972-11.105 11.105v42.427h20.127l5.016-2.221 5.016 2.221h26.475z" fill="#ffc305"/><path d="m207.271 404.463h-56.092l-28.047-74.318 28.047-60.35h56.092z" fill="#ffdc64"/><path d="m95.086 269.795h56.093v134.668h-56.093z" fill="#ffc305"/></g><g><path d="m404.602 138.938-26.098-18.646v-42.803h-93.609c.023.39.036.78.036 1.171v356.024c0 18.661 15.128 33.789 33.789 33.789h1.549 71.843c16.676 0 30.194-13.518 30.194-30.194v-264.932c.001-13.655-6.593-26.47-17.704-34.409z" fill="#fff"/><path d="m290.075 438.279v-264.932c0-13.655 6.594-26.47 17.705-34.409l13.533-9.669c7.886-5.634 12.565-14.729 12.565-24.421v-27.36h-55.523v42.803l-26.098 18.646c-11.111 7.938-17.705 20.753-17.705 34.408v264.932c0 16.676 13.519 30.194 30.194 30.194h55.523c-16.676.002-30.194-13.516-30.194-30.192z" fill="#e8d6ff"/><path d="m378.72 47.612h-56.163l-12.435 26.766 12.435 26.766h67.267v-9.84l-11.105-6.997 11.105-6.818v-18.772c.001-6.133-4.971-11.105-11.104-11.105z" fill="#f5415f"/><path d="m422.307 404.463h-56.093l-16.241-76.432 16.241-58.236h56.093z" fill="#f5415f"/><path d="m310.122 269.795h56.093v134.668h-56.093z" fill="#cd2846"/></g><g fill="#f5415f"><path d="m82.157 167.772h-10.032v-36.773c0-2.77 2.246-5.016 5.016-5.016 2.77 0 5.016 2.246 5.016 5.016z"/><path d="m118.409 167.772h-10.032v-36.773c0-2.77 2.246-5.016 5.016-5.016 2.77 0 5.016 2.246 5.016 5.016z"/><path d="m154.662 167.772h-10.032v-36.773c0-2.77 2.246-5.016 5.016-5.016 2.77 0 5.016 2.246 5.016 5.016z"/></g></g></g><path d="m123.132 290.463h75.302v13.195h-75.302z" fill="#cd2846"/><path d="m123.132 315.054h75.302v68.23h-75.302z" fill="#cd2846"/><g fill="#5fd2d0"><path d="m335.786 290.463h86.521v10.196h-86.521z"/><path d="m335.786 315.054h86.521v10.196h-86.521z"/><path d="m335.786 339.645h86.521v43.639h-86.521z"/></g><path d="m389.825 77.489h-57.428c-5.434 0-9.84-4.405-9.84-9.84v-20.037h-44.419c-6.133 0-11.105 4.972-11.105 11.105v42.427h55.523c0-5.434 4.405-9.84 9.84-9.84h57.428v-13.815z" fill="#cd2846"/></g></g></svg>