<svg id="Layer_1" enable-background="new 0 0 510 510" height="512" viewBox="0 0 510 510" width="512" xmlns="http://www.w3.org/2000/svg"><g><path d="m255 .007c-140.833 0-255 114.167-255 255 0 61.614 21.852 118.125 58.23 162.204l358.974 34.567c56.673-46.771 92.796-117.552 92.796-196.771 0-140.832-114.167-255-255-255z" fill="#f5415f"/><path d="m466.658 195.336-29.486-29.486-28.083-28.084h-56.266v19.571l13.652 13.652-27.531 27.531-38.926-38.926-19.171 19.171 10.015 10.015-24.465 24.465-8.484 8.484-15.961 15.961-8.484 8.484-15.961 15.961-8.484 8.484-15.961 15.961-8.484 8.484-24.447 24.447-10.767 10.767-5.194 5.194-8.484 8.484-14.883 14.883c-5.858 5.858-5.858 15.355 0 21.213l14.336 14.336-3.507 3.507c-14.374-6.171-28.066-13.625-40.933-22.218-24.833-16.584-53.723 14.92-35.095 38.259 14.105 17.672 30.51 33.428 48.761 46.815l-.003.003c6.067 4.449 12.33 8.647 18.788 12.556l.008-.009c7.968 4.823 16.661 9.467 25.61 13.575 34.769 15.957 72.514 23.811 111.251 23.065 57.778-1.126 112.287-21.621 156.468-58.274 41.717-34.608-4.865-99.166-51.049-70.791-1.075.66-2.156 1.313-3.241 1.958-22.914 13.615-46.437-16.66-27.59-35.507l17.051-17.051 40.353-40.353 9.985 9.985 19.171-19.171-37.625-37.625 27.531-27.531 28.275 28.275 27.312-27.312c5.856-5.853 5.856-15.35-.002-21.208z" fill="#cd2846"/><g><g><g><path d="m313.952 264.528 56.58-56.58 42.058-62.628-34.311-34.311-108.923 108.923z" fill="#265cde"/></g><g><path d="m370.532 207.948 52.343-52.343-44.596-44.596z" fill="#0037bd"/></g><g><path d="m142.208 289.258 10.766-10.767 7.076-2.109 1.41-6.376 15.961-15.961 6.047-2.826 2.438-5.659 15.961-15.961 6.605-2.644 1.879-5.84 15.961-15.962 6.53-3.255 1.955-5.229 15.961-15.961 6.613-2.229 1.872-6.256 26.903-26.903 65.792 65.791-38.339 59.307-39.808 18.84-43.667 4.831z" fill="#fff"/></g><g><path d="m351.938 211.111 35.355 35.356-42.791 42.791-73.829 3.118z" fill="#e8d6ff"/></g><g><path d="m459.503 175.527-27.312 27.312-40.895-40.895 37.998-37.839 30.209 30.209c5.858 5.858 5.858 15.356 0 21.213z" fill="#05acff"/></g><g><path d="m368.191 194.556h27.111v64.142h-27.111z" fill="#c6b0ea" transform="matrix(.707 -.707 .707 .707 -48.439 336.313)"/></g><g><path d="m115.223 344.895h72.495v72.495h-72.495z" fill="#fff" transform="matrix(-.707 .707 -.707 -.707 528.084 543.546)"/></g><g><path d="m100.209 381.143 27.775-27.775-14.336-14.336c-5.858-5.858-5.858-15.355 0-21.213l14.883-14.883 9.212-.281-.727-8.204 5.194-5.194h131.583l-94.548 115.373-27.775 27.775z" fill="#ffdc64"/></g><g><path d="m273.791 289.258h70.711l-129.708 129.708c-5.858 5.858-15.355 5.858-21.213 0l-24.749-24.749z" fill="#ffc305"/></g><g><path d="m38.931 509.353 94.744-94.744-15.672-15.671-110.3 110.3z" fill="#05cdff"/></g><g><path d="m90.508 430.215c9.835 0 13.429 9.651 10.818 16.744l32.349-32.349-15.672-15.672-32.14 32.14c1.356-.544 2.897-.863 4.645-.863z" fill="#05acff"/></g><g><g><path d="m139.173 293.558h11.999v35.073h-11.999z" fill="#265cde" transform="matrix(.707 -.707 .707 .707 -177.457 193.77)"/><g><path d="m163.618 269.112h12v35.074h-12z" fill="#265cde" transform="matrix(.707 -.707 .707 .707 -153.021 203.933)"/></g><g fill="#265cde"><path d="m188.064 244.666h11.999v35.073h-11.999z" transform="matrix(.707 -.707 .707 .707 -128.565 214.021)"/><path d="m212.51 220.221h11.999v35.073h-11.999z" transform="matrix(.707 -.707 .707 .707 -104.12 224.147)"/><path d="m236.956 195.775h11.999v35.074h-11.999z" transform="matrix(.707 -.707 .707 .707 -79.674 234.273)"/><path d="m261.401 171.329h11.999v35.073h-11.999z" transform="matrix(.707 -.707 .707 .707 -55.228 244.402)"/></g></g></g><g><path d="m432.821 162.277c-10.116 12.035-28.368 12.825-39.485 1.708l-62.292-62.292 27.312-27.312c5.858-5.858 15.355-5.858 21.213 0l51.685 51.685c9.837 9.836 10.517 25.562 1.567 36.211z" fill="#05cdff"/></g><g><path d="m372.161 217.042c-5.294 5.294-13.877 5.294-19.171 0l-79.299-79.299 19.171-19.171 79.299 79.299c5.294 5.294 5.294 13.877 0 19.171z" fill="#e8d6ff"/></g></g></g></g></svg>