<svg id="Layer_1" enable-background="new 0 0 512 512" height="512" viewBox="0 0 512 512" width="512" xmlns="http://www.w3.org/2000/svg"><g><g><path d="m512 256c0 141.385-117.849 236.725-259.234 236.725-68.726 0-127.892-7.806-173.878-51.88-48.618-46.596-78.888-112.186-78.888-184.845 0-141.385 114.615-256 256-256s256 114.615 256 256z" fill="#05cdff"/></g><path d="m511.983 253.001c-.216-18.792-26.838-22.334-31.769-4.199-29.23 107.505-127.297 188.959-247.129 188.959-46.156 0-89.457-12.216-126.849-33.591-23.513-13.441-46.895 17.928-27.342 36.67 46.467 44.54 109.696 71.729 179.281 71.151 140.862-1.169 253.825-115.124 253.825-255.992 0-1-.006-2-.017-2.998z" fill="#05acff"/><g><g><path d="m433.332 204.249c-25.822-72.643-95.164-124.662-176.666-124.662s-150.844 52.019-176.667 124.662h-10.79l10.787 62.795c0 103.529 78.842 177.565 160.086 186.724 4.075.459 9.386.61 15.051.549.643-.007 1.196.196 1.847.184 11.464-.217 24.037-1.452 30.47-2.515 88.884-14.685 156.673-91.897 156.673-184.941v-62.795h-10.791z" fill="#265cde"/></g><path d="m443.457 220.945c.001-103.835-83.622-187.458-187.457-187.458-103.53 0-187.457 83.927-187.457 187.457 0 5.377.239 10.697.683 15.959v28.119h.008c-1.102 105.22 83.966 189.478 187.432 189.478h.315c5.619-.009 6.89-7.93 1.562-9.718-3.354-1.126-6.666-2.344-9.933-3.652-17.4-6.965-12.188-32.813 6.554-32.731.278.001.557.002.836.002 103.529 0 187.456-83.927 187.457-187.456z" fill="#0037bd"/><circle cx="256.666" cy="204.204" fill="#fff" r="187.457"/><g fill="#e8d6ff"><ellipse cx="301.585" cy="70.163" rx="18.393" ry="18.393" transform="matrix(.973 -.23 .23 .973 -8.052 71.167)"/><ellipse cx="311.301" cy="341.291" rx="28.108" ry="28.108" transform="matrix(.383 -.924 .924 .383 -123.14 498.289)"/></g><path d="m405.224 180.87c-6.072-.051-11.506 2.662-15.141 6.948h-24.308c-.213-13.635-6.844-25.78-16.996-33.53l9.887-13.846c10.277-.74 18.369-9.369 18.206-19.873-.158-10.197-8.375-18.751-18.559-19.292-11.329-.602-20.703 8.406-20.703 19.604 0 1.589.209 3.125.565 4.605l-14.287 20.009c-.373-.01-.745-.029-1.12-.029h-57.019v-23.189c4.286-3.635 6.999-9.068 6.948-15.14-.086-10.259-8.334-18.901-18.579-19.436-11.321-.591-20.685 8.413-20.685 19.605 0 6.004 2.702 11.37 6.949 14.971v23.189h-57.019c-.408 0-.811.02-1.217.031l-13.745-19.25c.485-1.708.761-3.503.761-5.366 0-.747-.042-1.485-.123-2.211-1.715-15.288 2.586-30.687 13.056-41.958.355-.382.711-.762 1.069-1.141 16.119-17.066-5.095-43.176-25.046-30.805-53.017 32.873-88.907 91.592-88.907 159.482 0 97.881 74.571 176.615 167.44 186.462 9.534 1.011 13.151-12.128 4.445-16.142-.264-.122-.527-.244-.79-.366-13.726-6.406-17.269-24.463-6.712-35.325.094-.096.187-.193.281-.29 5.432-5.657 5.897-14.676.704-20.553-5.92-6.699-16.154-6.759-22.164-.415-8.884 9.382-21.602 12.992-33.439 10.724-3.834-4.337-7.47-8.853-10.894-13.533-5.747-7.856-6.468-18.136-2.504-27.027.975-2.187 1.553-4.562 1.666-7.019.235-5.083 1.935-9.989 4.892-14.13l.001-.001c4.964-6.952 12.976-11.082 21.518-11.09 8.21-.008 22.213-.024 46.728-.005v21.96c-4.309 3.63-7.041 9.074-6.997 15.159.073 10.268 8.325 18.927 18.58 19.462 11.321.591 20.685-8.414 20.685-19.605 0-5.98-2.682-11.326-6.9-14.927v-22.049h57.019c1.05 0 2.089-.044 3.121-.119l13.625 19.082c-.877 3.122-1.063 6.533-.123 10.12 2.155 8.222 9.409 14.328 17.896 14.796 11.347.625 20.744-8.391 20.744-19.602 0-10.115-7.652-18.437-17.482-19.509l-10.451-14.637c6.218-5.139 10.986-11.979 13.559-19.795.024-.073.042-.158.062-.238 1.272-3.938 1.992-8.117 2.061-12.449h24.306c3.601 4.246 8.968 6.948 14.971 6.948 11.191 0 20.196-9.364 19.605-20.685-.538-10.246-9.181-18.494-19.44-18.58z" fill="#e8d6ff"/><g><g><g><g><circle cx="301.287" cy="56.106" fill="#5fd2d0" r="18.393"/></g></g><g><g><circle cx="311.003" cy="324.234" fill="#00bec2" r="28.108"/></g></g></g><g><g><path d="m363.358 206.815c.346-1.053.295-2.873.023-5.085-1.556-12.653-9.457-23.634-20.768-29.512-24.211-12.583-67.899-33.579-89.847-33.579-21.985 0-66.013 21.068-90.335 33.644-11.518 5.955-19.359 17.336-20.428 30.258-.153 1.845-.132 3.354.171 4.275 5.654 17.176 21.884 29.664 40.889 29.664h139.406c19.005 0 35.235-12.489 40.889-29.665z" fill="#ffdc64"/></g><g><g><g><path d="m354.911 194.129h47.743c7.005 0 12.684-5.679 12.684-12.684s-5.679-12.684-12.684-12.684h-47.743z" fill="#ffc305"/></g></g></g><g><g><g><path d="m145.305 168.761h-39.619c-7.005 0-12.684 5.679-12.684 12.684s5.679 12.684 12.684 12.684h39.619z" fill="#ffc305"/></g></g></g><g><g><path d="m252.766 287.577c-7.005 0-12.684-5.679-12.684-12.684v-58.614h25.368v58.614c0 7.006-5.679 12.684-12.684 12.684z" fill="#ffdc64"/></g></g><g><g><g><path d="m240.082 145.519v-58.614c0-7.005 5.679-12.684 12.684-12.684s12.684 5.679 12.684 12.684v58.614z" fill="#ffc305"/></g></g></g><g><g><g><path d="m313.002 141.265 34.061-47.702c4.071-5.701 11.992-7.023 17.693-2.952s7.023 11.992 2.952 17.693l-34.061 47.702z" fill="#ffc305"/></g></g></g><g><g><path d="m313.002 218.731 20.645-14.741 34.061 47.702c4.071 5.701 2.749 13.622-2.952 17.693s-13.622 2.749-17.693-2.952z" fill="#ffdc64"/></g></g><g><g><g><path d="m137.726 108.304c-4.071-5.701-2.749-13.622 2.952-17.693s13.622-2.749 17.693 2.952l34.061 47.702-20.645 14.741z" fill="#ffc305"/></g></g></g><g><g><path d="m140.678 269.385c-5.701-4.071-7.023-11.992-2.952-17.693l34.061-47.702 20.645 14.741-34.061 47.702c-4.071 5.701-11.992 7.023-17.693 2.952z" fill="#ffdc64"/></g></g><g><circle cx="356.943" cy="101.824" fill="#ffdc64" r="19.632"/></g><g><circle cx="404.757" cy="181.444" fill="#ffdc64" r="19.632"/></g><g><circle cx="252.766" cy="88.249" fill="#ffdc64" r="19.632"/></g><g><circle cx="149.23" cy="101.824" fill="#ffc305" r="19.632"/></g><g><circle cx="105.918" cy="181.445" fill="#ffc305" r="19.632"/></g><g><circle cx="147.335" cy="260.757" fill="#ffc305" r="19.632"/></g><g><circle cx="252.717" cy="273.456" fill="#ffc305" r="19.632"/></g><g><circle cx="358.099" cy="260.757" fill="#ffc305" r="19.632"/></g><g><path d="m171.901 215.236c10.583.505 19.863-7.724 20.538-18.298.009-.135.016-.269.022-.403.475-10.811 9.262-19.379 20.083-19.38h1.114c8.213-.001 15.837 4.011 20.74 10.599 3.568 4.793 9.271 7.898 15.709 7.898 6.723 0 12.645-3.386 16.17-8.544 4.356-6.374 11.774-9.962 19.495-9.962h36.696c19.005 0 35.224 12.493 40.878 29.668 1.386-4.211 2.147-8.698 2.147-13.357v-24.02c0-23.664-19.361-43.025-43.025-43.025h-139.405c-23.664 0-43.025 19.361-43.025 43.025.478 20.859-1.259 27.033 2.147 37.378.025-.075.05-.15.075-.225 2.034-6.066 10.397-6.844 13.556-1.28 3.162 5.566 8.996 9.587 16.085 9.926z" fill="#ffc305"/></g><g><circle cx="178.222" cy="186.711" fill="#ffe58a" r="20.101"/></g><g><circle cx="252.741" cy="161.639" fill="#ffdc64" r="19.608"/></g><g><circle cx="311.351" cy="212.998" fill="#ffc305" r="19.608"/></g><g><circle cx="320.199" cy="201.332" fill="#ffe58a" r="19.608"/></g></g></g><g><path d="m185.882 340.995c-16.424 0-32.876-6.028-45.715-18.186-6.016-5.696-6.274-15.189-.578-21.205 5.695-6.016 15.189-6.275 21.205-.578 14.618 13.843 37.775 13.212 51.618-1.407 5.697-6.014 15.19-6.273 21.206-.577 6.015 5.696 6.273 15.19.577 21.206-13.06 13.79-30.67 20.747-48.313 20.747z" fill="#f5415f"/></g><g><circle cx="302.398" cy="314.02" fill="#5fd2d0" r="14.951"/></g></g></g></svg>