<svg id="Layer_1" enable-background="new 0 0 512 512" height="512" viewBox="0 0 512 512" width="512" xmlns="http://www.w3.org/2000/svg"><g><path d="m512 256c0 31.202-5.582 61.1-15.802 88.75-36.09 97.641-127.229 142.116-237.413 142.116-70.563 0-137.243-3.414-183.55-49.592-46.476-46.347-75.235-110.452-75.235-181.274 0-141.385 114.615-256 256-256s256 114.615 256 256z" fill="#ffdc64"/><path d="m478.221 335.992c-.235.386-.47.772-.707 1.157-6.648 10.825-23.322 6.128-23.322-6.575v-51.53c0-17.305-10.688-32.811-26.86-38.969l-68.234-25.981c.072-1.464.112-2.937.112-4.419 0-8.788-1.302-17.267-3.694-25.277-.027-.106-.047-.224-.077-.323-1.794-5.926-4.204-11.582-7.139-16.909l67.365-72.628c4.885-5.267 5.621-12.888 2.384-18.875l9.425-9.74c-8.692-7.847-17.925-15.105-27.637-21.714l-7.326 7.898c-6.163-2.629-13.566-1.292-18.384 3.903l-67.608 72.89c-10.876-4.794-22.899-7.464-35.548-7.464-39.83 0-73.496 26.39-84.467 62.638-.165.546-.338 1.164-.507 1.841-2.112 7.561-3.264 15.523-3.264 23.759 0 6.3.672 12.442 1.928 18.368l-40.469 24.59 4.374 7.199-15.955 9.695 13.845 22.784 15.955-9.695 4.405 7.249 37.285-22.655c8.576 9.958 19.329 17.979 31.532 23.321v49.238h13.761v21.783h43.155v-21.783h13.761v-49.239c13.101-5.735 24.537-14.554 33.394-25.548l47.277 18.001c1.919.731 3.676 1.739 5.232 2.969 1.944 1.537 3.574 3.42 4.814 5.54 1.736 2.968 2.707 6.399 2.707 9.993v110.344h-41.011c2.862-1.502 4.817-4.499 4.817-7.955v-3.815c0-4.962-4.022-8.984-8.984-8.984h-147.504c-5.93 0-11.056 4.579-11.261 10.506-.157 4.533 2.463 8.463 6.286 10.249h-9.715v27.229h86.162c5.469 0 10.289 4.003 10.872 9.441.643 5.996-3.745 11.194-9.595 11.736-7.938.735-15.977 1.116-24.107 1.116-58.614 0-112.695-19.388-156.187-52.099-18.366-13.814-40.543 11.794-24.271 28.023 46.283 46.16 110.154 74.725 180.764 74.725 3.728 0 7.433-.097 11.123-.255l151.794-58.268c34.737-28.691 61.542-66.133 77.277-108.728 4.214-11.409-11.661-19.153-17.973-8.757z" fill="#ffc305"/><g><path d="m102.169 241.658h49.528v26.661h-49.528z" fill="#0037bd" transform="matrix(.855 -.519 .519 .855 -113.957 102.992)"/></g><path d="m393.568 227.005-146.67-55.847-19.379 46.536 129.001 49.849c7.678 2.924 12.753 10.286 12.753 18.502l1.054 126.327h-81.957l-31.37 99.615c62.213-.238 119.186-22.67 163.429-59.788v-186.225c-.001-17.305-10.689-32.812-26.861-38.969z" fill="#05cdff"/><path d="m361.91 251.894-127.299-48.471-7.093 18.628 125.699 47.861c7.678 2.924 12.753 10.286 12.753 18.502v123.958h-31.657v.001h-78.618v99.623c.102 0 .204.004.306.004 48.612 0 94.058-13.55 132.77-37.078v-184.059c-.001-17.305-10.689-32.811-26.861-38.969z" fill="#05acff"/><path d="m444.61 429.08c-10.236-15.06-26.257-25.859-44.876-29.207v11.955h-10.964v-13.036c-.449-.009-.894-.034-1.345-.034-7.493 0-14.7 1.208-21.456 3.413v9.657h-7.247c2.862-1.502 4.817-4.499 4.817-7.955v-.872c-26.397 9.724-45.225 35.096-45.225 64.869 0 12.388 3.279 24.003 8.99 34.056 21.829-6.318 42.461-15.452 61.466-27.003v-9.874l30.147-11.572c9.119-7.532 17.699-15.69 25.693-24.397z" fill="#05cdff"/><g><path d="m201.869 256h70.677v70.698h-70.677z" fill="#265cde"/></g><g><path d="m215.63 277.783h43.155v70.698h-43.155z" fill="#0037bd"/></g><g><path d="m201.869 256h70.677v70.698h-70.677z" fill="#265cde"/></g><g><path d="m291.72 45.053h138.059v34.742h-138.059z" fill="#f5415f" transform="matrix(.68 -.733 .733 .68 69.657 284.463)"/></g><g><path d="m115.857 215.382h80.935v43.566h-80.935z" fill="#265cde" transform="matrix(.855 -.519 .519 .855 -100.428 115.662)"/></g><g><path d="m239.909 234.553-41.537-38.527 141.991-153.085c6.136-6.615 16.473-7.004 23.088-.868l17.581 16.307c6.615 6.136 7.004 16.473.868 23.088z" fill="#265cde"/></g><path d="m152.74 171.005c-2.452 8.102-6.715 30.814 31.121 60.587 38.208 30.067 91.72 21.606 112.742 0 18.897-19.421 27.524-52.485 25.071-60.587-10.971-36.248-44.637-62.638-84.467-62.638s-73.496 26.389-84.467 62.638z" fill="#05cdff"/><g><path d="m237.207 233.651c-39.829 0-73.482-26.395-84.454-62.642-2.452 8.103-3.784 16.692-3.784 25.595 0 48.732 39.505 88.238 88.238 88.238 48.732 0 88.238-39.506 88.238-88.238 0-8.903-1.332-17.493-3.784-25.595-10.972 36.248-44.625 62.642-84.454 62.642z" fill="#05acff"/></g><path d="m388.166 423.427c-25.6 0-46.353 20.753-46.353 46.353 0 9.122 2.646 17.619 7.198 24.789 29.262-11.417 55.908-28.057 78.789-48.782-8.125-13.395-22.823-22.36-39.634-22.36z" fill="#f5415f"/><path d="m226.813 376.975h-53.901c-6.015 0-10.892 4.876-10.892 10.892 0 6.015 4.876 10.892 10.892 10.892h53.901z" fill="#6e64c3"/><path d="m319.149 398.758h-92.362c-6.015 0-10.892-4.876-10.892-10.892 0-6.015 4.876-10.892 10.892-10.892h92.362c6.015 0 10.892 4.876 10.892 10.892-.001 6.016-4.877 10.892-10.892 10.892z" fill="#5046af"/><path d="m389.256 441.021c-15.725 0-28.472 12.747-28.472 28.472 0 6.542 2.211 12.566 5.922 17.372 17.16-8.243 33.264-18.331 48.042-30.026-4.66-9.371-14.317-15.818-25.492-15.818z" fill="#ff6473"/><g><path d="m379.584 425.987h-220.986v-27.229h220.987c7.519 0 13.615 6.095 13.615 13.615-.001 7.519-6.097 13.614-13.616 13.614z" fill="#265cde"/></g></g></svg>