<svg id="Layer_1" enable-background="new 0 0 511.819 511.819" height="512" viewBox="0 0 511.819 511.819" width="512" xmlns="http://www.w3.org/2000/svg"><g><path d="m511.625 255.91c0 141.281-115.157 225.916-256.439 225.916-126.734 0-231.317-62.263-251.64-183.221-2.332-13.884-3.546-28.148-3.546-42.695 0-141.282 114.531-255.813 255.813-255.813s255.812 114.531 255.812 255.813z" fill="#ffdc64"/><g><path d="m476.648 251.647c-.174.515-.35 1.03-.527 1.544-5.031 14.577-26.576 10.991-26.576-4.43l-108.783-149.193c-12.776-17.47-38.748-17.777-51.935-.616l-7.636 9.938c-5.751 7.485 2.877 17.48 11.122 12.884l9.008-5.022c7.683-4.283 17.382-1.562 21.717 6.092l71.302 125.917h-276.569l70.894-124.261c4.334-7.654 14.034-10.375 21.717-6.092l9.008 5.022c8.245 4.596 16.873-5.4 11.122-12.885l-7.636-9.938c-13.187-17.162-39.158-16.854-51.935.616l-106.718 147.538v31.901c.003.699.005 1.391.008 2.076.101 28.615-37.836 38.804-52.067 13.979-.183-.32-.366-.64-.548-.96-2.383-4.199-8.855-1.914-8.055 2.847 20.321 120.957 125.518 213.12 252.251 213.12 147.772 0 254.844-120.71 256.006-254.022.179-20.527-28.599-25.5-35.17-6.055zm-242.26 173.855c-14.209.01-21.725-16.822-12.324-27.476 3.412-3.867 7.377-8.298 12.272-13.47 12.065-13.356 33.03-13.356 45.096 0l8.317 9.207h.001c.134.147.267.293.399.437 8.813 9.655 3.438 25.171-9.438 27.431-14.764 2.592-29.605 3.861-44.323 3.871z" fill="#ffc305"/><g><path d="m230.512 82.697-7.636-9.938c-13.187-17.162-39.158-16.854-51.935.616l-106.718 147.538 24.003 13.893 29.545-13.893 70.894-124.261c4.334-7.654 14.034-10.375 21.717-6.092l9.008 5.022c8.245 4.596 16.873-5.4 11.122-12.885z" fill="#5046af"/><path d="m449.544 220.913-108.782-149.193c-12.776-17.47-38.748-17.778-51.935-.616l-7.636 9.938c-5.751 7.485 2.877 17.481 11.122 12.884l9.008-5.022c7.683-4.283 17.382-1.562 21.717 6.092l84.342 148.945z" fill="#6e64c3"/><path d="m256.884 245.224-139.107 7.589-2.389 76.024c-.825 26.27 13.825 50.561 37.407 62.166 12.675 6.237 15.625 7.916 18.321 8.406 9.821 1.787 17.092-.699 21.165-2.784 7.296-3.735 13.937-8.792 19.551-15.007l22.504-24.91c12.065-13.356 33.03-13.356 45.096 0l8.317 9.207 48.459 36.215c5.317 1.315 10.818 1.997 16.396 1.997h14.958c45.278 0 81.983-36.705 81.983-81.984v-69.33z" fill="#05cdff"/><g><path d="m117.777 322.144v-69.33h-53.554v69.33c0 45.278 36.705 81.983 81.983 81.983h2.061l9.489-3.535-2.713-9.729c-22.435-14.627-37.266-39.94-37.266-68.719z" fill="#05acff"/></g><path d="m449.544 220.913h-331.773l-3.726 15.95 3.726 15.951h331.773z" fill="#6e64c3"/><path d="m64.223 220.913h53.548v31.901h-53.548z" fill="#5046af"/><g fill="#fff"><path d="m161.164 404.127c10.938 0 21.584-2.628 31.115-7.507l73.466-143.806h-8.788-.147-31.242l-77.301 151.313z"/><path d="m301.935 381.618c9.207 10.192 21.184 17.251 34.278 20.49l76.27-149.295h-66.954l-57.78 113.102z"/></g></g></g></g></svg>