<svg id="Layer_1" enable-background="new 0 0 512 512" height="512" viewBox="0 0 512 512" width="512" xmlns="http://www.w3.org/2000/svg"><g><g><g><path d="m495.132 260.231c0-39.913-9.459-77.613-26.237-111 0-.001-.001-.001-.001-.001-29.346-58.4-81.117-103.576-144.019-124.237-.001 0-.002-.001-.002-.001-24.326-7.99-50.308-12.328-77.307-12.328-129.972 0-236.552 100.158-246.765 227.502-.016.204-.031.478-.045.785-.49 6.364-.756 12.791-.756 19.28 0 36.767 8.015 71.662 22.393 103.033 0 0 172.996 115.689 182.151 117.751 8.313 1.872 16.689 3.103 25.105 3.823l50.281-2.047c127.431-10.126 198.736-91.395 215.202-222.56z" fill="#05cdff"/></g><g fill="#05acff"><ellipse cx="157.649" cy="255.917" rx="25.045" ry="25.045" transform="matrix(.973 -.23 .23 .973 -54.581 43.066)"/><circle cx="198.944" cy="166.048" r="21.105"/><circle cx="148.894" cy="93.295" r="16.018"/></g></g><g fill="#fff"><circle cx="145.21" cy="235.186" r="25.045"/><circle cx="186.506" cy="145.317" r="21.105"/><circle cx="136.456" cy="72.564" r="16.018"/></g><path d="m495.132 260.231c0-39.913-9.459-77.613-26.237-111 0-.001-.001-.001-.001-.001-26.681-53.096-71.903-95.255-127.169-118.003v26.703c0 27.118-9.072 53.457-25.771 74.823l-39.822 50.95c-7.063 6.849-7.235 18.128-.385 25.19 1.657 1.709 3.577 3.005 5.631 3.906h-43.066v41.821 48.347h46.71 56.805v5.808c0 9.077 7.429 18.721 16.505 18.551 8.781-.164 15.85-9.242 15.883-18.065v-6.294h5.968v6.212c0 8.72 6.702 16.224 15.412 16.634 9.3.438 16.978-6.972 16.978-16.177v-6.669h5.965v5.775c0 8.721 6.702 16.224 15.413 16.634 9.3.438 16.978-6.972 16.978-16.177v-6.233h5.777v6.65c0 .375.016.752.041 1.126 1.074 15.801-5.2 30.612-16.544 41.669-38.408 37.438-85.057 49.797-115.834 53.726-8.349 1.066-15.49-5.659-15.157-14.07.004-.089.006-.179.008-.269.17-9.076-9.473-16.504-18.551-16.504h-5.808v-38.034h-41.821-48.347v37.932h-10.603c-9.767 0-15.323-11.17-9.43-18.959l16.513-21.828c6.85-7.063 6.677-18.341-.385-25.191s-18.341-6.678-25.19.385l-50.124 39.176c-30.392-27.056-52.685-59.982-66.487-95.703-9.679-25.052-45.558-19.86-48.962 4.91-.347 36.662 7.36 72.661 22.428 105.319 3.38 2.26 173.03 115.671 182.093 117.713 8.313 1.872 16.689 3.103 25.105 3.823l37.799 22.172c13.15-1.045 26.004-3.133 38.495-6.153-.07-.242-.139-.485-.221-.722 94.896-22.957 168.106-100.144 185.295-197.169h.431c2.413-13.881 3.682-28.159 3.682-42.734zm-153.407-47.433h-46.06c1.902-.831 3.696-1.99 5.273-3.52l21.828-16.513c7.789-5.893 18.959-.337 18.959 9.43z" fill="#05acff"/><g><g><path d="m165.4 493.816c25.713 9.045 53.361 13.981 82.166 13.981 2.679 0 5.344-.058 8.003-.142v-181.79h-90.169z" fill="#fff"/><path d="m255.569 478.778v-152.913h-41.821l-6.913 90.966 6.913 61.947 21.987 1.808z" fill="#fff"/><path d="m165.4 325.865h48.347v156.926h-48.347z" fill="#e8d6ff"/></g><path d="m202.5 434.645h20.35c8.841 0 16.027-7.084 16.192-15.886.17-9.076-7.539-16.505-16.617-16.505h-19.925c-1.595 0-2.888-1.293-2.888-2.888v-.188c0-1.595 1.293-2.888 2.888-2.888h18.877c8.842 0 17.961-7.084 18.126-15.886.17-9.076-9.473-16.504-18.551-16.504h-21.34v-.102h-44.814c-9.767 0-15.323-11.17-9.43-18.959l16.513-21.828c6.85-7.063 6.677-18.341-.385-25.191s-18.341-6.678-25.191.385l-50.95 39.822c-3.515 2.747-7.166 5.285-10.932 7.611l-3.587 43.785 3.588 47.733c40.728 39.868 95.159 65.791 155.577 70.028 13.955-3.817 11.475-28.406-5.097-28.406h-22.404c-1.595 0-2.888-1.293-2.888-2.888s1.293-2.888 2.888-2.888h19.913c8.842 0 16.028-7.084 16.192-15.886.17-9.076-7.539-16.505-16.617-16.505h-19.488c-1.595 0-2.888-1.293-2.888-2.888v-.188c-.001-1.597 1.293-2.89 2.888-2.89z" fill="#ffdc64"/><g><path d="m291.857 243.223 36.731-41.821h-119.567v41.821l40.445 8.115z" fill="#fff"/><path d="m463.607 253.42c39.453-3.617 45.816-24.127 41.367-31.114-8.001-12.567-22.056-20.904-38.058-20.904h-143.809l-31.25 41.821s128.916 14.123 171.75 10.197z" fill="#265cde"/><path d="m291.857 243.223h-82.836v48.347h46.71l40.856-19.191z" fill="#e8d6ff"/><path d="m504.963 222.313c0-.001 0-.001-.001-.001-8.001 12.567-22.046 20.911-38.047 20.911h-175.058l-36.126 48.347h211.184c24.899 0 45.084-20.185 45.084-45.084.001-8.556-2.433-16.945-7.036-24.173z" fill="#0037bd"/></g><path d="m344.924 4.203-13.484 126.585 13.488 107.714c0-1.595 1.293-2.888 2.888-2.888h.188c1.595 0 2.888 1.293 2.888 2.888v23.003c0 8.72 6.701 16.224 15.412 16.634 9.3.438 16.979-6.972 16.979-16.177v-23.459c0-1.595 1.293-2.888 2.888-2.888h.188c1.595 0 2.888 1.293 2.888 2.888v23.602c0 8.721 6.702 16.224 15.413 16.635 9.3.438 16.978-6.972 16.978-16.177v-23.952c0-1.397.944-2.677 2.316-2.941 1.846-.354 3.461 1.051 3.461 2.833v24.476c0 7.884 6.088 14.652 13.966 14.973 8.333.34 15.076-6.311 15.076-14.563v-243.638c0-8.587-6.961-15.548-15.548-15.548z" fill="#ffdc64"/><g fill="#ffc305"><path d="m344.924 4.203h-16.941c-8.587 0-15.548 6.961-15.548 15.548v26.781c0 27.118-9.072 53.457-25.771 74.823l-39.822 50.95c-7.063 6.849-7.235 18.128-.385 25.191s18.128 7.235 25.191.385l21.828-16.513c7.789-5.893 18.959-.337 18.959 9.43v44.814h.102v61.766c0 9.077 7.429 18.721 16.505 18.551 8.781-.164 15.85-9.242 15.883-18.065v-293.661z"/><path d="m74.421 437.158v-91.523c-2.93 1.81-5.936 3.48-8.998 5.029-.031.015-.062.031-.092.047-13.739 6.936-28.423 11.033-42.738 12.462v.489c12.718 27.617 30.37 52.492 51.828 73.496z"/><path d="m367.121 275.697c-8.963 0-16.229-7.266-16.229-16.229v38.348c0 9.078 7.428 16.787 16.505 16.617 8.802-.165 15.886-7.351 15.886-16.193v-37.425c-.687 8.331-7.653 14.882-16.162 14.882z"/><path d="m405.443 275.697c-8.736 0-15.84-6.908-16.195-15.556v37.238c0 9.078 7.429 16.787 16.505 16.617 8.802-.165 15.886-7.351 15.886-16.192v-37.664c-.356 8.648-7.46 15.557-16.196 15.557z"/><g><path d="m441.936 275.697c-8.02 0-14.521-6.501-14.521-14.521v37.045c0 7.884 6.088 14.652 13.966 14.973 8.333.34 15.076-6.311 15.076-14.563v-37.454c0 8.018-6.502 14.52-14.521 14.52z"/><path d="m427.415 259.467v1.708c0-.579.043-1.147.109-1.708z"/></g><path d="m261.377 363.9h-42.239c8.944 0 16.195 7.251 16.195 16.195s-7.251 16.195-16.195 16.195h42.663c8.842 0 17.961-7.084 18.126-15.886.171-9.076-9.472-16.504-18.55-16.504z"/><path d="m261.814 402.255h-42.675c8.944 0 16.195 7.251 16.195 16.195s-7.251 16.195-16.195 16.195h43.1c8.841 0 16.027-7.084 16.192-15.886.17-9.076-7.539-16.504-16.617-16.504z"/><path d="m261.377 440.61h-42.239c8.944 0 16.195 7.251 16.195 16.195s-7.251 16.195-16.195 16.195h42.663c8.842 0 16.028-7.084 16.192-15.886.171-9.075-7.538-16.504-16.616-16.504z"/><path d="m262.219 478.777h-43.081v.187c8.944 0 16.195 7.251 16.195 16.195 0 4.758-2.064 9.023-5.331 11.986 5.803.413 11.655.651 17.563.651 6.693 0 13.322-.275 19.881-.796 5.86-2.025 10.015-7.632 9.745-14.258-.32-7.876-7.088-13.965-14.972-13.965z"/></g></g></g></svg>