<svg id="Layer_1" enable-background="new 0 0 512 512" height="512" viewBox="0 0 512 512" width="512" xmlns="http://www.w3.org/2000/svg"><g><g><path d="m504.112 263.888c0 50.416-15.037 97.32-40.871 136.471l-3.893 1.27-.669 5.403c-25.25 35.686-59.688 64.411-99.868 82.73l-26.686 4.93-20.971 11.155c-13.984 3.174-28.416 5.167-43.186 5.869l-11.968-3.182-14.003 3.077c-14.656-.815-28.973-2.903-42.841-6.154l-17.562-13.485-29.827-2.864c-39.347-18.24-73.11-46.488-98.021-81.475-1.073-1.507-1.921-8.353-1.921-8.353l-5.089-2.037c-24.594-38.513-38.849-84.27-38.849-133.355 0-137.029 111.084-248.113 248.113-248.113s248.112 111.084 248.112 248.113z" fill="#ffdc64"/></g><g><path d="m311.139 55.848h-20.777c0-19.338-15.733-35.071-35.07-35.071-19.338 0-35.071 15.733-35.071 35.071h-20.777c.001-30.795 25.053-55.848 55.848-55.848 30.794 0 55.847 25.053 55.847 55.848z" fill="#0037bd"/></g><path d="m458.252 407.633c1.704-2.394 3.354-4.828 4.975-7.284v-272.131h.521c-15.181-23.199-34.138-43.699-56.006-60.627h-296.057-3.043-4.384c-22.594 17.492-42.092 38.789-57.517 62.943v266.707c2.251 3.525 4.586 6.991 7.008 10.392h44.934 143.316v18.247l-71.128 71.128c9.187 3.356 18.629 6.177 28.287 8.441l42.84-42.84v48.99c4.636.258 9.302.401 14.002.401 4.013 0 8.002-.104 11.969-.292v-49.054l43.185 43.185c9.71-2.204 19.2-4.983 28.44-8.289l-71.624-71.624v-18.292h190.282z" fill="#ffc305"/><path d="m241.998 72.213v326.658l-90.223 90.223c8.522 3.951 17.304 7.433 26.317 10.412l63.906-63.906v76c4.636.257 9.302.4 14.002.4 4.013 0 8.002-.104 11.969-.292v-76.064l64.371 64.371c9.061-2.927 17.897-6.352 26.469-10.26l-90.84-90.84v-326.702z" fill="#0037bd"/><g><path d="m463.227 380.623h-364.545l-18.031-147.22 18.031-132.195h364.545z" fill="#5fd2d0"/></g><g><path d="m46.74 101.208h51.942v279.415h-51.942z" fill="#00bec2"/></g><g><path d="m426.562 343.287h-288.976l-13.441-121.039 13.441-121.04h288.976z" fill="#fff"/></g><g><path d="m85.779 101.208h51.877v242.079h-51.877z" fill="#e8d6ff"/></g><g><path d="m450.827 40.581h-339.142-3.043c-18.959 0-34.084 15.822-33.23 34.763l1.166 25.865h409.356v-25.521c0-19.389-15.718-35.107-35.107-35.107z" fill="#265cde"/></g><g><path d="m111.685 40.581h-51.942c-19.389 0-35.107 15.718-35.107 35.107v25.521h51.942v-25.521c0-19.389 15.718-35.107 35.107-35.107z" fill="#0037bd"/></g><g><path d="m384.429 306.939h-258.271v-147.072h18.699v128.373h239.572z" fill="#05cdff"/></g><g><path d="m168.732 139.718h58.208v131.45h-58.208z" fill="#f5415f"/></g><g><path d="m326.713 212.96h58.208v58.208h-58.208z" fill="#5fd2d0"/></g><g><path d="m247.723 182.955h58.208v88.213h-58.208z" fill="#ffdc64"/></g></g></svg>