<svg id="Layer_1" enable-background="new 0 0 512 512" height="512" viewBox="0 0 512 512" width="512" xmlns="http://www.w3.org/2000/svg"><g><path d="m346.453 421.147c90.345 0 164.699-72.42 165.536-162.761.012-1.317.014-2.636.006-3.957-.166-27.572-4.704-54.105-12.934-78.956-.008-.038-.013-.076-.021-.114-33.832-102.018-130.103-175.568-243.522-175.359-141.64.262-255.52 114.363-255.518 256.003 0 5.483.173 10.926.512 16.323.011.069.025.136.036.205.38 5.967.965 11.879 1.748 17.728 10.041 75.067 74.51 130.888 150.245 130.888z" fill="#5fd2d0"/><path d="m454.672 417.067c.125-.154.258-.303.383-.458h.007c35.887-44.371 57.303-100.872 56.934-162.181-.166-27.572-4.704-54.105-12.934-78.956-.008-.038-.013-.076-.021-.114-.185-.556-.381-1.107-.569-1.661-1.948-2.688-5.103-4.443-8.676-4.443h-92.004c-5.92 0-10.719 4.799-10.719 10.719v41.404h7.765v12.909l-12.75 6.514c-8.914 4.554-14.524 13.72-14.524 23.731v102.106c0 12.881-10.442 23.324-23.324 23.324-12.881 0-23.324-10.442-23.324-23.324v-135.611-96.882h13.47v-25.545l.139-.083v-14.302c0-16.257-13.179-29.436-29.436-29.436l-122.833.052v.003-.003l-26.332-.025c-7.812-.007-15.306 3.091-20.833 8.612-5.526 5.521-8.632 13.013-8.632 20.825v39.849.053h13.609v119.668c0 44.554-59.73 59.51-80.557 20.124-.411-.776-.817-1.555-1.22-2.336-15.414-29.891-60.604-15.524-56.015 17.793 6.453 46.848 25.845 91.123 55.23 127.674z" fill="#00bec2"/><path d="m81.825 417.917c32.441 42.831 48.029 67.639 100.773 83.402 23.251 6.948 47.89 10.681 73.402 10.681 83.384 0 157.446-39.875 204.187-101.586z" fill="#ffdc64"/><path d="m203.916 448.865h178.595c30.287 0 59.021-13.926 77.358-38.031.106-.14.213-.28.319-.42h-408.375c32.441 42.831 78.044 75.133 130.789 90.892 8.156 2.437 13.941-8.019 7.515-13.602-.224-.195-.448-.39-.672-.586-15.156-13.26-5.667-38.253 14.471-38.253z" fill="#ffc305"/><g><g><path d="m149.968 124.883v148.103l130.005-29.75v-118.353z" fill="#fff"/><path d="m153.792 248.128v-123.245h-54.665v113.718l20.743 18.724z" fill="#e8d6ff"/><path d="m264.146 76.988-122.832.053-1.772 69.261h1.772l20.04-6.308 21.57 6.308h13.114l20.805-8.857 20.805 8.857h13.114l42.82-25.576v-14.301c0-16.257-13.179-29.437-29.436-29.437z" fill="#265cde"/><path d="m141.314 146.354-55.796-.053v-39.849c0-7.812 3.105-15.303 8.632-20.824 5.526-5.521 13.021-8.619 20.833-8.612l26.332.025v69.313z" fill="#0037bd"/><path d="m464.557 253.011-12.75-6.514v-33.364h-85.163v174.397c0 22.804 18.486 41.29 41.29 41.29h44.499c14.717 0 26.648-11.931 26.648-26.648v-125.43c0-10.011-5.61-19.177-14.524-23.731z" fill="#265cde"/><path d="m381.286 402.172v-125.43c0-10.01 5.61-19.176 14.524-23.73l12.75-6.514v-33.364h-54.665v33.364l-12.75 6.514c-8.914 4.554-14.524 13.72-14.524 23.73v125.43c0 14.717 11.931 26.648 26.648 26.648h54.665c-14.717 0-26.648-11.931-26.648-26.648z" fill="#0037bd"/><path d="m479.081 378.504h-49.433l-8.384-45.971 8.384-35.623h49.433z" fill="#fff"/><path d="m375.737 296.91h53.911v81.594h-53.911z" fill="#e8d6ff"/><path d="m448.853 181.465h-50.6l-9.173 26.061 9.173 26.061h61.319v-18.494l-2.144-4.765 2.144-4.765v-13.381c0-5.918-4.799-10.717-10.719-10.717z" fill="#fff"/><path d="m346.13 205.565h113.441v9.529h-113.441z" fill="#e8d6ff"/><path d="m398.253 181.465h-41.404c-5.92 0-10.719 4.799-10.719 10.719v41.404h52.123z" fill="#e8d6ff"/><path d="m189.55 260.431c-19.098.602-25.196-4.371-35.76-12.3l-12.665 40.772 6.78 110.11c1.031 16.75 14.917 29.807 31.699 29.807h.836 72.884c14.718 0 26.648-11.931 26.648-26.648v-158.936c-23.508-10.844-67.288 16.466-90.422 17.195z" fill="#f5415f"/><g fill="#cd2846"><path d="m153.792 402.171v-154.043c-5.54-4.159-12.312-9.131-22.837-14.54-9.51-4.888-20.793-1.7-31.828 5.013v163.571c0 14.717 11.931 26.648 26.648 26.648h54.665c-14.717 0-26.648-11.931-26.648-26.649z"/><circle cx="154.743" cy="311.869" r="14.959"/><circle cx="202.58" cy="368" r="13.029"/><circle cx="208.833" cy="314.723" r="6.254"/><circle cx="256.443" cy="388.096" r="7.066"/><circle cx="262.975" cy="283.311" r="13.599"/></g><path d="m182.924 146.354h-41.61v-26.164c0-11.49 9.315-20.805 20.805-20.805 11.49 0 20.805 9.315 20.805 20.805z" fill="#0037bd"/><path d="m237.648 146.354h-41.61v-26.164c0-11.49 9.315-20.805 20.805-20.805 11.49 0 20.805 9.315 20.805 20.805z" fill="#0037bd"/><path d="m293.443 146.354h-42.682v-25.628c0-11.786 9.555-21.341 21.341-21.341 11.786 0 21.341 9.555 21.341 21.341z" fill="#0037bd"/><path d="m128.2 146.354h-42.681v-25.628c0-11.786 9.555-21.341 21.341-21.341 11.786 0 21.341 9.555 21.341 21.341v25.628z" fill="#0037bd"/></g><g fill="#5fd2d0"><path d="m402.692 314.723h61.915v12.105h-61.915z"/><path d="m402.692 333.798h61.915v23.317h-61.915z"/></g></g></g></svg>