<svg id="Layer_1" enable-background="new 0 0 512 512" height="512" viewBox="0 0 512 512" width="512" xmlns="http://www.w3.org/2000/svg"><g><path d="m494.644 256c0-9.676-.483-16.101-1.195-24.363-12.239-125.155-117.757-222.959-246.127-222.959-23.727 0-46.674 3.341-68.395 9.579 0 0-14.074 8.259-32.454 19.29-.576-.567-1.138-1.122-1.673-1.651l-51.627 26.685c-56.04 44.721-72.173 116.027-72.173 193.419 0 136.592 89.73 227.322 226.322 227.322 135.908 0 247.322-90.049 247.322-227.322z" fill="#6e64c3"/><g fill="#5046af"><path d="m421.69 431.372.024-.006c28.899-28.713 50.753-64.547 62.696-104.731v-67.672-73.54c-.039-.044-.067-.076-.106-.12-22.989-2.999-44.871-12.093-63.298-26.496l-54.564-42.646c-7.335-7.564-19.414-7.749-26.977-.412-7.564 7.335-7.749 19.414-.413 26.978l17.685 23.376c6.311 8.341.361 20.304-10.099 20.304h-47.993v.109h-95.141c-9.721 0-17.977 7.955-17.796 17.675.176 9.426 7.872 17.013 17.341 17.013h92.503c1.708 0 3.093 1.385 3.093 3.093v.201c0 1.708-1.385 3.093-3.093 3.093h-9.497c-.686-.118-1.371-.183-2.054-.215-1.526-.111-3.051-.037-4.548.215h-109.554c-5.992 0-11.419 3.028-14.665 7.623-4.896-9.055-10.643-18.054-14.608-24.018-2.288-3.441-7.333-3.442-9.621-.001-8.241 12.394-24.181 37.903-24.181 49.776 0 16.011 12.98 28.991 28.991 28.991 15.79 0 28.623-12.626 28.974-28.332 1.483.413 3.04.649 4.654.649h102.554c.064.023.154.056.218.08l7.492 6.308h-76.204c-9.722 0-17.978 7.955-17.796 17.675.176 9.426 7.872 17.013 17.341 17.013h22.03c3.936 0 4.221 5.8.304 6.187-4.422 0-8.515 1.788-11.46 4.704-5.051 5-11.189 8.766-18.115 10.36l-1.403.323c-.033.008-.065.02-.098.028l-44.576 10.123c-.689.157-1.362.353-2.017.586-21.946 7.817-46.542.959-59.75-18.233-2.793-4.058-5.344-8.337-7.625-12.824-17.244-33.914-27.048-72.391-27.901-113.168-.797-38.061 15.417-80.837 24.808-102.292 5.724-13.078 25.381-9.297 25.624 4.976.002.111.003.221.003.332v38.079h-15.766v48.913h48.711.203 50.667v-48.913h-15.767v-53.834c0-17.448-6.577-33.35-17.377-45.388-2.266 1.354-4.628 2.768-7.069 4.233-.576-.567-1.138-1.122-1.673-1.651l-51.628 26.685c-5.046 4.027-9.932 8.276-14.658 12.719h.045c-48.67 45.738-78.56 111.479-78.56 180.7 0 136.592 110.73 247.322 247.322 247.322 65.777 0 128.043-25.922 174.368-71.95z"/><path d="m208.414 357.324.13-.03-.001-.004c-.042.013-.087.021-.129.034z"/></g><path d="m512 172.61c-23.027-2.985-44.948-12.086-63.404-26.51l-54.564-42.646c-7.335-7.564-19.414-7.749-26.977-.412-7.564 7.335-7.749 19.414-.413 26.978l17.685 23.376c6.311 8.342.361 20.304-10.099 20.304h-47.993v.109h-95.141c-9.721 0-17.977 7.955-17.795 17.675.176 9.426 7.872 17.013 17.341 17.013h92.503c1.708 0 3.093 1.385 3.093 3.093v.201c0 1.708-1.385 3.093-3.093 3.093h-125.654c-9.721 0-17.977 7.955-17.795 17.675.176 9.426 7.872 17.013 17.341 17.013h126.107c1.708 0 3.093 1.385 3.093 3.093v.201c0 1.709-1.385 3.093-3.093 3.093h-92.048c-9.721 0-17.977 7.955-17.795 17.675.176 9.426 7.872 17.013 17.341 17.013h92.503c1.708 0 3.093 1.385 3.093 3.093s-1.385 3.093-3.093 3.093h-70.168c-8.443 0-15.691 6.52-16.035 14.956-.364 8.924 6.758 16.145 15.596 16.145h242.109l17.355-81.678z" fill="#efa603"/><path d="m512 246.256-44.461 10.097c-28.32 6.431-57.978 3.204-84.252-9.169l-62.653-29.504c-8.828-5.751-19.141-3.098-24.892 5.731-5.751 8.828-2.786 19.848 6.042 25.599l22.422 18.879c8.001 6.737 4.848 19.72-5.352 22.036l-96.859 22.295c-9.48 2.153-15.769 11.739-13.439 21.177 2.26 9.153 11.444 14.847 20.678 12.75l45.532-10.335c1.666-.378 3.323.665 3.702 2.331l.045.196c.378 1.666-.666 3.323-2.331 3.701l-40.718 9.176c-9.48 2.153-15.769 11.739-13.439 21.177 2.26 9.153 11.444 14.847 20.678 12.75l41.162-9.276c1.666-.378 3.323.665 3.701 2.331l.045.196c.378 1.666-.665 3.323-2.331 3.701l-38.912 8.814c-9.48 2.153-15.769 11.739-13.439 21.177 2.259 9.153 11.444 14.847 20.678 12.75l39.355-8.915c1.666-.378 3.323.665 3.701 2.331s-.665 3.323-2.331 3.701l-39.413 8.956c-8.234 1.87-13.858 9.833-12.325 18.136 1.622 8.783 10.166 14.248 18.784 12.291l250.622-56.916z" fill="#ffdc64"/><g><path d="m299.806 249.652 22.422 18.879c7.442 6.266 5.23 17.931-3.322 21.395l23.451-5.326c10.2-2.316 13.353-15.299 5.352-22.036l-22.422-18.879c-8.829-5.751-11.323-17.571-5.572-26.399.022-.034.049-.064.071-.098-8.725-5.072-19.982-2.488-25.552 6.065-5.751 8.828-3.256 20.648 5.572 26.399z" fill="#ffc305"/></g><path d="m192.397 248.264c0 16.011-12.98 28.991-28.991 28.991s-28.991-12.98-28.991-28.991c0-11.868 15.929-37.364 24.172-49.763 2.292-3.447 7.345-3.447 9.637 0 8.244 12.399 24.173 37.895 24.173 49.763z" fill="#05cdff"/><path d="m111.306 62.593c10.58 0 19.156 8.576 19.156 19.156v68.271h68.047v-84.026c0-18.605-7.478-35.451-19.58-47.73-31.643 9.087-60.679 24.324-85.747 44.329z" fill="#5fd2d0"/><path d="m114.695 119.829h71.99v48.913h-71.99z" fill="#e8d6ff"/><g fill="#ffc305"><g><path d="m231.126 345.319c-9.662 0-17.495-7.832-17.495-17.495 0-7.262 4.426-13.489 10.727-16.135l-47.038 10.682c-9.48 2.153-15.769 11.739-13.439 21.177 2.26 9.153 11.444 14.847 20.678 12.75l49.547-11.252c-.97.168-1.962.273-2.98.273z"/><path d="m236.004 344.616.13-.029-.001-.004c-.043.013-.087.021-.129.033z"/></g><path d="m242.783 384.656c-9.662 0-17.495-7.833-17.495-17.495 0-7.154 4.299-13.296 10.451-16.007l-82.127 18.651c-9.48 2.153-15.769 11.739-13.439 21.177 2.26 9.153 11.444 14.847 20.678 12.75l84.187-19.118-.026-.116c-.731.094-1.472.158-2.229.158z"/><path d="m252.351 424.909c-9.662 0-17.495-7.832-17.495-17.495 0-7.571 4.818-13.999 11.547-16.435l-.018-.079-50.949 11.57c-9.48 2.153-15.769 11.739-13.439 21.177 2.259 9.153 11.444 14.847 20.678 12.75l50.851-11.548c-.39.027-.779.06-1.175.06z"/><path d="m245.073 445.759c0-6.82 4.279-12.626 10.292-14.922l-.006-.028-29.456 6.689c-8.234 1.87-13.858 9.833-12.325 18.136 1.622 8.783 10.166 14.248 18.784 12.291l27.485-6.242c-8.26-.621-14.774-7.505-14.774-15.924z"/></g><path d="m214.275 168.742h-35.733c-13.507 0-24.457-10.95-24.457-24.457 0-13.507 10.95-24.457 24.457-24.457h35.733z" fill="#fff"/></g></svg>