<svg id="Layer_1" enable-background="new 0 0 511.819 511.819" height="512" viewBox="0 0 511.819 511.819" width="512" xmlns="http://www.w3.org/2000/svg"><g><path d="m365.9 423.789c50.468 0 96.004-30.776 114.328-77.8.114-.292.227-.584.34-.876 13.462-34.937 19.23-73.561 15.306-113.685-.01.101-.024.201-.034.302-.075-5.617-2.805-21.564-4.735-30.21l-.02-.015c-1.414-6.33-3.062-12.57-4.948-18.707l.007-.008c-31.223-101.579-125.792-175.418-237.607-175.418-129.002 0-235.048 98.282-247.346 224.054-.008.082-.014.196-.018.326-.767 7.95-1.173 16.006-1.173 24.157 0 7.674.348 15.266 1.029 22.762.127 1.393.265 2.783.414 4.169 8.668 80.422 77.397 140.947 158.285 140.947h206.172z" fill="#f5415f"/><path d="m480.548 345.105c-28.482 31.264-77.647 19.645-91.1-17.907l-2.53-7.11c-15.345-43.12-4.5-91.222 27.864-123.586l-10.437-10.437 18.737-18.77c6.234-6.243 14.595-6.609 23.415-6.609l31.929.793-1.559-3.865c-2.753-6.386-5.765-12.635-9.025-18.731h-21.416c-13.83 0-26.827 5.391-36.599 15.179l-18.727 18.758-12.727-12.727-35.601 35.601-17.196-48.629v-56.926h10.965v-41.517h-96.865v41.517h7.738v56.926l-50.253 142.115c-.352.997-.701 1.983-1.046 2.959-17.903 50.652-86.727 57.559-114.311 11.458-7-11.697-13.084-24.464-17.494-38.193-11.837-36.845-66.802-25.271-63.254 13.266 4.846 52.636 26.311 103.758 64.226 145.119h366.493c21.777-23.791 37.998-50.73 48.773-78.684z" fill="#cd2846"/><path d="m84.721 417.542c45.583 53.192 88.271 86.905 163.816 86.905s143.208-33.713 188.791-86.905z" fill="#ffdc64"/><path d="m143.989 417.542h-84.242c45.583 53.192 113.246 86.905 188.791 86.905 14.359 0 28.43-1.225 42.121-3.563-58.345-9.963-109.751-40.26-146.67-83.342z" fill="#ffc305"/><g><g><path d="m340.766 309.155-50.253-142.115v-84.924h-59.431l-9.782 227.039 65.374 11.814z" fill="#fff"/></g><g><path d="m221.3 309.155-41.795 74.48c-13.26 23.63 2.728 53.541 29.803 54.638.544.022 1.091.033 1.64.033h1.196 138.091c17.813 0 30.255-17.64 24.277-34.42l-33.746-94.732z" fill="#05cdff"/></g><g><path d="m185.015 319.209 36.285-10.054 50.252-142.114v-84.925h-59.201v84.925l-50.253 142.114z" fill="#e8d6ff"/></g><path d="m187.85 403.932 33.333-94.127.116-.65h-59.202l-33.563 94.777c-5.939 16.772 6.501 34.375 24.293 34.375h59.315c-17.791-.001-30.231-17.603-24.292-34.375z" fill="#05acff"/><g><path d="m204.613 68.597h69.274v41.517h-69.274z" fill="#e8d6ff"/></g><g><path d="m299.891 183.41h51.49v101.481h-51.49z" fill="#fff" transform="matrix(.707 .707 -.707 .707 260.946 -161.678)"/></g><g><path d="m411.362 158.857c-13.83 0-26.827 5.391-36.599 15.179l-52.573 52.666v13.241h13.248l52.581-52.674c6.234-6.243 14.524-9.682 23.344-9.682h100.457v-18.731h-100.458z" fill="#ffdc64"/></g><g><path d="m325.487 223.399-66.813 66.931 13.256 13.233 66.347-66.464c-8.507.582-13.574-6.061-12.79-13.7z" fill="#ffc305"/></g><g fill="#05acff"><circle cx="223.332" cy="374.735" r="15.182"/><circle cx="296.898" cy="392.846" r="15.182"/><circle cx="280.975" cy="347.024" r="7.591"/></g><g><path d="m301.478 110.114h-28.48c-11.465 0-20.759-9.294-20.759-20.759 0-11.465 9.294-20.759 20.759-20.759h28.48z" fill="#fff"/></g></g></g></svg>