<svg id="Layer_1" enable-background="new 0 0 511.605 511.605" height="512" viewBox="0 0 511.605 511.605" width="512" xmlns="http://www.w3.org/2000/svg"><g><g><path d="m497.087 263.687c0 139.697-101.578 228.101-241.275 228.101-60.745 0-116.489-1.587-160.096-37.277-56.675-46.386-92.847-116.889-92.847-195.84 0-139.697 113.247-252.943 252.943-252.943 113.504 0 209.546 74.76 241.571 177.726 7.391 23.76-.296 54.04-.296 80.233z" fill="#05cdff"/></g><path d="m498.556 187.395c-15.645-24.316-42.877-41.045-75.077-41.045-20.716 0-39.778 7.063-54.921 18.907-8.268 6.467-19.369 8.018-29.219 4.392-11.805-4.346-19.71-15.456-20.084-28.03-1.936-65.129-49.563-119.486-112.477-131.124-66.092 12.984-122.946 51.703-159.702 105.299-1.859 8.428-2.962 17.154-3.218 26.108-2.32 81.256 65.634 146.859 146.92 141.477l17.079 52.874c3.8 11.766 1.462 24.765-6.542 34.189-.099.117-.199.235-.297.352-11.256 13.411-30.335 17.044-45.633 8.526-.889-.495-1.775-.995-2.657-1.501-50.494-28.921-98.949 39.064-57.004 76.683 40.379 33.048 91.16 53.858 146.687 56.757 144.685 7.434 264.106-106.505 266.295-248.618l.008-.6c.336-25.719-3.113-50.617-10.158-74.646zm-62.973 168.881c-6.055 4.815-12.336 9.359-18.824 13.612-32.008 20.982-74.497 18.389-103.009-7.14-.215-.193-.432-.384-.649-.575-24.757-21.683-38.859-44.937-47.224-63.549-8.142-18.114-3.728-39.222 10.656-52.916.292-.278.582-.557.871-.837 12.8-12.401 31.531-16.445 48.256-10.288l8.614 3.171c1.143 48.302 40.628 87.114 89.205 87.114.329 0 .658-.002.987-.005 16.815-.182 24.279 20.945 11.117 31.413z" fill="#05acff"/><g><path d="m418.484 202.467-321.687-118.426 106.214 328.832 62.483-20.182-64.732-200.406 195.039 71.801z" fill="#fff"/><path d="m96.797 84.041 66.455 205.738c22.636-2.051 43.861-9.041 62.574-19.899l-25.064-77.596 76.826 28.283c11.779-18.203 19.782-39.081 22.912-61.535z" fill="#e8d6ff"/><g><ellipse cx="149.316" cy="137.754" fill="#0037bd" rx="137.754" ry="137.754" transform="matrix(.707 -.707 .707 .707 -53.673 145.93)"/></g><path d="m241.782 319.279c-4.169-.562-8.42-.858-12.738-.858-19.036 0-36.757 5.621-51.603 15.286l25.571 79.166 62.483-20.182z" fill="#e8d6ff"/><ellipse cx="229.044" cy="413.133" fill="#cd2846" rx="78.654" ry="78.654" transform="matrix(.707 -.707 .707 .707 -225.044 282.962)"/><ellipse cx="229.044" cy="413.133" fill="#f5415f" rx="32.342" ry="32.342" transform="matrix(.924 -.383 .383 .924 -140.664 119.099)"/><circle cx="391.241" cy="227.422" fill="#ffdc64" r="89.259"/><g><path d="m391.241 288.615c-33.741 0-61.192-27.451-61.192-61.193 0-33.741 27.451-61.192 61.192-61.192s61.192 27.451 61.192 61.192c0 33.742-27.451 61.193-61.192 61.193zm0-80.022c-10.383 0-18.829 8.447-18.829 18.829s8.447 18.83 18.829 18.83c10.383 0 18.829-8.448 18.829-18.83s-8.446-18.829-18.829-18.829z" fill="#ffc305"/></g><path d="m265.643 120.683h-25.996c-18.126 0-27.203-21.915-14.386-34.732l18.382-18.382-24.142-24.142-18.382 18.383c-12.817 12.817-34.732 3.739-34.732-14.386v-25.996h-34.141v25.996c0 18.126-21.915 27.203-34.732 14.386l-18.382-18.382-24.142 24.142 18.382 18.382c12.817 12.817 3.739 34.732-14.386 34.732h-25.996v34.141h25.996c18.126 0 27.203 21.915 14.386 34.732l-18.382 18.381 24.142 24.142 18.382-18.382c12.817-12.817 34.732-3.739 34.732 14.386v25.996h34.141v-25.996c0-18.126 21.915-27.203 34.732-14.386l18.382 18.382 24.142-24.142-18.382-18.382c-12.817-12.817-3.739-34.732 14.386-34.732h25.996z" fill="#265cde"/><g><ellipse cx="149.316" cy="137.754" fill="#3176ff" rx="58.134" ry="58.134" transform="matrix(.707 -.707 .707 .707 -53.673 145.93)"/></g></g></g></svg>