<svg id="Layer_1" enable-background="new 0 0 511.982 511.982" height="512" viewBox="0 0 511.982 511.982" width="512" xmlns="http://www.w3.org/2000/svg"><g><g><path d="m341.215 426.824c92.747 0 169.263-74.016 170.717-166.751.021-1.357.032-2.717.032-4.078 0-8.648-.435-17.193-1.272-25.62-.007.073-.016.146-.024.219-.001-.342-.009-.608-.025-.771-13.11-129.081-122.122-229.81-254.661-229.81-132.728 0-241.862 101.016-254.716 230.361-.007.067-.012.15-.015.248-.821 8.347-1.251 16.81-1.251 25.373 0 31.76 5.785 62.167 16.358 90.227.113.299.226.599.34.898 18.335 48.106 64.711 79.705 116.192 79.705h208.325z" fill="#ffdc64"/><path d="m281.549 510.698c-.055-.006-.11-.013-.166-.018.623-.001 3.746-.35 4.365-.421 138.342-16.063 238.89-140.398 224.942-279.879-.007.071-.016.142-.023.212 0-.092-.001-.185-.002-.282-.213-16.705-23.692-20.09-28.662-4.139-.201.645-.404 1.288-.61 1.931-10.492 32.747-59.424 21.784-55.181-12.34l3.117-25.068 28.819-52.2c3-5.432 1.79-12.489-3.402-16.541-5.429-4.237-13.298-3.249-17.904 1.87l-20.656 22.961c2.939-5.43 1.705-12.443-3.483-16.467-5.43-4.21-13.274-3.215-17.869 1.893l-44.018 48.932c-2.255 2.511-3.668 5.83-3.741 9.469l-.047 2.386-2.545 128.28c-.851 42.902-33.451 78.757-76.15 83.016-2.138.213-3.938.32-5.345.322.073.007.145.016.219.024-8.257.821-16.595 1.253-25.024 1.272-12.615.028-22.84-10.238-22.84-22.853 0-9.635 6.074-18.155 15.111-21.494 59.335-21.921 101.612-79.048 101.477-146.032-.172-85.513-71.937-156.119-157.442-154.959-84.775 1.15-153.143 70.23-153.143 155.278 0 72.403 49.55 133.232 116.589 150.429v19.501c-34.812-14.73-67.182-31.43-92.72-57.779-13.123-13.54-35.49.568-28.843 18.213.126.335.253.669.381 1.004 0 0 .001.001.001.001 19.315 50.62 55.006 95.422 103.541 125.844l39.291 13.656 38.083 18.563c5.295 1.234 10.653 2.303 16.068 3.202.002 0 .003.001.005.001 6.818 1.132 13.725 1.998 20.713 2.585.068.006.136.013.204.018 15.182 1.265 30.931 1.193 46.89-.391z" fill="#ffc305"/><g><path d="m120.258 295.314v177.738c16.674 10.448 34.628 19.044 53.589 25.463v-203.201c0-10.972 4.573-20.87 11.909-27.914-6.955-6.678-16.392-10.79-26.795-10.79-21.374.001-38.703 17.329-38.703 38.704z" fill="#0037bd"/><path d="m164.787 257.048v238.187c10.639 4.058 21.613 7.438 32.878 10.063v-209.984c0-19.395-14.267-35.456-32.878-38.266z" fill="#265cde"/><circle cx="158.962" cy="183.322" fill="#05cdff" r="155.292"/><circle cx="158.962" cy="183.322" fill="#05acff" r="122.763"/><circle cx="158.962" cy="183.322" fill="#e8d6ff" r="100.344"/><g fill="#fff"><path d="m158.962 82.979c-1.324 0-2.64.034-3.951.085l-84.864 146.986c6.864 13.02 16.505 24.346 28.138 33.192l99.563-172.448c-11.959-5.032-25.097-7.815-38.886-7.815z"/><path d="m107.873 269.697c5.868 3.478 12.118 6.379 18.676 8.617l98.456-170.532c-5.156-4.512-10.778-8.502-16.785-11.893z"/></g></g><g><path d="m437.785 90.025c-5.335-4.8-13.551-4.365-18.351.97l-44.285 49.228c-1.641 1.818-2.789 4.103-3.213 6.699l-.367 2.247s-39.839 296.553-39.621 298.537h43.705l35.998-289.541 28.819-52.2c2.857-5.172 1.896-11.819-2.685-15.94z" fill="#cd2846"/><path d="m395.774 98.415c-5.335-4.8-13.551-4.365-18.35.97l-44.285 49.229c-2.255 2.512-3.668 5.83-3.741 9.469l-.047 2.386-5.631 283.875c-.005.309-.006.724 0 1.035.285 14.402 12.193 25.846 26.595 25.561 14.402-.286 25.846-12.193 25.561-26.595l-5.536-279.054 28.121-50.935c2.855-5.173 1.894-11.82-2.687-15.941z" fill="#f5415f"/></g></g><g fill="#cd2846"><path d="m325.286 365.352h49.022l-.395-19.908h-48.232z"/><path d="m324.496 405.168h50.601l-.395-19.908h-49.811z"/><path d="m326.076 325.536h47.442l-.395-19.908h-46.653z"/></g></g></svg>